<svg viewBox="0 0 720 380" xmlns="http://www.w3.org/2000/svg" font-family="Georgia,serif">
<defs><clipPath id="plot"><rect x="60" y="20" width="600" height="320"/></clipPath></defs>
<rect x="0" y="0" width="720" height="380" fill="#fbf7ec"/>
<line x1="60" y1="340.0" x2="660" y2="340.0" stroke="#e7ddc6" stroke-width="1.1"/>
<text x="52" y="344.0" text-anchor="end" font-size="11" fill="#1a5276">100</text>
<text x="668" y="344.0" text-anchor="start" font-size="11" fill="#b9770e">5</text>
<line x1="60" y1="307.9" x2="660" y2="307.9" stroke="#e7ddc6" stroke-width="0.6"/>
<text x="52" y="311.9" text-anchor="end" font-size="11" fill="#1a5276">200</text>
<text x="668" y="311.9" text-anchor="start" font-size="11" fill="#b9770e">10</text>
<line x1="60" y1="265.4" x2="660" y2="265.4" stroke="#e7ddc6" stroke-width="0.6"/>
<text x="52" y="269.4" text-anchor="end" font-size="11" fill="#1a5276">500</text>
<text x="668" y="269.4" text-anchor="start" font-size="11" fill="#b9770e">25</text>
<line x1="60" y1="233.3" x2="660" y2="233.3" stroke="#e7ddc6" stroke-width="1.1"/>
<text x="52" y="237.3" text-anchor="end" font-size="11" fill="#1a5276">1,000</text>
<text x="668" y="237.3" text-anchor="start" font-size="11" fill="#b9770e">50</text>
<line x1="60" y1="201.2" x2="660" y2="201.2" stroke="#e7ddc6" stroke-width="0.6"/>
<text x="52" y="205.2" text-anchor="end" font-size="11" fill="#1a5276">2,000</text>
<text x="668" y="205.2" text-anchor="start" font-size="11" fill="#b9770e">100</text>
<line x1="60" y1="158.8" x2="660" y2="158.8" stroke="#e7ddc6" stroke-width="0.6"/>
<text x="52" y="162.8" text-anchor="end" font-size="11" fill="#1a5276">5,000</text>
<text x="668" y="162.8" text-anchor="start" font-size="11" fill="#b9770e">250</text>
<line x1="60" y1="126.7" x2="660" y2="126.7" stroke="#e7ddc6" stroke-width="1.1"/>
<text x="52" y="130.7" text-anchor="end" font-size="11" fill="#1a5276">10,000</text>
<text x="668" y="130.7" text-anchor="start" font-size="11" fill="#b9770e">500</text>
<line x1="60" y1="94.6" x2="660" y2="94.6" stroke="#e7ddc6" stroke-width="0.6"/>
<text x="52" y="98.6" text-anchor="end" font-size="11" fill="#1a5276">20,000</text>
<text x="668" y="98.6" text-anchor="start" font-size="11" fill="#b9770e">1,000</text>
<line x1="60" y1="52.1" x2="660" y2="52.1" stroke="#e7ddc6" stroke-width="0.6"/>
<text x="52" y="56.1" text-anchor="end" font-size="11" fill="#1a5276">50,000</text>
<text x="668" y="56.1" text-anchor="start" font-size="11" fill="#b9770e">2,500</text>
<line x1="60" y1="20.0" x2="660" y2="20.0" stroke="#e7ddc6" stroke-width="1.1"/>
<text x="52" y="24.0" text-anchor="end" font-size="11" fill="#1a5276">100,000</text>
<text x="668" y="24.0" text-anchor="start" font-size="11" fill="#b9770e">5,000</text>
<line x1="60" y1="20" x2="60" y2="340" stroke="#26221a" stroke-width="1.2"/>
<line x1="660" y1="20" x2="660" y2="340" stroke="#26221a" stroke-width="1.2"/>
<line x1="60" y1="340" x2="660" y2="340" stroke="#26221a" stroke-width="1.2"/>
<line x1="89.1" y1="340" x2="89.1" y2="345" stroke="#26221a"/><text x="89.1" y="360" text-anchor="middle" font-size="11" fill="#8a7f6c">1400</text>
<line x1="193.1" y1="340" x2="193.1" y2="345" stroke="#26221a"/><text x="193.1" y="360" text-anchor="middle" font-size="11" fill="#8a7f6c">1500</text>
<line x1="297.1" y1="340" x2="297.1" y2="345" stroke="#26221a"/><text x="297.1" y="360" text-anchor="middle" font-size="11" fill="#8a7f6c">1600</text>
<line x1="401.1" y1="340" x2="401.1" y2="345" stroke="#26221a"/><text x="401.1" y="360" text-anchor="middle" font-size="11" fill="#8a7f6c">1700</text>
<line x1="505.1" y1="340" x2="505.1" y2="345" stroke="#26221a"/><text x="505.1" y="360" text-anchor="middle" font-size="11" fill="#8a7f6c">1800</text>
<line x1="609.0" y1="340" x2="609.0" y2="345" stroke="#26221a"/><text x="609.0" y="360" text-anchor="middle" font-size="11" fill="#8a7f6c">1900</text>
<g clip-path="url(#plot)">
<path d="M129.7 129.0 L130.7 146.7 L134.9 135.7 L136.9 489.1 M153.6 190.4 L154.6 189.1 L158.8 128.6 L160.9 129.7 L161.9 116.0 M193.1 150.6 L194.1 116.9 L195.2 118.2 L196.2 102.2 L197.3 94.0 L203.5 122.8 L206.6 117.5 L209.7 99.6 L210.8 123.0 L211.8 112.6 L212.9 109.8 L213.9 89.2 L214.9 106.1 L220.1 104.7 L222.2 62.1 L223.3 69.5 L224.3 68.6 L225.3 49.3 L226.4 65.3 L227.4 76.0 L228.5 114.6 L229.5 103.7 L230.5 95.6 L231.6 102.4 L234.7 88.4 L235.7 125.3 L237.8 139.8 L238.9 119.9 L239.9 67.6 L240.9 101.2 L242.0 134.4 L243.0 100.2 L244.1 105.7 L245.1 107.8 L246.1 110.4 L247.2 103.8 L248.2 91.1 L249.3 56.5 L250.3 97.2 L251.3 70.1 L252.4 90.7 L253.4 117.8 L254.5 93.6 L255.5 87.0 L256.5 98.3 L257.6 80.5 L258.6 65.5 L259.7 58.8 L260.7 56.5 L261.7 64.4 L262.8 90.2 L263.8 103.3 L264.9 114.4 L265.9 92.6 L266.9 64.8 L268.0 28.5 L269.0 36.6 L270.1 56.5 L271.1 42.8 L272.1 50.5 L273.2 73.9 L274.2 71.6 L275.3 64.7 L276.3 68.7 L277.3 73.7 L278.4 72.4 L279.4 72.9 L280.5 73.0 L281.5 66.8 L282.5 59.9 L283.6 68.3 L284.6 77.9 L285.6 79.0 L286.7 76.7 L287.7 69.5 L288.8 37.2 L289.8 48.5 L290.8 95.2 L291.9 93.4 L296.0 73.3 L297.1 122.8 L298.1 115.1 L299.2 130.8 L300.2 96.3 L301.2 85.2 L302.3 72.6 L303.3 65.3 L304.4 88.2 L305.4 93.0 L306.4 106.2 L307.5 117.8 L308.5 109.5 L309.6 80.2 L311.6 68.2 L313.7 124.3 L314.8 108.2 L315.8 101.0 L316.8 88.6 L317.9 79.1 L318.9 80.8 L320.0 65.7 L321.0 88.9 L322.0 99.5 L323.1 114.1 L324.1 125.7 L325.2 84.5 L326.2 57.3 L327.2 96.1 L328.3 54.5 L329.3 51.8 L330.4 98.8 L331.4 102.2 L332.4 120.1 L333.5 144.6 L334.5 219.6 L337.6 108.2 L338.7 110.2 L339.7 76.5 L340.8 76.4 L341.8 28.2 L342.8 33.9 L343.9 79.2 L344.9 79.4 L346.0 90.8 L347.0 95.2 L348.0 84.1 L349.1 63.0 L350.1 63.0 L351.2 59.2 L352.2 64.5 L353.2 67.8 L354.3 138.7 L355.3 124.9 L356.4 121.3 L357.4 123.3 L358.4 84.1 L359.5 103.5 L360.5 105.2 L361.6 89.3 L362.6 117.6 L363.6 106.5 L364.7 106.0 L365.7 106.8 L366.8 131.2 L367.8 119.7 L368.8 65.3 L369.9 76.3 L370.9 147.7 L372.0 115.3 L373.0 121.6 L374.0 124.5 L375.1 106.7 L376.1 101.2 L377.2 97.8 L378.2 105.0 L379.2 117.7 L380.3 139.6 L381.3 108.6 L382.4 149.7 L383.4 131.4 L384.4 119.2 L385.5 114.6 L386.5 119.3 L387.6 135.9 L388.6 132.4 L389.6 155.3 L390.7 140.5 L391.7 98.3 L392.8 99.0 L393.8 83.8 L394.8 78.6 L395.9 129.6 L396.9 111.0 L398.0 102.6 L399.0 93.0 L400.0 81.0 L401.1 74.9 L402.1 110.6 L403.2 136.2 L404.2 123.9 L405.2 118.6 L406.3 135.1 L407.3 156.5 L408.4 167.2 L409.4 122.8 M421.9 85.2 L422.9 156.0 L424.0 108.5 L425.0 101.8 L426.0 92.4 L427.1 91.0 L428.1 140.5 L429.2 169.3 L431.2 153.7 L432.3 147.4 L433.3 161.3 L434.4 161.8 L435.4 105.2 L436.4 139.0 L438.5 205.1 L439.5 168.6 L440.6 131.2 L441.6 123.1 L442.7 128.0 L443.7 115.9 L444.7 114.1 L445.8 101.7 L446.8 113.1 L447.9 114.7 L448.9 115.2 L449.9 84.6 L451.0 85.0 L452.0 118.2 L453.1 104.6 L454.1 107.0 L455.1 88.1 L456.2 122.4 L457.2 132.4 L458.3 129.4 L459.3 114.0 L460.3 109.9 L461.4 109.8 L462.4 92.5 L463.5 90.1 L464.5 112.5 L465.5 118.1 L466.6 105.8 L467.6 90.7 L468.7 102.4 L469.7 76.0 L470.7 98.7 L471.8 94.6 L472.8 83.5 L473.9 69.5 L474.9 69.6 L475.9 162.6 L477.0 75.0 L478.0 92.6 L479.1 99.6 L480.1 100.3 L481.1 77.7 L482.2 74.3 L483.2 112.6 L484.3 134.4 L485.3 82.8 L486.3 89.2 L487.4 99.5 L488.4 112.0 L489.5 149.9 L490.5 138.9 L491.5 98.5 L492.6 92.3 L493.6 93.2 L494.7 97.2 L495.7 96.9 L496.7 68.5 L497.8 76.1 L498.8 180.6 L499.9 15.9 L500.9 67.5 L501.9 94.0 L503.0 91.2 L504.0 83.8 L505.1 63.7 L506.1 77.7 L508.2 69.6 L509.2 104.1 L510.3 99.2 L511.3 107.5 L512.3 113.4 L513.4 135.4 L514.4 156.8 L515.5 111.5 L516.5 80.7 L517.5 70.4 L518.6 93.0 L521.7 110.0 L522.7 81.3 L523.8 106.5 L524.8 107.7 L525.9 96.5 L526.9 90.8 L527.9 84.5 L529.0 88.7 L530.0 91.2 L531.1 97.9 L532.1 88.5 L533.1 85.0 L534.2 81.6 L535.2 87.2 L536.3 77.0 L537.3 76.6 L538.3 73.2 M547.7 77.7 L548.7 77.7 L549.8 85.5 L550.8 87.0 L551.9 84.5 L552.9 88.0 L553.9 61.0 L555.0 58.5 M566.4 73.2 L567.5 73.2 L568.5 77.6 L569.5 69.2 L570.6 69.2 L571.6 69.2 L572.7 69.2 L573.7 69.2 L574.7 73.2 L575.8 69.2 L576.8 69.2 L577.9 71.1 L578.9 199.1 L579.9 186.6 L581.0 161.6 M598.6 197.7 L599.7 80.7 L600.7 80.7 L601.8 80.7 L602.8 80.7 L603.8 80.7 L604.9 80.7 L605.9 77.7 L607.0 77.7 L608.0 77.7 L609.0 77.7 L610.1 77.7 L611.1 77.7 L612.2 77.7 L613.2 77.7 L614.2 77.7 L615.3 83.9 L616.3 83.9 L617.4 83.9 L618.4 83.9 L619.4 76.2 L620.5 76.2 L622.6 76.2 L623.6 76.2 L625.7 77.1 L626.7 78.7 L627.8 76.2 L628.8 78.5 L629.8 113.8 L630.9 122.4 L631.9 105.7 L633.0 110.8 L634.0 123.6 L635.0 113.1 L636.1 123.5 L637.1 89.7 L638.2 100.6 L639.2 49.4 L640.2 47.0 L641.3 44.7 L642.3 44.7 L643.4 43.8 L644.4 43.8 L645.4 46.1 L646.5 13.6 L647.5 62.4 L648.6 88.7 L649.6 98.3 L650.6 103.5 L651.7 198.5 L653.8 245.1 L654.8 252.1 L655.8 256.7 L656.9 249.6 L657.9 208.7 L659.0 212.5 L660.0 222.7 " fill="none" stroke="#b9770e" stroke-width="1.2" opacity="0.8"/>
<path d="M60.0 145.5 L61.0 145.5 L62.1 145.5 L63.1 171.7 L64.2 171.7 L65.2 171.7 L66.2 171.7 L67.3 171.7 L68.3 191.6 L69.4 191.6 L70.4 191.6 L71.4 191.6 L72.5 191.6 L73.5 175.2 L74.6 175.2 L75.6 192.7 L76.6 192.7 L77.7 192.7 L78.7 192.7 L79.8 193.3 L80.8 193.3 L81.8 193.3 L82.9 193.3 L83.9 213.8 L85.0 213.8 L86.0 213.8 L87.0 208.9 L88.1 222.9 L89.1 195.6 L90.2 195.6 L91.2 195.6 L92.2 195.6 L93.3 195.6 L94.3 195.6 L95.4 187.1 L96.4 187.1 L97.4 187.1 L98.5 187.1 L99.5 187.1 L100.6 187.1 L101.6 191.5 L102.6 191.5 L103.7 191.5 L104.7 191.5 L105.8 191.5 L106.8 191.5 L107.8 191.5 L108.9 191.5 L109.9 191.5 L111.0 191.5 L112.0 191.5 L113.0 191.5 L114.1 191.5 L115.1 191.5 L116.2 155.3 L117.2 200.4 L118.2 200.4 L119.3 177.9 L120.3 177.1 L121.4 164.6 L122.4 164.6 L123.4 180.4 L124.5 193.7 L125.5 193.7 L126.6 193.7 L127.6 212.5 L128.6 212.5 L129.7 212.5 L130.7 212.5 L131.8 200.8 L132.8 196.3 L133.8 196.3 L134.9 200.8 L135.9 211.1 L136.9 211.1 L138.0 211.1 L139.0 212.0 L140.1 211.0 L141.1 222.4 L142.1 222.4 L143.2 222.4 L144.2 222.4 L145.3 222.4 L146.3 222.4 L147.3 222.4 L148.4 222.4 L149.4 222.4 L150.5 222.4 L151.5 222.4 L152.5 222.4 L153.6 222.4 L154.6 222.4 L155.7 222.4 L156.7 222.4 L157.7 222.4 L158.8 222.4 L159.8 222.4 L160.9 222.4 L161.9 222.4 L162.9 222.4 L164.0 222.4 L165.0 222.4 L166.1 222.4 L167.1 222.4 L168.1 222.4 L169.2 222.4 L170.2 222.4 L171.3 222.4 L172.3 222.4 L173.3 222.4 L174.4 222.4 L175.4 222.4 L176.5 222.4 L177.5 222.4 L178.5 222.4 L179.6 222.4 L180.6 222.4 L181.7 222.4 L182.7 222.4 L183.7 222.4 L184.8 222.4 L185.8 222.4 L186.9 222.4 L187.9 222.4 L188.9 222.4 L190.0 222.4 L191.0 222.4 L192.1 222.4 L193.1 222.4 L194.1 222.4 L195.2 222.4 L196.2 222.4 L197.3 222.4 L198.3 222.4 L199.3 222.4 L200.4 222.4 L201.4 222.4 L202.5 222.4 L203.5 222.4 L204.5 222.4 L205.6 222.4 L206.6 222.4 L207.7 222.4 L208.7 222.4 L209.7 222.4 L210.8 222.4 L211.8 222.4 L212.9 222.4 L213.9 222.4 L214.9 222.4 L216.0 222.4 L217.0 81.6 L218.1 81.6 L219.1 81.6 L220.1 81.6 L221.2 101.8 L222.2 101.8 L223.3 101.8 L224.3 101.8 L225.3 101.8 L226.4 81.6 L227.4 91.9 L228.5 91.9 L229.5 91.9 L230.5 91.9 L231.6 91.9 L232.6 105.3 L233.7 105.3 L234.7 105.3 L235.7 99.3 L236.8 104.1 L237.8 104.1 L238.9 99.3 L239.9 99.3 L240.9 95.6 L242.0 95.6 L243.0 100.5 L244.1 95.6 L245.1 95.6 L246.1 92.2 L247.2 92.2 L248.2 98.3 L249.3 93.2 L250.3 99.3 L251.3 92.2 L252.4 89.0 L253.4 89.0 L254.5 97.5 L255.5 95.6 L256.5 102.7 L257.6 92.3 L258.6 102.7 L259.7 95.5 L260.7 89.3 L261.7 83.9 L262.8 66.8 L263.8 83.9 L264.9 89.3 L265.9 83.9 L266.9 77.8 L268.0 74.6 L269.0 106.2 L270.1 82.5 L271.1 76.7 L272.1 74.1 L273.2 70.4 L274.2 90.1 L275.3 70.4 L276.3 70.6 L277.3 87.8 L278.4 69.0 L279.4 68.6 L280.5 87.8 L281.5 74.5 L282.5 69.0 L283.6 69.0 L284.6 61.9 L285.6 58.1 L286.7 58.1 L287.7 69.0 L288.8 66.0 L289.8 66.6 L290.8 66.6 L291.9 69.0 L292.9 104.3 L294.0 96.3 L295.0 96.3 L296.0 96.3 L297.1 96.3 L298.1 124.5 L299.2 179.1 L300.2 122.7 L301.2 101.5 L302.3 76.3 L303.3 91.2 L304.4 77.3 L305.4 122.7 L306.4 96.1 L307.5 96.1 L308.5 96.1 L309.6 74.0 L310.6 96.1 L311.6 82.7 L312.7 119.0 L313.7 119.0 L314.8 119.0 L315.8 97.6 L316.8 95.4 L317.9 95.4 L318.9 166.7 L320.0 166.7 L321.0 166.7 L322.0 84.3 L323.1 84.3 L324.1 84.6 L325.2 78.8 L326.2 78.8 L327.2 82.0 L328.3 82.0 L329.3 89.2 L330.4 84.3 L331.4 121.3 L332.4 129.7 L333.5 129.7 L334.5 129.7 L335.6 107.2 L336.6 113.6 L337.6 116.6 L338.7 103.3 L339.7 103.3 L340.8 97.8 L341.8 93.1 L342.8 95.4 L343.9 101.5 L344.9 108.7 L346.0 95.4 L347.0 93.5 L348.0 85.6 L349.1 85.0 L350.1 106.1 L351.2 100.5 L352.2 90.1 L353.2 87.1 L354.3 87.1 L355.3 96.5 L356.4 90.1 L357.4 96.8 L358.4 87.1 L359.5 85.7 L360.5 90.1 L361.6 72.4 L362.6 88.6 L363.6 98.3 L364.7 90.1 L365.7 91.4 L366.8 90.1 L367.8 90.1 L368.8 90.1 L369.9 90.1 L370.9 76.8 L372.0 93.3 L373.0 96.8 L374.0 93.3 L375.1 136.6 L376.1 97.8 L377.2 97.8 L378.2 97.8 L379.2 109.0 L380.3 101.2 L381.3 109.0 L382.4 100.1 L383.4 100.1 L384.4 123.7 L385.5 118.3 L386.5 111.1 L387.6 113.4 L388.6 136.3 L389.6 113.4 L390.7 123.7 L391.7 123.7 L392.8 123.7 L393.8 137.1 L394.8 137.1 L395.9 123.7 L396.9 120.4 L398.0 118.3 L399.0 113.4 L400.0 111.6 L401.1 111.6 L402.1 113.9 L403.2 112.0 L404.2 122.3 L405.2 122.3 L406.3 122.3 L407.3 120.1 L408.4 120.1 L409.4 120.1 L410.4 239.3 L411.5 215.1 L412.5 98.7 L413.6 98.7 L414.6 98.7 L415.6 98.7 L416.7 98.7 L417.7 186.6 L418.8 186.6 L419.8 186.6 L420.8 163.2 L421.9 88.0 L422.9 88.0 L424.0 103.6 L425.0 103.6 L426.0 103.6 L427.1 103.6 L428.1 116.4 L429.2 120.0 L430.2 127.4 L431.2 121.8 L432.3 115.1 L433.3 122.7 L434.4 125.5 L435.4 119.2 L436.4 115.1 L437.5 198.1 L438.5 189.7 L439.5 133.9 L440.6 133.9 L441.6 129.5 L442.7 131.7 L443.7 133.9 L444.7 133.9 L445.8 129.5 L446.8 129.5 L447.9 125.5 L448.9 123.6 L449.9 115.1 L451.0 115.1 L452.0 115.1 L453.1 121.8 L454.1 118.3 L455.1 114.8 L456.2 114.8 L457.2 114.8 L458.3 115.1 L459.3 133.9 L460.3 120.9 L461.4 115.1 L462.4 117.6 L463.5 117.6 L464.5 120.8 L465.5 120.8 L466.6 117.6 L467.6 117.6 L468.7 111.8 L469.7 114.7 L470.7 110.5 L471.8 99.9 L472.8 94.0 L473.9 88.7 L474.9 88.7 L475.9 91.5 L477.0 93.4 L478.0 91.5 L479.1 120.0 L480.1 91.5 L481.1 93.4 L482.2 87.1 L483.2 87.1 L484.3 93.4 L485.3 91.5 L486.3 89.2 L487.4 89.2 L488.4 87.1 L489.5 86.1 L490.5 93.4 L491.5 81.9 L492.6 80.0 L493.6 80.0 L494.7 128.3 L495.7 78.5 L496.7 91.3 L497.8 77.5 L498.8 157.6 L499.9 223.7 L500.9 280.8 L501.9 115.1 L503.0 93.4 L504.0 99.0 L505.1 93.0 L506.1 106.7 L507.1 115.1 L508.2 115.1 L509.2 89.1 L510.3 80.7 L511.3 84.7 L512.3 104.3 L513.4 116.0 L514.4 104.3 L515.5 112.8 L516.5 96.4 L517.5 99.4 L518.6 95.8 L519.6 131.5 L520.7 97.2 L521.7 89.1 L522.7 82.2 L523.8 95.0 L524.8 89.1 L525.9 79.9 L526.9 80.7 L527.9 83.9 L529.0 112.8 L530.0 112.8 L531.1 112.8 L532.1 80.7 L533.1 111.2 L534.2 89.1 L535.2 99.4 L536.3 69.1 L537.3 80.7 L538.3 80.7 L539.4 80.7 L540.4 73.5 L541.5 72.2 L542.5 72.2 L543.5 80.7 L544.6 80.7 L545.6 80.7 L546.7 99.4 L547.7 89.1 L548.7 80.7 L549.8 80.7 L550.8 80.7 L551.9 80.7 L552.9 93.7 L553.9 95.8 L555.0 95.8 L556.0 95.8 L557.1 95.8 L558.1 95.8 L559.1 95.8 L560.2 95.8 L561.2 95.8 L562.3 95.8 L563.3 95.8 L564.3 95.8 L565.4 95.8 L566.4 81.4 L567.5 80.7 L568.5 80.7 L569.5 80.7 L570.6 79.1 L571.6 74.5 L572.7 73.5 L573.7 80.7 L574.7 69.7 L575.8 69.7 L576.8 73.5 L577.9 71.6 L578.9 76.4 L579.9 79.0 L581.0 112.8 L582.0 107.9 L583.1 107.9 L584.1 137.4 L585.1 144.6 L586.2 144.1 L587.2 144.1 L588.2 144.1 L589.3 144.9 L590.3 144.9 L591.4 144.9 L592.4 144.9 L593.4 144.9 L594.5 144.9 L595.5 174.0 L596.6 174.0 L597.6 163.7 L598.6 141.9 L599.7 90.4 L600.7 82.4 L601.8 81.0 L602.8 80.7 L603.8 80.5 L604.9 79.6 L605.9 79.1 L607.0 78.8 L608.0 78.4 L609.0 80.2 L610.1 81.9 L611.1 81.1 L612.2 81.9 L613.2 81.4 L614.2 82.2 L615.3 85.5 L616.3 86.4 L617.4 88.0 L618.4 83.7 L619.4 77.4 L620.5 78.0 L621.5 88.7 L622.6 81.6 L623.6 83.1 L624.6 87.6 L625.7 87.6 L626.7 87.6 L627.8 83.5 L628.8 84.7 L629.8 122.1 L630.9 122.1 L631.9 123.5 L633.0 118.7 L634.0 136.5 L635.0 124.7 L636.1 146.5 L637.1 83.2 L638.2 39.0 L639.2 41.5 L640.2 48.9 L641.3 43.8 L642.3 55.4 L643.4 44.1 L644.4 58.1 L645.4 58.9 L646.5 65.7 L647.5 102.9 L648.6 110.1 L649.6 113.6 L650.6 112.3 L651.7 140.9 L652.7 144.0 L653.8 172.5 L654.8 204.8 L655.8 230.4 L656.9 237.4 L657.9 222.9 L659.0 228.0 L660.0 228.0 " fill="none" stroke="#1a5276" stroke-width="1.9"/>
</g>
<text transform="translate(15 180.0) rotate(-90)" text-anchor="middle" font-size="12.5" font-style="italic" fill="#1a5276">Share price (g silver, log)</text>
<text transform="translate(707 180.0) rotate(90)" text-anchor="middle" font-size="12.5" font-style="italic" fill="#b9770e">Dividend (g silver)</text>
<rect x="68" y="23" width="255" height="38" fill="#fbf7ec" opacity="0.85" stroke="#e0d6bf" rx="4"/>
<line x1="76" y1="34" x2="98" y2="34" stroke="#1a5276" stroke-width="1.9"/><text x="104" y="38" font-size="11.5" fill="#5c5344">Share price</text>
<line x1="76" y1="50" x2="98" y2="50" stroke="#b9770e" stroke-width="1.2"/><text x="104" y="54" font-size="11.5" fill="#5c5344">Dividend (price &#8776; 20&#215; dividend)</text>
</svg>