<?xml version="1.0" encoding="utf-8" standalone="no"?>
<!DOCTYPE svg PUBLIC "-//W3C//DTD SVG 1.1//EN"
  "http://www.w3.org/Graphics/SVG/1.1/DTD/svg11.dtd">
<svg xmlns:xlink="http://www.w3.org/1999/xlink" width="566.566875pt" height="351.219375pt" viewBox="0 0 566.566875 351.219375" xmlns="http://www.w3.org/2000/svg" version="1.1">
 <metadata>
  <rdf:RDF xmlns:dc="http://purl.org/dc/elements/1.1/" xmlns:cc="http://creativecommons.org/ns#" xmlns:rdf="http://www.w3.org/1999/02/22-rdf-syntax-ns#">
   <cc:Work>
    <dc:type rdf:resource="http://purl.org/dc/dcmitype/StillImage"/>
    <dc:date>2026-04-27T13:52:08.444284</dc:date>
    <dc:format>image/svg+xml</dc:format>
    <dc:creator>
     <cc:Agent>
      <dc:title>Matplotlib v3.9.2, https://matplotlib.org/</dc:title>
     </cc:Agent>
    </dc:creator>
   </cc:Work>
  </rdf:RDF>
 </metadata>
 <defs>
  <style type="text/css">*{stroke-linejoin: round; stroke-linecap: butt}</style>
 </defs>
 <g id="figure_1">
  <g id="patch_1">
   <path d="M 0 351.219375 
L 566.566875 351.219375 
L 566.566875 0 
L 0 0 
z
" style="fill: #ffffff"/>
  </g>
  <g id="axes_1">
   <g id="patch_2">
    <path d="M 47.689844 315.485156 
L 553.249844 315.485156 
L 553.249844 22.505156 
L 47.689844 22.505156 
z
" style="fill: #ffffff"/>
   </g>
   <g id="matplotlib.axis_1">
    <g id="xtick_1">
     <g id="line2d_1">
      <path d="M 117.422258 315.485156 
L 117.422258 22.505156 
" clip-path="url(#p4d63fc2c5a)" style="fill: none; stroke: #cccccc; stroke-width: 0.8; stroke-linecap: round"/>
     </g>
     <g id="line2d_2"/>
     <g id="text_1">
      <!-- 5 -->
      <g style="fill: #262626" transform="translate(114.363742 326.85875) scale(0.11 -0.11)">
       <defs>
        <path id="ArialMT-35" d="M 266 1200 
L 856 1250 
Q 922 819 1161 601 
Q 1400 384 1738 384 
Q 2144 384 2425 690 
Q 2706 997 2706 1503 
Q 2706 1984 2436 2262 
Q 2166 2541 1728 2541 
Q 1456 2541 1237 2417 
Q 1019 2294 894 2097 
L 366 2166 
L 809 4519 
L 3088 4519 
L 3088 3981 
L 1259 3981 
L 1013 2750 
Q 1425 3038 1878 3038 
Q 2478 3038 2890 2622 
Q 3303 2206 3303 1553 
Q 3303 931 2941 478 
Q 2500 -78 1738 -78 
Q 1113 -78 717 272 
Q 322 622 266 1200 
z
" transform="scale(0.015625)"/>
       </defs>
       <use xlink:href="#ArialMT-35"/>
      </g>
     </g>
    </g>
    <g id="xtick_2">
     <g id="line2d_3">
      <path d="M 204.587775 315.485156 
L 204.587775 22.505156 
" clip-path="url(#p4d63fc2c5a)" style="fill: none; stroke: #cccccc; stroke-width: 0.8; stroke-linecap: round"/>
     </g>
     <g id="line2d_4"/>
     <g id="text_2">
      <!-- 10 -->
      <g style="fill: #262626" transform="translate(198.470744 326.85875) scale(0.11 -0.11)">
       <defs>
        <path id="ArialMT-31" d="M 2384 0 
L 1822 0 
L 1822 3584 
Q 1619 3391 1289 3197 
Q 959 3003 697 2906 
L 697 3450 
Q 1169 3672 1522 3987 
Q 1875 4303 2022 4600 
L 2384 4600 
L 2384 0 
z
" transform="scale(0.015625)"/>
        <path id="ArialMT-30" d="M 266 2259 
Q 266 3072 433 3567 
Q 600 4063 929 4331 
Q 1259 4600 1759 4600 
Q 2128 4600 2406 4451 
Q 2684 4303 2865 4023 
Q 3047 3744 3150 3342 
Q 3253 2941 3253 2259 
Q 3253 1453 3087 958 
Q 2922 463 2592 192 
Q 2263 -78 1759 -78 
Q 1097 -78 719 397 
Q 266 969 266 2259 
z
M 844 2259 
Q 844 1131 1108 757 
Q 1372 384 1759 384 
Q 2147 384 2411 759 
Q 2675 1134 2675 2259 
Q 2675 3391 2411 3762 
Q 2147 4134 1753 4134 
Q 1366 4134 1134 3806 
Q 844 3388 844 2259 
z
" transform="scale(0.015625)"/>
       </defs>
       <use xlink:href="#ArialMT-31"/>
       <use xlink:href="#ArialMT-30" x="55.615234"/>
      </g>
     </g>
    </g>
    <g id="xtick_3">
     <g id="line2d_5">
      <path d="M 291.753292 315.485156 
L 291.753292 22.505156 
" clip-path="url(#p4d63fc2c5a)" style="fill: none; stroke: #cccccc; stroke-width: 0.8; stroke-linecap: round"/>
     </g>
     <g id="line2d_6"/>
     <g id="text_3">
      <!-- 15 -->
      <g style="fill: #262626" transform="translate(285.636261 326.85875) scale(0.11 -0.11)">
       <use xlink:href="#ArialMT-31"/>
       <use xlink:href="#ArialMT-35" x="55.615234"/>
      </g>
     </g>
    </g>
    <g id="xtick_4">
     <g id="line2d_7">
      <path d="M 378.918809 315.485156 
L 378.918809 22.505156 
" clip-path="url(#p4d63fc2c5a)" style="fill: none; stroke: #cccccc; stroke-width: 0.8; stroke-linecap: round"/>
     </g>
     <g id="line2d_8"/>
     <g id="text_4">
      <!-- 20 -->
      <g style="fill: #262626" transform="translate(372.801778 326.85875) scale(0.11 -0.11)">
       <defs>
        <path id="ArialMT-32" d="M 3222 541 
L 3222 0 
L 194 0 
Q 188 203 259 391 
Q 375 700 629 1000 
Q 884 1300 1366 1694 
Q 2113 2306 2375 2664 
Q 2638 3022 2638 3341 
Q 2638 3675 2398 3904 
Q 2159 4134 1775 4134 
Q 1369 4134 1125 3890 
Q 881 3647 878 3216 
L 300 3275 
Q 359 3922 746 4261 
Q 1134 4600 1788 4600 
Q 2447 4600 2831 4234 
Q 3216 3869 3216 3328 
Q 3216 3053 3103 2787 
Q 2991 2522 2730 2228 
Q 2469 1934 1863 1422 
Q 1356 997 1212 845 
Q 1069 694 975 541 
L 3222 541 
z
" transform="scale(0.015625)"/>
       </defs>
       <use xlink:href="#ArialMT-32"/>
       <use xlink:href="#ArialMT-30" x="55.615234"/>
      </g>
     </g>
    </g>
    <g id="xtick_5">
     <g id="line2d_9">
      <path d="M 466.084327 315.485156 
L 466.084327 22.505156 
" clip-path="url(#p4d63fc2c5a)" style="fill: none; stroke: #cccccc; stroke-width: 0.8; stroke-linecap: round"/>
     </g>
     <g id="line2d_10"/>
     <g id="text_5">
      <!-- 25 -->
      <g style="fill: #262626" transform="translate(459.967295 326.85875) scale(0.11 -0.11)">
       <use xlink:href="#ArialMT-32"/>
       <use xlink:href="#ArialMT-35" x="55.615234"/>
      </g>
     </g>
    </g>
    <g id="xtick_6">
     <g id="line2d_11">
      <path d="M 553.249844 315.485156 
L 553.249844 22.505156 
" clip-path="url(#p4d63fc2c5a)" style="fill: none; stroke: #cccccc; stroke-width: 0.8; stroke-linecap: round"/>
     </g>
     <g id="line2d_12"/>
     <g id="text_6">
      <!-- 30 -->
      <g style="fill: #262626" transform="translate(547.132812 326.85875) scale(0.11 -0.11)">
       <defs>
        <path id="ArialMT-33" d="M 269 1209 
L 831 1284 
Q 928 806 1161 595 
Q 1394 384 1728 384 
Q 2125 384 2398 659 
Q 2672 934 2672 1341 
Q 2672 1728 2419 1979 
Q 2166 2231 1775 2231 
Q 1616 2231 1378 2169 
L 1441 2663 
Q 1497 2656 1531 2656 
Q 1891 2656 2178 2843 
Q 2466 3031 2466 3422 
Q 2466 3731 2256 3934 
Q 2047 4138 1716 4138 
Q 1388 4138 1169 3931 
Q 950 3725 888 3313 
L 325 3413 
Q 428 3978 793 4289 
Q 1159 4600 1703 4600 
Q 2078 4600 2393 4439 
Q 2709 4278 2876 4000 
Q 3044 3722 3044 3409 
Q 3044 3113 2884 2869 
Q 2725 2625 2413 2481 
Q 2819 2388 3044 2092 
Q 3269 1797 3269 1353 
Q 3269 753 2831 336 
Q 2394 -81 1725 -81 
Q 1122 -81 723 278 
Q 325 638 269 1209 
z
" transform="scale(0.015625)"/>
       </defs>
       <use xlink:href="#ArialMT-33"/>
       <use xlink:href="#ArialMT-30" x="55.615234"/>
      </g>
     </g>
    </g>
    <g id="text_7">
     <!-- Number of Stocks in Portfolio -->
     <g style="fill: #262626" transform="translate(222.775469 341.634375) scale(0.12 -0.12)">
      <defs>
       <path id="ArialMT-4e" d="M 488 0 
L 488 4581 
L 1109 4581 
L 3516 984 
L 3516 4581 
L 4097 4581 
L 4097 0 
L 3475 0 
L 1069 3600 
L 1069 0 
L 488 0 
z
" transform="scale(0.015625)"/>
       <path id="ArialMT-75" d="M 2597 0 
L 2597 488 
Q 2209 -75 1544 -75 
Q 1250 -75 995 37 
Q 741 150 617 320 
Q 494 491 444 738 
Q 409 903 409 1263 
L 409 3319 
L 972 3319 
L 972 1478 
Q 972 1038 1006 884 
Q 1059 663 1231 536 
Q 1403 409 1656 409 
Q 1909 409 2131 539 
Q 2353 669 2445 892 
Q 2538 1116 2538 1541 
L 2538 3319 
L 3100 3319 
L 3100 0 
L 2597 0 
z
" transform="scale(0.015625)"/>
       <path id="ArialMT-6d" d="M 422 0 
L 422 3319 
L 925 3319 
L 925 2853 
Q 1081 3097 1340 3245 
Q 1600 3394 1931 3394 
Q 2300 3394 2536 3241 
Q 2772 3088 2869 2813 
Q 3263 3394 3894 3394 
Q 4388 3394 4653 3120 
Q 4919 2847 4919 2278 
L 4919 0 
L 4359 0 
L 4359 2091 
Q 4359 2428 4304 2576 
Q 4250 2725 4106 2815 
Q 3963 2906 3769 2906 
Q 3419 2906 3187 2673 
Q 2956 2441 2956 1928 
L 2956 0 
L 2394 0 
L 2394 2156 
Q 2394 2531 2256 2718 
Q 2119 2906 1806 2906 
Q 1569 2906 1367 2781 
Q 1166 2656 1075 2415 
Q 984 2175 984 1722 
L 984 0 
L 422 0 
z
" transform="scale(0.015625)"/>
       <path id="ArialMT-62" d="M 941 0 
L 419 0 
L 419 4581 
L 981 4581 
L 981 2947 
Q 1338 3394 1891 3394 
Q 2197 3394 2470 3270 
Q 2744 3147 2920 2923 
Q 3097 2700 3197 2384 
Q 3297 2069 3297 1709 
Q 3297 856 2875 390 
Q 2453 -75 1863 -75 
Q 1275 -75 941 416 
L 941 0 
z
M 934 1684 
Q 934 1088 1097 822 
Q 1363 388 1816 388 
Q 2184 388 2453 708 
Q 2722 1028 2722 1663 
Q 2722 2313 2464 2622 
Q 2206 2931 1841 2931 
Q 1472 2931 1203 2611 
Q 934 2291 934 1684 
z
" transform="scale(0.015625)"/>
       <path id="ArialMT-65" d="M 2694 1069 
L 3275 997 
Q 3138 488 2766 206 
Q 2394 -75 1816 -75 
Q 1088 -75 661 373 
Q 234 822 234 1631 
Q 234 2469 665 2931 
Q 1097 3394 1784 3394 
Q 2450 3394 2872 2941 
Q 3294 2488 3294 1666 
Q 3294 1616 3291 1516 
L 816 1516 
Q 847 969 1125 678 
Q 1403 388 1819 388 
Q 2128 388 2347 550 
Q 2566 713 2694 1069 
z
M 847 1978 
L 2700 1978 
Q 2663 2397 2488 2606 
Q 2219 2931 1791 2931 
Q 1403 2931 1139 2672 
Q 875 2413 847 1978 
z
" transform="scale(0.015625)"/>
       <path id="ArialMT-72" d="M 416 0 
L 416 3319 
L 922 3319 
L 922 2816 
Q 1116 3169 1280 3281 
Q 1444 3394 1641 3394 
Q 1925 3394 2219 3213 
L 2025 2691 
Q 1819 2813 1613 2813 
Q 1428 2813 1281 2702 
Q 1134 2591 1072 2394 
Q 978 2094 978 1738 
L 978 0 
L 416 0 
z
" transform="scale(0.015625)"/>
       <path id="ArialMT-20" transform="scale(0.015625)"/>
       <path id="ArialMT-6f" d="M 213 1659 
Q 213 2581 725 3025 
Q 1153 3394 1769 3394 
Q 2453 3394 2887 2945 
Q 3322 2497 3322 1706 
Q 3322 1066 3130 698 
Q 2938 331 2570 128 
Q 2203 -75 1769 -75 
Q 1072 -75 642 372 
Q 213 819 213 1659 
z
M 791 1659 
Q 791 1022 1069 705 
Q 1347 388 1769 388 
Q 2188 388 2466 706 
Q 2744 1025 2744 1678 
Q 2744 2294 2464 2611 
Q 2184 2928 1769 2928 
Q 1347 2928 1069 2612 
Q 791 2297 791 1659 
z
" transform="scale(0.015625)"/>
       <path id="ArialMT-66" d="M 556 0 
L 556 2881 
L 59 2881 
L 59 3319 
L 556 3319 
L 556 3672 
Q 556 4006 616 4169 
Q 697 4388 901 4523 
Q 1106 4659 1475 4659 
Q 1713 4659 2000 4603 
L 1916 4113 
Q 1741 4144 1584 4144 
Q 1328 4144 1222 4034 
Q 1116 3925 1116 3625 
L 1116 3319 
L 1763 3319 
L 1763 2881 
L 1116 2881 
L 1116 0 
L 556 0 
z
" transform="scale(0.015625)"/>
       <path id="ArialMT-53" d="M 288 1472 
L 859 1522 
Q 900 1178 1048 958 
Q 1197 738 1509 602 
Q 1822 466 2213 466 
Q 2559 466 2825 569 
Q 3091 672 3220 851 
Q 3350 1031 3350 1244 
Q 3350 1459 3225 1620 
Q 3100 1781 2813 1891 
Q 2628 1963 1997 2114 
Q 1366 2266 1113 2400 
Q 784 2572 623 2826 
Q 463 3081 463 3397 
Q 463 3744 659 4045 
Q 856 4347 1234 4503 
Q 1613 4659 2075 4659 
Q 2584 4659 2973 4495 
Q 3363 4331 3572 4012 
Q 3781 3694 3797 3291 
L 3216 3247 
Q 3169 3681 2898 3903 
Q 2628 4125 2100 4125 
Q 1550 4125 1298 3923 
Q 1047 3722 1047 3438 
Q 1047 3191 1225 3031 
Q 1400 2872 2139 2705 
Q 2878 2538 3153 2413 
Q 3553 2228 3743 1945 
Q 3934 1663 3934 1294 
Q 3934 928 3725 604 
Q 3516 281 3123 101 
Q 2731 -78 2241 -78 
Q 1619 -78 1198 103 
Q 778 284 539 648 
Q 300 1013 288 1472 
z
" transform="scale(0.015625)"/>
       <path id="ArialMT-74" d="M 1650 503 
L 1731 6 
Q 1494 -44 1306 -44 
Q 1000 -44 831 53 
Q 663 150 594 308 
Q 525 466 525 972 
L 525 2881 
L 113 2881 
L 113 3319 
L 525 3319 
L 525 4141 
L 1084 4478 
L 1084 3319 
L 1650 3319 
L 1650 2881 
L 1084 2881 
L 1084 941 
Q 1084 700 1114 631 
Q 1144 563 1211 522 
Q 1278 481 1403 481 
Q 1497 481 1650 503 
z
" transform="scale(0.015625)"/>
       <path id="ArialMT-63" d="M 2588 1216 
L 3141 1144 
Q 3050 572 2676 248 
Q 2303 -75 1759 -75 
Q 1078 -75 664 370 
Q 250 816 250 1647 
Q 250 2184 428 2587 
Q 606 2991 970 3192 
Q 1334 3394 1763 3394 
Q 2303 3394 2647 3120 
Q 2991 2847 3088 2344 
L 2541 2259 
Q 2463 2594 2264 2762 
Q 2066 2931 1784 2931 
Q 1359 2931 1093 2626 
Q 828 2322 828 1663 
Q 828 994 1084 691 
Q 1341 388 1753 388 
Q 2084 388 2306 591 
Q 2528 794 2588 1216 
z
" transform="scale(0.015625)"/>
       <path id="ArialMT-6b" d="M 425 0 
L 425 4581 
L 988 4581 
L 988 1969 
L 2319 3319 
L 3047 3319 
L 1778 2088 
L 3175 0 
L 2481 0 
L 1384 1697 
L 988 1316 
L 988 0 
L 425 0 
z
" transform="scale(0.015625)"/>
       <path id="ArialMT-73" d="M 197 991 
L 753 1078 
Q 800 744 1014 566 
Q 1228 388 1613 388 
Q 2000 388 2187 545 
Q 2375 703 2375 916 
Q 2375 1106 2209 1216 
Q 2094 1291 1634 1406 
Q 1016 1563 777 1677 
Q 538 1791 414 1992 
Q 291 2194 291 2438 
Q 291 2659 392 2848 
Q 494 3038 669 3163 
Q 800 3259 1026 3326 
Q 1253 3394 1513 3394 
Q 1903 3394 2198 3281 
Q 2494 3169 2634 2976 
Q 2775 2784 2828 2463 
L 2278 2388 
Q 2241 2644 2061 2787 
Q 1881 2931 1553 2931 
Q 1166 2931 1000 2803 
Q 834 2675 834 2503 
Q 834 2394 903 2306 
Q 972 2216 1119 2156 
Q 1203 2125 1616 2013 
Q 2213 1853 2448 1751 
Q 2684 1650 2818 1456 
Q 2953 1263 2953 975 
Q 2953 694 2789 445 
Q 2625 197 2315 61 
Q 2006 -75 1616 -75 
Q 969 -75 630 194 
Q 291 463 197 991 
z
" transform="scale(0.015625)"/>
       <path id="ArialMT-69" d="M 425 3934 
L 425 4581 
L 988 4581 
L 988 3934 
L 425 3934 
z
M 425 0 
L 425 3319 
L 988 3319 
L 988 0 
L 425 0 
z
" transform="scale(0.015625)"/>
       <path id="ArialMT-6e" d="M 422 0 
L 422 3319 
L 928 3319 
L 928 2847 
Q 1294 3394 1984 3394 
Q 2284 3394 2536 3286 
Q 2788 3178 2913 3003 
Q 3038 2828 3088 2588 
Q 3119 2431 3119 2041 
L 3119 0 
L 2556 0 
L 2556 2019 
Q 2556 2363 2490 2533 
Q 2425 2703 2258 2804 
Q 2091 2906 1866 2906 
Q 1506 2906 1245 2678 
Q 984 2450 984 1813 
L 984 0 
L 422 0 
z
" transform="scale(0.015625)"/>
       <path id="ArialMT-50" d="M 494 0 
L 494 4581 
L 2222 4581 
Q 2678 4581 2919 4538 
Q 3256 4481 3484 4323 
Q 3713 4166 3852 3881 
Q 3991 3597 3991 3256 
Q 3991 2672 3619 2267 
Q 3247 1863 2275 1863 
L 1100 1863 
L 1100 0 
L 494 0 
z
M 1100 2403 
L 2284 2403 
Q 2872 2403 3119 2622 
Q 3366 2841 3366 3238 
Q 3366 3525 3220 3729 
Q 3075 3934 2838 4000 
Q 2684 4041 2272 4041 
L 1100 4041 
L 1100 2403 
z
" transform="scale(0.015625)"/>
       <path id="ArialMT-6c" d="M 409 0 
L 409 4581 
L 972 4581 
L 972 0 
L 409 0 
z
" transform="scale(0.015625)"/>
      </defs>
      <use xlink:href="#ArialMT-4e"/>
      <use xlink:href="#ArialMT-75" x="72.216797"/>
      <use xlink:href="#ArialMT-6d" x="127.832031"/>
      <use xlink:href="#ArialMT-62" x="211.132812"/>
      <use xlink:href="#ArialMT-65" x="266.748047"/>
      <use xlink:href="#ArialMT-72" x="322.363281"/>
      <use xlink:href="#ArialMT-20" x="355.664062"/>
      <use xlink:href="#ArialMT-6f" x="383.447266"/>
      <use xlink:href="#ArialMT-66" x="439.0625"/>
      <use xlink:href="#ArialMT-20" x="466.845703"/>
      <use xlink:href="#ArialMT-53" x="494.628906"/>
      <use xlink:href="#ArialMT-74" x="561.328125"/>
      <use xlink:href="#ArialMT-6f" x="589.111328"/>
      <use xlink:href="#ArialMT-63" x="644.726562"/>
      <use xlink:href="#ArialMT-6b" x="694.726562"/>
      <use xlink:href="#ArialMT-73" x="744.726562"/>
      <use xlink:href="#ArialMT-20" x="794.726562"/>
      <use xlink:href="#ArialMT-69" x="822.509766"/>
      <use xlink:href="#ArialMT-6e" x="844.726562"/>
      <use xlink:href="#ArialMT-20" x="900.341797"/>
      <use xlink:href="#ArialMT-50" x="928.125"/>
      <use xlink:href="#ArialMT-6f" x="994.824219"/>
      <use xlink:href="#ArialMT-72" x="1050.439453"/>
      <use xlink:href="#ArialMT-74" x="1083.740234"/>
      <use xlink:href="#ArialMT-66" x="1111.523438"/>
      <use xlink:href="#ArialMT-6f" x="1139.306641"/>
      <use xlink:href="#ArialMT-6c" x="1194.921875"/>
      <use xlink:href="#ArialMT-69" x="1217.138672"/>
      <use xlink:href="#ArialMT-6f" x="1239.355469"/>
     </g>
    </g>
   </g>
   <g id="matplotlib.axis_2">
    <g id="ytick_1">
     <g id="line2d_13">
      <path d="M 47.689844 315.485156 
L 553.249844 315.485156 
" clip-path="url(#p4d63fc2c5a)" style="fill: none; stroke: #cccccc; stroke-width: 0.8; stroke-linecap: round"/>
     </g>
     <g id="line2d_14"/>
     <g id="text_8">
      <!-- 0% -->
      <g style="fill: #262626" transform="translate(28.291406 319.421953) scale(0.11 -0.11)">
       <defs>
        <path id="ArialMT-25" d="M 372 3481 
Q 372 3972 619 4315 
Q 866 4659 1334 4659 
Q 1766 4659 2048 4351 
Q 2331 4044 2331 3447 
Q 2331 2866 2045 2552 
Q 1759 2238 1341 2238 
Q 925 2238 648 2547 
Q 372 2856 372 3481 
z
M 1350 4272 
Q 1141 4272 1002 4090 
Q 863 3909 863 3425 
Q 863 2984 1003 2804 
Q 1144 2625 1350 2625 
Q 1563 2625 1702 2806 
Q 1841 2988 1841 3469 
Q 1841 3913 1700 4092 
Q 1559 4272 1350 4272 
z
M 1353 -169 
L 3859 4659 
L 4316 4659 
L 1819 -169 
L 1353 -169 
z
M 3334 1075 
Q 3334 1569 3581 1911 
Q 3828 2253 4300 2253 
Q 4731 2253 5014 1945 
Q 5297 1638 5297 1041 
Q 5297 459 5011 145 
Q 4725 -169 4303 -169 
Q 3888 -169 3611 142 
Q 3334 453 3334 1075 
z
M 4316 1866 
Q 4103 1866 3964 1684 
Q 3825 1503 3825 1019 
Q 3825 581 3965 400 
Q 4106 219 4313 219 
Q 4528 219 4667 400 
Q 4806 581 4806 1063 
Q 4806 1506 4665 1686 
Q 4525 1866 4316 1866 
z
" transform="scale(0.015625)"/>
       </defs>
       <use xlink:href="#ArialMT-30"/>
       <use xlink:href="#ArialMT-25" x="55.615234"/>
      </g>
     </g>
    </g>
    <g id="ytick_2">
     <g id="line2d_15">
      <path d="M 47.689844 256.889156 
L 553.249844 256.889156 
" clip-path="url(#p4d63fc2c5a)" style="fill: none; stroke: #cccccc; stroke-width: 0.8; stroke-linecap: round"/>
     </g>
     <g id="line2d_16"/>
     <g id="text_9">
      <!-- 10% -->
      <g style="fill: #262626" transform="translate(22.174375 260.825953) scale(0.11 -0.11)">
       <use xlink:href="#ArialMT-31"/>
       <use xlink:href="#ArialMT-30" x="55.615234"/>
       <use xlink:href="#ArialMT-25" x="111.230469"/>
      </g>
     </g>
    </g>
    <g id="ytick_3">
     <g id="line2d_17">
      <path d="M 47.689844 198.293156 
L 553.249844 198.293156 
" clip-path="url(#p4d63fc2c5a)" style="fill: none; stroke: #cccccc; stroke-width: 0.8; stroke-linecap: round"/>
     </g>
     <g id="line2d_18"/>
     <g id="text_10">
      <!-- 20% -->
      <g style="fill: #262626" transform="translate(22.174375 202.229953) scale(0.11 -0.11)">
       <use xlink:href="#ArialMT-32"/>
       <use xlink:href="#ArialMT-30" x="55.615234"/>
       <use xlink:href="#ArialMT-25" x="111.230469"/>
      </g>
     </g>
    </g>
    <g id="ytick_4">
     <g id="line2d_19">
      <path d="M 47.689844 139.697156 
L 553.249844 139.697156 
" clip-path="url(#p4d63fc2c5a)" style="fill: none; stroke: #cccccc; stroke-width: 0.8; stroke-linecap: round"/>
     </g>
     <g id="line2d_20"/>
     <g id="text_11">
      <!-- 30% -->
      <g style="fill: #262626" transform="translate(22.174375 143.633953) scale(0.11 -0.11)">
       <use xlink:href="#ArialMT-33"/>
       <use xlink:href="#ArialMT-30" x="55.615234"/>
       <use xlink:href="#ArialMT-25" x="111.230469"/>
      </g>
     </g>
    </g>
    <g id="ytick_5">
     <g id="line2d_21">
      <path d="M 47.689844 81.101156 
L 553.249844 81.101156 
" clip-path="url(#p4d63fc2c5a)" style="fill: none; stroke: #cccccc; stroke-width: 0.8; stroke-linecap: round"/>
     </g>
     <g id="line2d_22"/>
     <g id="text_12">
      <!-- 40% -->
      <g style="fill: #262626" transform="translate(22.174375 85.037953) scale(0.11 -0.11)">
       <defs>
        <path id="ArialMT-34" d="M 2069 0 
L 2069 1097 
L 81 1097 
L 81 1613 
L 2172 4581 
L 2631 4581 
L 2631 1613 
L 3250 1613 
L 3250 1097 
L 2631 1097 
L 2631 0 
L 2069 0 
z
M 2069 1613 
L 2069 3678 
L 634 1613 
L 2069 1613 
z
" transform="scale(0.015625)"/>
       </defs>
       <use xlink:href="#ArialMT-34"/>
       <use xlink:href="#ArialMT-30" x="55.615234"/>
       <use xlink:href="#ArialMT-25" x="111.230469"/>
      </g>
     </g>
    </g>
    <g id="ytick_6">
     <g id="line2d_23">
      <path d="M 47.689844 22.505156 
L 553.249844 22.505156 
" clip-path="url(#p4d63fc2c5a)" style="fill: none; stroke: #cccccc; stroke-width: 0.8; stroke-linecap: round"/>
     </g>
     <g id="line2d_24"/>
     <g id="text_13">
      <!-- 50% -->
      <g style="fill: #262626" transform="translate(22.174375 26.441953) scale(0.11 -0.11)">
       <use xlink:href="#ArialMT-35"/>
       <use xlink:href="#ArialMT-30" x="55.615234"/>
       <use xlink:href="#ArialMT-25" x="111.230469"/>
      </g>
     </g>
    </g>
    <g id="text_14">
     <!-- Portfolio Standard Deviation -->
     <g style="fill: #262626" transform="translate(15.789375 243.700781) rotate(-90) scale(0.12 -0.12)">
      <defs>
       <path id="ArialMT-61" d="M 2588 409 
Q 2275 144 1986 34 
Q 1697 -75 1366 -75 
Q 819 -75 525 192 
Q 231 459 231 875 
Q 231 1119 342 1320 
Q 453 1522 633 1644 
Q 813 1766 1038 1828 
Q 1203 1872 1538 1913 
Q 2219 1994 2541 2106 
Q 2544 2222 2544 2253 
Q 2544 2597 2384 2738 
Q 2169 2928 1744 2928 
Q 1347 2928 1158 2789 
Q 969 2650 878 2297 
L 328 2372 
Q 403 2725 575 2942 
Q 747 3159 1072 3276 
Q 1397 3394 1825 3394 
Q 2250 3394 2515 3294 
Q 2781 3194 2906 3042 
Q 3031 2891 3081 2659 
Q 3109 2516 3109 2141 
L 3109 1391 
Q 3109 606 3145 398 
Q 3181 191 3288 0 
L 2700 0 
Q 2613 175 2588 409 
z
M 2541 1666 
Q 2234 1541 1622 1453 
Q 1275 1403 1131 1340 
Q 988 1278 909 1158 
Q 831 1038 831 891 
Q 831 666 1001 516 
Q 1172 366 1500 366 
Q 1825 366 2078 508 
Q 2331 650 2450 897 
Q 2541 1088 2541 1459 
L 2541 1666 
z
" transform="scale(0.015625)"/>
       <path id="ArialMT-64" d="M 2575 0 
L 2575 419 
Q 2259 -75 1647 -75 
Q 1250 -75 917 144 
Q 584 363 401 755 
Q 219 1147 219 1656 
Q 219 2153 384 2558 
Q 550 2963 881 3178 
Q 1213 3394 1622 3394 
Q 1922 3394 2156 3267 
Q 2391 3141 2538 2938 
L 2538 4581 
L 3097 4581 
L 3097 0 
L 2575 0 
z
M 797 1656 
Q 797 1019 1065 703 
Q 1334 388 1700 388 
Q 2069 388 2326 689 
Q 2584 991 2584 1609 
Q 2584 2291 2321 2609 
Q 2059 2928 1675 2928 
Q 1300 2928 1048 2622 
Q 797 2316 797 1656 
z
" transform="scale(0.015625)"/>
       <path id="ArialMT-44" d="M 494 0 
L 494 4581 
L 2072 4581 
Q 2606 4581 2888 4516 
Q 3281 4425 3559 4188 
Q 3922 3881 4101 3404 
Q 4281 2928 4281 2316 
Q 4281 1794 4159 1391 
Q 4038 988 3847 723 
Q 3656 459 3429 307 
Q 3203 156 2883 78 
Q 2563 0 2147 0 
L 494 0 
z
M 1100 541 
L 2078 541 
Q 2531 541 2789 625 
Q 3047 709 3200 863 
Q 3416 1078 3536 1442 
Q 3656 1806 3656 2325 
Q 3656 3044 3420 3430 
Q 3184 3816 2847 3947 
Q 2603 4041 2063 4041 
L 1100 4041 
L 1100 541 
z
" transform="scale(0.015625)"/>
       <path id="ArialMT-76" d="M 1344 0 
L 81 3319 
L 675 3319 
L 1388 1331 
Q 1503 1009 1600 663 
Q 1675 925 1809 1294 
L 2547 3319 
L 3125 3319 
L 1869 0 
L 1344 0 
z
" transform="scale(0.015625)"/>
      </defs>
      <use xlink:href="#ArialMT-50"/>
      <use xlink:href="#ArialMT-6f" x="66.699219"/>
      <use xlink:href="#ArialMT-72" x="122.314453"/>
      <use xlink:href="#ArialMT-74" x="155.615234"/>
      <use xlink:href="#ArialMT-66" x="183.398438"/>
      <use xlink:href="#ArialMT-6f" x="211.181641"/>
      <use xlink:href="#ArialMT-6c" x="266.796875"/>
      <use xlink:href="#ArialMT-69" x="289.013672"/>
      <use xlink:href="#ArialMT-6f" x="311.230469"/>
      <use xlink:href="#ArialMT-20" x="366.845703"/>
      <use xlink:href="#ArialMT-53" x="394.628906"/>
      <use xlink:href="#ArialMT-74" x="461.328125"/>
      <use xlink:href="#ArialMT-61" x="489.111328"/>
      <use xlink:href="#ArialMT-6e" x="544.726562"/>
      <use xlink:href="#ArialMT-64" x="600.341797"/>
      <use xlink:href="#ArialMT-61" x="655.957031"/>
      <use xlink:href="#ArialMT-72" x="711.572266"/>
      <use xlink:href="#ArialMT-64" x="744.873047"/>
      <use xlink:href="#ArialMT-20" x="800.488281"/>
      <use xlink:href="#ArialMT-44" x="828.271484"/>
      <use xlink:href="#ArialMT-65" x="900.488281"/>
      <use xlink:href="#ArialMT-76" x="956.103516"/>
      <use xlink:href="#ArialMT-69" x="1006.103516"/>
      <use xlink:href="#ArialMT-61" x="1028.320312"/>
      <use xlink:href="#ArialMT-74" x="1083.935547"/>
      <use xlink:href="#ArialMT-69" x="1111.71875"/>
      <use xlink:href="#ArialMT-6f" x="1133.935547"/>
      <use xlink:href="#ArialMT-6e" x="1189.550781"/>
     </g>
    </g>
   </g>
   <g id="PolyCollection_1">
    <defs>
     <path id="m6310bf4a5c" d="M 47.689844 -299.416219 
L 47.689844 -180.158798 
L 65.122947 -180.158798 
L 82.556051 -180.158798 
L 99.989154 -180.158798 
L 117.422258 -180.158798 
L 134.855361 -180.158798 
L 152.288464 -180.158798 
L 169.721568 -180.158798 
L 187.154671 -180.158798 
L 204.587775 -180.158798 
L 222.020878 -180.158798 
L 239.453982 -180.158798 
L 256.887085 -180.158798 
L 274.320189 -180.158798 
L 291.753292 -180.158798 
L 309.186395 -180.158798 
L 326.619499 -180.158798 
L 344.052602 -180.158798 
L 361.485706 -180.158798 
L 378.918809 -180.158798 
L 396.351913 -180.158798 
L 413.785016 -180.158798 
L 431.21812 -180.158798 
L 448.651223 -180.158798 
L 466.084327 -180.158798 
L 483.51743 -180.158798 
L 500.950533 -180.158798 
L 518.383637 -180.158798 
L 535.81674 -180.158798 
L 553.249844 -180.158798 
L 553.249844 -185.670151 
L 553.249844 -185.670151 
L 535.81674 -185.856589 
L 518.383637 -186.056087 
L 500.950533 -186.270068 
L 483.51743 -186.50017 
L 466.084327 -186.748286 
L 448.651223 -187.01662 
L 431.21812 -187.307748 
L 413.785016 -187.624705 
L 396.351913 -187.971092 
L 378.918809 -188.35121 
L 361.485706 -188.770242 
L 344.052602 -189.234491 
L 326.619499 -189.751701 
L 309.186395 -190.331495 
L 291.753292 -190.985977 
L 274.320189 -191.730594 
L 256.887085 -192.585375 
L 239.453982 -193.576769 
L 222.020878 -194.740447 
L 204.587775 -196.125718 
L 187.154671 -197.802747 
L 169.721568 -199.87494 
L 152.288464 -202.501358 
L 134.855361 -205.940218 
L 117.422258 -210.64107 
L 99.989154 -217.464496 
L 82.556051 -228.300325 
L 65.122947 -248.321444 
L 47.689844 -299.416219 
z
" style="stroke: #0000ff; stroke-opacity: 0.15"/>
    </defs>
    <g clip-path="url(#p4d63fc2c5a)">
     <use xlink:href="#m6310bf4a5c" x="0" y="351.219375" style="fill: #0000ff; fill-opacity: 0.15; stroke: #0000ff; stroke-opacity: 0.15"/>
    </g>
   </g>
   <g id="line2d_25">
    <path d="M 47.689844 51.803156 
L 65.122947 102.897931 
L 82.556051 122.91905 
L 99.989154 133.754879 
L 117.422258 140.578305 
L 134.855361 145.279157 
L 152.288464 148.718017 
L 169.721568 151.344435 
L 187.154671 153.416628 
L 204.587775 155.093657 
L 222.020878 156.478928 
L 239.453982 157.642606 
L 256.887085 158.634 
L 274.320189 159.488781 
L 291.753292 160.233398 
L 309.186395 160.88788 
L 326.619499 161.467674 
L 344.052602 161.984884 
L 361.485706 162.449133 
L 378.918809 162.868165 
L 396.351913 163.248283 
L 413.785016 163.59467 
L 431.21812 163.911627 
L 448.651223 164.202755 
L 466.084327 164.471089 
L 483.51743 164.719205 
L 500.950533 164.949307 
L 518.383637 165.163288 
L 535.81674 165.362786 
L 553.249844 165.549224 
" clip-path="url(#p4d63fc2c5a)" style="fill: none; stroke: #0000ff; stroke-width: 2; stroke-linecap: round"/>
    <defs>
     <path id="m1825375b92" d="M 0 2 
C 0.530406 2 1.03916 1.789267 1.414214 1.414214 
C 1.789267 1.03916 2 0.530406 2 0 
C 2 -0.530406 1.789267 -1.03916 1.414214 -1.414214 
C 1.03916 -1.789267 0.530406 -2 0 -2 
C -0.530406 -2 -1.03916 -1.789267 -1.414214 -1.414214 
C -1.789267 -1.03916 -2 -0.530406 -2 0 
C -2 0.530406 -1.789267 1.03916 -1.414214 1.414214 
C -1.03916 1.789267 -0.530406 2 0 2 
z
" style="stroke: #0000ff"/>
    </defs>
    <g clip-path="url(#p4d63fc2c5a)">
     <use xlink:href="#m1825375b92" x="47.689844" y="51.803156" style="fill: #0000ff; stroke: #0000ff"/>
     <use xlink:href="#m1825375b92" x="65.122947" y="102.897931" style="fill: #0000ff; stroke: #0000ff"/>
     <use xlink:href="#m1825375b92" x="82.556051" y="122.91905" style="fill: #0000ff; stroke: #0000ff"/>
     <use xlink:href="#m1825375b92" x="99.989154" y="133.754879" style="fill: #0000ff; stroke: #0000ff"/>
     <use xlink:href="#m1825375b92" x="117.422258" y="140.578305" style="fill: #0000ff; stroke: #0000ff"/>
     <use xlink:href="#m1825375b92" x="134.855361" y="145.279157" style="fill: #0000ff; stroke: #0000ff"/>
     <use xlink:href="#m1825375b92" x="152.288464" y="148.718017" style="fill: #0000ff; stroke: #0000ff"/>
     <use xlink:href="#m1825375b92" x="169.721568" y="151.344435" style="fill: #0000ff; stroke: #0000ff"/>
     <use xlink:href="#m1825375b92" x="187.154671" y="153.416628" style="fill: #0000ff; stroke: #0000ff"/>
     <use xlink:href="#m1825375b92" x="204.587775" y="155.093657" style="fill: #0000ff; stroke: #0000ff"/>
     <use xlink:href="#m1825375b92" x="222.020878" y="156.478928" style="fill: #0000ff; stroke: #0000ff"/>
     <use xlink:href="#m1825375b92" x="239.453982" y="157.642606" style="fill: #0000ff; stroke: #0000ff"/>
     <use xlink:href="#m1825375b92" x="256.887085" y="158.634" style="fill: #0000ff; stroke: #0000ff"/>
     <use xlink:href="#m1825375b92" x="274.320189" y="159.488781" style="fill: #0000ff; stroke: #0000ff"/>
     <use xlink:href="#m1825375b92" x="291.753292" y="160.233398" style="fill: #0000ff; stroke: #0000ff"/>
     <use xlink:href="#m1825375b92" x="309.186395" y="160.88788" style="fill: #0000ff; stroke: #0000ff"/>
     <use xlink:href="#m1825375b92" x="326.619499" y="161.467674" style="fill: #0000ff; stroke: #0000ff"/>
     <use xlink:href="#m1825375b92" x="344.052602" y="161.984884" style="fill: #0000ff; stroke: #0000ff"/>
     <use xlink:href="#m1825375b92" x="361.485706" y="162.449133" style="fill: #0000ff; stroke: #0000ff"/>
     <use xlink:href="#m1825375b92" x="378.918809" y="162.868165" style="fill: #0000ff; stroke: #0000ff"/>
     <use xlink:href="#m1825375b92" x="396.351913" y="163.248283" style="fill: #0000ff; stroke: #0000ff"/>
     <use xlink:href="#m1825375b92" x="413.785016" y="163.59467" style="fill: #0000ff; stroke: #0000ff"/>
     <use xlink:href="#m1825375b92" x="431.21812" y="163.911627" style="fill: #0000ff; stroke: #0000ff"/>
     <use xlink:href="#m1825375b92" x="448.651223" y="164.202755" style="fill: #0000ff; stroke: #0000ff"/>
     <use xlink:href="#m1825375b92" x="466.084327" y="164.471089" style="fill: #0000ff; stroke: #0000ff"/>
     <use xlink:href="#m1825375b92" x="483.51743" y="164.719205" style="fill: #0000ff; stroke: #0000ff"/>
     <use xlink:href="#m1825375b92" x="500.950533" y="164.949307" style="fill: #0000ff; stroke: #0000ff"/>
     <use xlink:href="#m1825375b92" x="518.383637" y="165.163288" style="fill: #0000ff; stroke: #0000ff"/>
     <use xlink:href="#m1825375b92" x="535.81674" y="165.362786" style="fill: #0000ff; stroke: #0000ff"/>
     <use xlink:href="#m1825375b92" x="553.249844" y="165.549224" style="fill: #0000ff; stroke: #0000ff"/>
    </g>
   </g>
   <g id="line2d_26">
    <path d="M 47.689844 171.060577 
L 553.249844 171.060577 
" clip-path="url(#p4d63fc2c5a)" style="fill: none; stroke-dasharray: 4.44,1.92; stroke-dashoffset: 0; stroke: #ff0000; stroke-width: 1.2"/>
   </g>
   <g id="patch_3">
    <path d="M 47.689844 315.485156 
L 47.689844 22.505156 
" style="fill: none; stroke: #cccccc; stroke-linejoin: miter; stroke-linecap: square"/>
   </g>
   <g id="patch_4">
    <path d="M 47.689844 315.485156 
L 553.249844 315.485156 
" style="fill: none; stroke: #cccccc; stroke-linejoin: miter; stroke-linecap: square"/>
   </g>
   <g id="text_15">
    <!-- Diversifiable -->
    <g style="fill: #1f77b4" transform="translate(264.522823 144.2298) scale(0.1 -0.1)">
     <use xlink:href="#ArialMT-44"/>
     <use xlink:href="#ArialMT-69" x="72.216797"/>
     <use xlink:href="#ArialMT-76" x="94.433594"/>
     <use xlink:href="#ArialMT-65" x="144.433594"/>
     <use xlink:href="#ArialMT-72" x="200.048828"/>
     <use xlink:href="#ArialMT-73" x="233.349609"/>
     <use xlink:href="#ArialMT-69" x="283.349609"/>
     <use xlink:href="#ArialMT-66" x="305.566406"/>
     <use xlink:href="#ArialMT-69" x="333.349609"/>
     <use xlink:href="#ArialMT-61" x="355.566406"/>
     <use xlink:href="#ArialMT-62" x="411.181641"/>
     <use xlink:href="#ArialMT-6c" x="466.796875"/>
     <use xlink:href="#ArialMT-65" x="489.013672"/>
    </g>
    <!-- (Unsystematic) -->
    <g style="fill: #1f77b4" transform="translate(258.417355 154.952925) scale(0.1 -0.1)">
     <defs>
      <path id="ArialMT-28" d="M 1497 -1347 
Q 1031 -759 709 28 
Q 388 816 388 1659 
Q 388 2403 628 3084 
Q 909 3875 1497 4659 
L 1900 4659 
Q 1522 4009 1400 3731 
Q 1209 3300 1100 2831 
Q 966 2247 966 1656 
Q 966 153 1900 -1347 
L 1497 -1347 
z
" transform="scale(0.015625)"/>
      <path id="ArialMT-55" d="M 3500 4581 
L 4106 4581 
L 4106 1934 
Q 4106 1244 3950 837 
Q 3794 431 3386 176 
Q 2978 -78 2316 -78 
Q 1672 -78 1262 144 
Q 853 366 678 786 
Q 503 1206 503 1934 
L 503 4581 
L 1109 4581 
L 1109 1938 
Q 1109 1341 1220 1058 
Q 1331 775 1601 622 
Q 1872 469 2263 469 
Q 2931 469 3215 772 
Q 3500 1075 3500 1938 
L 3500 4581 
z
" transform="scale(0.015625)"/>
      <path id="ArialMT-79" d="M 397 -1278 
L 334 -750 
Q 519 -800 656 -800 
Q 844 -800 956 -737 
Q 1069 -675 1141 -563 
Q 1194 -478 1313 -144 
Q 1328 -97 1363 -6 
L 103 3319 
L 709 3319 
L 1400 1397 
Q 1534 1031 1641 628 
Q 1738 1016 1872 1384 
L 2581 3319 
L 3144 3319 
L 1881 -56 
Q 1678 -603 1566 -809 
Q 1416 -1088 1222 -1217 
Q 1028 -1347 759 -1347 
Q 597 -1347 397 -1278 
z
" transform="scale(0.015625)"/>
      <path id="ArialMT-29" d="M 791 -1347 
L 388 -1347 
Q 1322 153 1322 1656 
Q 1322 2244 1188 2822 
Q 1081 3291 891 3722 
Q 769 4003 388 4659 
L 791 4659 
Q 1378 3875 1659 3084 
Q 1900 2403 1900 1659 
Q 1900 816 1576 28 
Q 1253 -759 791 -1347 
z
" transform="scale(0.015625)"/>
     </defs>
     <use xlink:href="#ArialMT-28"/>
     <use xlink:href="#ArialMT-55" x="33.300781"/>
     <use xlink:href="#ArialMT-6e" x="105.517578"/>
     <use xlink:href="#ArialMT-73" x="161.132812"/>
     <use xlink:href="#ArialMT-79" x="211.132812"/>
     <use xlink:href="#ArialMT-73" x="261.132812"/>
     <use xlink:href="#ArialMT-74" x="311.132812"/>
     <use xlink:href="#ArialMT-65" x="338.916016"/>
     <use xlink:href="#ArialMT-6d" x="394.53125"/>
     <use xlink:href="#ArialMT-61" x="477.832031"/>
     <use xlink:href="#ArialMT-74" x="533.447266"/>
     <use xlink:href="#ArialMT-69" x="561.230469"/>
     <use xlink:href="#ArialMT-63" x="583.447266"/>
     <use xlink:href="#ArialMT-29" x="633.447266"/>
    </g>
    <!-- Risk -->
    <g style="fill: #1f77b4" transform="translate(282.031417 165.646988) scale(0.1 -0.1)">
     <defs>
      <path id="ArialMT-52" d="M 503 0 
L 503 4581 
L 2534 4581 
Q 3147 4581 3465 4457 
Q 3784 4334 3975 4021 
Q 4166 3709 4166 3331 
Q 4166 2844 3850 2509 
Q 3534 2175 2875 2084 
Q 3116 1969 3241 1856 
Q 3506 1613 3744 1247 
L 4541 0 
L 3778 0 
L 3172 953 
Q 2906 1366 2734 1584 
Q 2563 1803 2427 1890 
Q 2291 1978 2150 2013 
Q 2047 2034 1813 2034 
L 1109 2034 
L 1109 0 
L 503 0 
z
M 1109 2559 
L 2413 2559 
Q 2828 2559 3062 2645 
Q 3297 2731 3419 2920 
Q 3541 3109 3541 3331 
Q 3541 3656 3305 3865 
Q 3069 4075 2559 4075 
L 1109 4075 
L 1109 2559 
z
" transform="scale(0.015625)"/>
     </defs>
     <use xlink:href="#ArialMT-52"/>
     <use xlink:href="#ArialMT-69" x="72.216797"/>
     <use xlink:href="#ArialMT-73" x="94.433594"/>
     <use xlink:href="#ArialMT-6b" x="144.433594"/>
    </g>
   </g>
   <g id="text_16">
    <!-- Systematic -->
    <g style="fill: #ff0000" transform="translate(267.303292 171.939464) scale(0.1 -0.1)">
     <use xlink:href="#ArialMT-53"/>
     <use xlink:href="#ArialMT-79" x="66.699219"/>
     <use xlink:href="#ArialMT-73" x="116.699219"/>
     <use xlink:href="#ArialMT-74" x="166.699219"/>
     <use xlink:href="#ArialMT-65" x="194.482422"/>
     <use xlink:href="#ArialMT-6d" x="250.097656"/>
     <use xlink:href="#ArialMT-61" x="333.398438"/>
     <use xlink:href="#ArialMT-74" x="389.013672"/>
     <use xlink:href="#ArialMT-69" x="416.796875"/>
     <use xlink:href="#ArialMT-63" x="439.013672"/>
    </g>
    <!-- (Market) Risk -->
    <g style="fill: #ff0000" transform="translate(262.03298 182.779777) scale(0.1 -0.1)">
     <defs>
      <path id="ArialMT-4d" d="M 475 0 
L 475 4581 
L 1388 4581 
L 2472 1338 
Q 2622 884 2691 659 
Q 2769 909 2934 1394 
L 4031 4581 
L 4847 4581 
L 4847 0 
L 4263 0 
L 4263 3834 
L 2931 0 
L 2384 0 
L 1059 3900 
L 1059 0 
L 475 0 
z
" transform="scale(0.015625)"/>
     </defs>
     <use xlink:href="#ArialMT-28"/>
     <use xlink:href="#ArialMT-4d" x="33.300781"/>
     <use xlink:href="#ArialMT-61" x="116.601562"/>
     <use xlink:href="#ArialMT-72" x="172.216797"/>
     <use xlink:href="#ArialMT-6b" x="205.517578"/>
     <use xlink:href="#ArialMT-65" x="255.517578"/>
     <use xlink:href="#ArialMT-74" x="311.132812"/>
     <use xlink:href="#ArialMT-29" x="338.916016"/>
     <use xlink:href="#ArialMT-20" x="372.216797"/>
     <use xlink:href="#ArialMT-52" x="400"/>
     <use xlink:href="#ArialMT-69" x="472.216797"/>
     <use xlink:href="#ArialMT-73" x="494.433594"/>
     <use xlink:href="#ArialMT-6b" x="544.433594"/>
    </g>
   </g>
   <g id="text_17">
    <!-- Diversification and Portfolio Risk -->
    <g style="fill: #262626" transform="translate(207.271016 16.505156) scale(0.13 -0.13)">
     <use xlink:href="#ArialMT-44"/>
     <use xlink:href="#ArialMT-69" x="72.216797"/>
     <use xlink:href="#ArialMT-76" x="94.433594"/>
     <use xlink:href="#ArialMT-65" x="144.433594"/>
     <use xlink:href="#ArialMT-72" x="200.048828"/>
     <use xlink:href="#ArialMT-73" x="233.349609"/>
     <use xlink:href="#ArialMT-69" x="283.349609"/>
     <use xlink:href="#ArialMT-66" x="305.566406"/>
     <use xlink:href="#ArialMT-69" x="333.349609"/>
     <use xlink:href="#ArialMT-63" x="355.566406"/>
     <use xlink:href="#ArialMT-61" x="405.566406"/>
     <use xlink:href="#ArialMT-74" x="461.181641"/>
     <use xlink:href="#ArialMT-69" x="488.964844"/>
     <use xlink:href="#ArialMT-6f" x="511.181641"/>
     <use xlink:href="#ArialMT-6e" x="566.796875"/>
     <use xlink:href="#ArialMT-20" x="622.412109"/>
     <use xlink:href="#ArialMT-61" x="650.195312"/>
     <use xlink:href="#ArialMT-6e" x="705.810547"/>
     <use xlink:href="#ArialMT-64" x="761.425781"/>
     <use xlink:href="#ArialMT-20" x="817.041016"/>
     <use xlink:href="#ArialMT-50" x="844.824219"/>
     <use xlink:href="#ArialMT-6f" x="911.523438"/>
     <use xlink:href="#ArialMT-72" x="967.138672"/>
     <use xlink:href="#ArialMT-74" x="1000.439453"/>
     <use xlink:href="#ArialMT-66" x="1028.222656"/>
     <use xlink:href="#ArialMT-6f" x="1056.005859"/>
     <use xlink:href="#ArialMT-6c" x="1111.621094"/>
     <use xlink:href="#ArialMT-69" x="1133.837891"/>
     <use xlink:href="#ArialMT-6f" x="1156.054688"/>
     <use xlink:href="#ArialMT-20" x="1211.669922"/>
     <use xlink:href="#ArialMT-52" x="1239.453125"/>
     <use xlink:href="#ArialMT-69" x="1311.669922"/>
     <use xlink:href="#ArialMT-73" x="1333.886719"/>
     <use xlink:href="#ArialMT-6b" x="1383.886719"/>
    </g>
   </g>
   <g id="legend_1">
    <g id="patch_5">
     <path d="M 420.128594 55.381875 
L 546.949844 55.381875 
Q 548.749844 55.381875 548.749844 53.581875 
L 548.749844 28.805156 
Q 548.749844 27.005156 546.949844 27.005156 
L 420.128594 27.005156 
Q 418.328594 27.005156 418.328594 28.805156 
L 418.328594 53.581875 
Q 418.328594 55.381875 420.128594 55.381875 
z
" style="fill: #ffffff; opacity: 0.8; stroke: #cccccc; stroke-linejoin: miter"/>
    </g>
    <g id="line2d_27">
     <path d="M 421.928594 33.897188 
L 430.928594 33.897188 
L 439.928594 33.897188 
" style="fill: none; stroke: #0000ff; stroke-width: 2; stroke-linecap: round"/>
     <g>
      <use xlink:href="#m1825375b92" x="430.928594" y="33.897188" style="fill: #0000ff; stroke: #0000ff"/>
     </g>
    </g>
    <g id="text_18">
     <!-- Portfolio Std. Dev. -->
     <g style="fill: #262626" transform="translate(447.128594 37.047188) scale(0.09 -0.09)">
      <defs>
       <path id="ArialMT-2e" d="M 581 0 
L 581 641 
L 1222 641 
L 1222 0 
L 581 0 
z
" transform="scale(0.015625)"/>
      </defs>
      <use xlink:href="#ArialMT-50"/>
      <use xlink:href="#ArialMT-6f" x="66.699219"/>
      <use xlink:href="#ArialMT-72" x="122.314453"/>
      <use xlink:href="#ArialMT-74" x="155.615234"/>
      <use xlink:href="#ArialMT-66" x="183.398438"/>
      <use xlink:href="#ArialMT-6f" x="211.181641"/>
      <use xlink:href="#ArialMT-6c" x="266.796875"/>
      <use xlink:href="#ArialMT-69" x="289.013672"/>
      <use xlink:href="#ArialMT-6f" x="311.230469"/>
      <use xlink:href="#ArialMT-20" x="366.845703"/>
      <use xlink:href="#ArialMT-53" x="394.628906"/>
      <use xlink:href="#ArialMT-74" x="461.328125"/>
      <use xlink:href="#ArialMT-64" x="489.111328"/>
      <use xlink:href="#ArialMT-2e" x="544.726562"/>
      <use xlink:href="#ArialMT-20" x="572.509766"/>
      <use xlink:href="#ArialMT-44" x="600.292969"/>
      <use xlink:href="#ArialMT-65" x="672.509766"/>
      <use xlink:href="#ArialMT-76" x="728.125"/>
      <use xlink:href="#ArialMT-2e" x="770.75"/>
     </g>
    </g>
    <g id="line2d_28">
     <path d="M 421.928594 46.737656 
L 430.928594 46.737656 
L 439.928594 46.737656 
" style="fill: none; stroke-dasharray: 4.44,1.92; stroke-dashoffset: 0; stroke: #ff0000; stroke-width: 1.2"/>
    </g>
    <g id="text_19">
     <!-- Systematic Risk (24.6%) -->
     <g style="fill: #262626" transform="translate(447.128594 49.887656) scale(0.09 -0.09)">
      <defs>
       <path id="ArialMT-36" d="M 3184 3459 
L 2625 3416 
Q 2550 3747 2413 3897 
Q 2184 4138 1850 4138 
Q 1581 4138 1378 3988 
Q 1113 3794 959 3422 
Q 806 3050 800 2363 
Q 1003 2672 1297 2822 
Q 1591 2972 1913 2972 
Q 2475 2972 2870 2558 
Q 3266 2144 3266 1488 
Q 3266 1056 3080 686 
Q 2894 316 2569 119 
Q 2244 -78 1831 -78 
Q 1128 -78 684 439 
Q 241 956 241 2144 
Q 241 3472 731 4075 
Q 1159 4600 1884 4600 
Q 2425 4600 2770 4297 
Q 3116 3994 3184 3459 
z
M 888 1484 
Q 888 1194 1011 928 
Q 1134 663 1356 523 
Q 1578 384 1822 384 
Q 2178 384 2434 671 
Q 2691 959 2691 1453 
Q 2691 1928 2437 2201 
Q 2184 2475 1800 2475 
Q 1419 2475 1153 2201 
Q 888 1928 888 1484 
z
" transform="scale(0.015625)"/>
      </defs>
      <use xlink:href="#ArialMT-53"/>
      <use xlink:href="#ArialMT-79" x="66.699219"/>
      <use xlink:href="#ArialMT-73" x="116.699219"/>
      <use xlink:href="#ArialMT-74" x="166.699219"/>
      <use xlink:href="#ArialMT-65" x="194.482422"/>
      <use xlink:href="#ArialMT-6d" x="250.097656"/>
      <use xlink:href="#ArialMT-61" x="333.398438"/>
      <use xlink:href="#ArialMT-74" x="389.013672"/>
      <use xlink:href="#ArialMT-69" x="416.796875"/>
      <use xlink:href="#ArialMT-63" x="439.013672"/>
      <use xlink:href="#ArialMT-20" x="489.013672"/>
      <use xlink:href="#ArialMT-52" x="516.796875"/>
      <use xlink:href="#ArialMT-69" x="589.013672"/>
      <use xlink:href="#ArialMT-73" x="611.230469"/>
      <use xlink:href="#ArialMT-6b" x="661.230469"/>
      <use xlink:href="#ArialMT-20" x="711.230469"/>
      <use xlink:href="#ArialMT-28" x="739.013672"/>
      <use xlink:href="#ArialMT-32" x="772.314453"/>
      <use xlink:href="#ArialMT-34" x="827.929688"/>
      <use xlink:href="#ArialMT-2e" x="883.544922"/>
      <use xlink:href="#ArialMT-36" x="911.328125"/>
      <use xlink:href="#ArialMT-25" x="966.943359"/>
      <use xlink:href="#ArialMT-29" x="1055.859375"/>
     </g>
    </g>
   </g>
  </g>
 </g>
 <defs>
  <clipPath id="p4d63fc2c5a">
   <rect x="47.689844" y="22.505156" width="505.56" height="292.98"/>
  </clipPath>
 </defs>
</svg>
