<?xml version="1.0" encoding="utf-8" standalone="no"?>
<!DOCTYPE svg PUBLIC "-//W3C//DTD SVG 1.1//EN"
  "http://www.w3.org/Graphics/SVG/1.1/DTD/svg11.dtd">
<svg xmlns:xlink="http://www.w3.org/1999/xlink" width="563.873438pt" height="347.923125pt" viewBox="0 0 563.873438 347.923125" xmlns="http://www.w3.org/2000/svg" version="1.1">
 <metadata>
  <rdf:RDF xmlns:dc="http://purl.org/dc/elements/1.1/" xmlns:cc="http://creativecommons.org/ns#" xmlns:rdf="http://www.w3.org/1999/02/22-rdf-syntax-ns#">
   <cc:Work>
    <dc:type rdf:resource="http://purl.org/dc/dcmitype/StillImage"/>
    <dc:date>2026-07-15T14:38:47.892253</dc:date>
    <dc:format>image/svg+xml</dc:format>
    <dc:creator>
     <cc:Agent>
      <dc:title>Matplotlib v3.9.2, https://matplotlib.org/</dc:title>
     </cc:Agent>
    </dc:creator>
   </cc:Work>
  </rdf:RDF>
 </metadata>
 <defs>
  <style type="text/css">*{stroke-linejoin: round; stroke-linecap: butt}</style>
 </defs>
 <g id="figure_1">
  <g id="patch_1">
   <path d="M 0 347.923125 
L 563.873438 347.923125 
L 563.873438 0 
L 0 0 
z
" style="fill: #ffffff"/>
  </g>
  <g id="axes_1">
   <g id="patch_2">
    <path d="M 51.520313 309.274687 
L 550.000313 309.274687 
L 550.000313 11.494687 
L 51.520313 11.494687 
z
" style="fill: #ffffff"/>
   </g>
   <g id="matplotlib.axis_1">
    <g id="xtick_1">
     <g id="line2d_1">
      <path d="M 120.276175 309.274687 
L 120.276175 11.494687 
" clip-path="url(#pf099ae3453)" style="fill: none; stroke: #cccccc; stroke-width: 0.8; stroke-linecap: round"/>
     </g>
     <g id="line2d_2"/>
     <g id="text_1">
      <!-- 5 -->
      <g style="fill: #262626" transform="translate(116.939612 321.364062) scale(0.12 -0.12)">
       <defs>
        <path id="ArialMT-35" d="M 266 1200 
L 856 1250 
Q 922 819 1161 601 
Q 1400 384 1738 384 
Q 2144 384 2425 690 
Q 2706 997 2706 1503 
Q 2706 1984 2436 2262 
Q 2166 2541 1728 2541 
Q 1456 2541 1237 2417 
Q 1019 2294 894 2097 
L 366 2166 
L 809 4519 
L 3088 4519 
L 3088 3981 
L 1259 3981 
L 1013 2750 
Q 1425 3038 1878 3038 
Q 2478 3038 2890 2622 
Q 3303 2206 3303 1553 
Q 3303 931 2941 478 
Q 2500 -78 1738 -78 
Q 1113 -78 717 272 
Q 322 622 266 1200 
z
" transform="scale(0.015625)"/>
       </defs>
       <use xlink:href="#ArialMT-35"/>
      </g>
     </g>
    </g>
    <g id="xtick_2">
     <g id="line2d_3">
      <path d="M 206.221002 309.274687 
L 206.221002 11.494687 
" clip-path="url(#pf099ae3453)" style="fill: none; stroke: #cccccc; stroke-width: 0.8; stroke-linecap: round"/>
     </g>
     <g id="line2d_4"/>
     <g id="text_2">
      <!-- 10 -->
      <g style="fill: #262626" transform="translate(199.547877 321.364062) scale(0.12 -0.12)">
       <defs>
        <path id="ArialMT-31" d="M 2384 0 
L 1822 0 
L 1822 3584 
Q 1619 3391 1289 3197 
Q 959 3003 697 2906 
L 697 3450 
Q 1169 3672 1522 3987 
Q 1875 4303 2022 4600 
L 2384 4600 
L 2384 0 
z
" transform="scale(0.015625)"/>
        <path id="ArialMT-30" d="M 266 2259 
Q 266 3072 433 3567 
Q 600 4063 929 4331 
Q 1259 4600 1759 4600 
Q 2128 4600 2406 4451 
Q 2684 4303 2865 4023 
Q 3047 3744 3150 3342 
Q 3253 2941 3253 2259 
Q 3253 1453 3087 958 
Q 2922 463 2592 192 
Q 2263 -78 1759 -78 
Q 1097 -78 719 397 
Q 266 969 266 2259 
z
M 844 2259 
Q 844 1131 1108 757 
Q 1372 384 1759 384 
Q 2147 384 2411 759 
Q 2675 1134 2675 2259 
Q 2675 3391 2411 3762 
Q 2147 4134 1753 4134 
Q 1366 4134 1134 3806 
Q 844 3388 844 2259 
z
" transform="scale(0.015625)"/>
       </defs>
       <use xlink:href="#ArialMT-31"/>
       <use xlink:href="#ArialMT-30" x="55.615234"/>
      </g>
     </g>
    </g>
    <g id="xtick_3">
     <g id="line2d_5">
      <path d="M 292.16583 309.274687 
L 292.16583 11.494687 
" clip-path="url(#pf099ae3453)" style="fill: none; stroke: #cccccc; stroke-width: 0.8; stroke-linecap: round"/>
     </g>
     <g id="line2d_6"/>
     <g id="text_3">
      <!-- 15 -->
      <g style="fill: #262626" transform="translate(285.492705 321.364062) scale(0.12 -0.12)">
       <use xlink:href="#ArialMT-31"/>
       <use xlink:href="#ArialMT-35" x="55.615234"/>
      </g>
     </g>
    </g>
    <g id="xtick_4">
     <g id="line2d_7">
      <path d="M 378.110657 309.274687 
L 378.110657 11.494687 
" clip-path="url(#pf099ae3453)" style="fill: none; stroke: #cccccc; stroke-width: 0.8; stroke-linecap: round"/>
     </g>
     <g id="line2d_8"/>
     <g id="text_4">
      <!-- 20 -->
      <g style="fill: #262626" transform="translate(371.437532 321.364062) scale(0.12 -0.12)">
       <defs>
        <path id="ArialMT-32" d="M 3222 541 
L 3222 0 
L 194 0 
Q 188 203 259 391 
Q 375 700 629 1000 
Q 884 1300 1366 1694 
Q 2113 2306 2375 2664 
Q 2638 3022 2638 3341 
Q 2638 3675 2398 3904 
Q 2159 4134 1775 4134 
Q 1369 4134 1125 3890 
Q 881 3647 878 3216 
L 300 3275 
Q 359 3922 746 4261 
Q 1134 4600 1788 4600 
Q 2447 4600 2831 4234 
Q 3216 3869 3216 3328 
Q 3216 3053 3103 2787 
Q 2991 2522 2730 2228 
Q 2469 1934 1863 1422 
Q 1356 997 1212 845 
Q 1069 694 975 541 
L 3222 541 
z
" transform="scale(0.015625)"/>
       </defs>
       <use xlink:href="#ArialMT-32"/>
       <use xlink:href="#ArialMT-30" x="55.615234"/>
      </g>
     </g>
    </g>
    <g id="xtick_5">
     <g id="line2d_9">
      <path d="M 464.055485 309.274687 
L 464.055485 11.494687 
" clip-path="url(#pf099ae3453)" style="fill: none; stroke: #cccccc; stroke-width: 0.8; stroke-linecap: round"/>
     </g>
     <g id="line2d_10"/>
     <g id="text_5">
      <!-- 25 -->
      <g style="fill: #262626" transform="translate(457.38236 321.364062) scale(0.12 -0.12)">
       <use xlink:href="#ArialMT-32"/>
       <use xlink:href="#ArialMT-35" x="55.615234"/>
      </g>
     </g>
    </g>
    <g id="xtick_6">
     <g id="line2d_11">
      <path d="M 550.000313 309.274687 
L 550.000313 11.494687 
" clip-path="url(#pf099ae3453)" style="fill: none; stroke: #cccccc; stroke-width: 0.8; stroke-linecap: round"/>
     </g>
     <g id="line2d_12"/>
     <g id="text_6">
      <!-- 30 -->
      <g style="fill: #262626" transform="translate(543.327188 321.364062) scale(0.12 -0.12)">
       <defs>
        <path id="ArialMT-33" d="M 269 1209 
L 831 1284 
Q 928 806 1161 595 
Q 1394 384 1728 384 
Q 2125 384 2398 659 
Q 2672 934 2672 1341 
Q 2672 1728 2419 1979 
Q 2166 2231 1775 2231 
Q 1616 2231 1378 2169 
L 1441 2663 
Q 1497 2656 1531 2656 
Q 1891 2656 2178 2843 
Q 2466 3031 2466 3422 
Q 2466 3731 2256 3934 
Q 2047 4138 1716 4138 
Q 1388 4138 1169 3931 
Q 950 3725 888 3313 
L 325 3413 
Q 428 3978 793 4289 
Q 1159 4600 1703 4600 
Q 2078 4600 2393 4439 
Q 2709 4278 2876 4000 
Q 3044 3722 3044 3409 
Q 3044 3113 2884 2869 
Q 2725 2625 2413 2481 
Q 2819 2388 3044 2092 
Q 3269 1797 3269 1353 
Q 3269 753 2831 336 
Q 2394 -81 1725 -81 
Q 1122 -81 723 278 
Q 325 638 269 1209 
z
" transform="scale(0.015625)"/>
       </defs>
       <use xlink:href="#ArialMT-33"/>
       <use xlink:href="#ArialMT-30" x="55.615234"/>
      </g>
     </g>
    </g>
    <g id="text_7">
     <!-- Number of stocks in the portfolio -->
     <g style="fill: #262626" transform="translate(200.387969 337.940625) scale(0.14 -0.14)">
      <defs>
       <path id="ArialMT-4e" d="M 488 0 
L 488 4581 
L 1109 4581 
L 3516 984 
L 3516 4581 
L 4097 4581 
L 4097 0 
L 3475 0 
L 1069 3600 
L 1069 0 
L 488 0 
z
" transform="scale(0.015625)"/>
       <path id="ArialMT-75" d="M 2597 0 
L 2597 488 
Q 2209 -75 1544 -75 
Q 1250 -75 995 37 
Q 741 150 617 320 
Q 494 491 444 738 
Q 409 903 409 1263 
L 409 3319 
L 972 3319 
L 972 1478 
Q 972 1038 1006 884 
Q 1059 663 1231 536 
Q 1403 409 1656 409 
Q 1909 409 2131 539 
Q 2353 669 2445 892 
Q 2538 1116 2538 1541 
L 2538 3319 
L 3100 3319 
L 3100 0 
L 2597 0 
z
" transform="scale(0.015625)"/>
       <path id="ArialMT-6d" d="M 422 0 
L 422 3319 
L 925 3319 
L 925 2853 
Q 1081 3097 1340 3245 
Q 1600 3394 1931 3394 
Q 2300 3394 2536 3241 
Q 2772 3088 2869 2813 
Q 3263 3394 3894 3394 
Q 4388 3394 4653 3120 
Q 4919 2847 4919 2278 
L 4919 0 
L 4359 0 
L 4359 2091 
Q 4359 2428 4304 2576 
Q 4250 2725 4106 2815 
Q 3963 2906 3769 2906 
Q 3419 2906 3187 2673 
Q 2956 2441 2956 1928 
L 2956 0 
L 2394 0 
L 2394 2156 
Q 2394 2531 2256 2718 
Q 2119 2906 1806 2906 
Q 1569 2906 1367 2781 
Q 1166 2656 1075 2415 
Q 984 2175 984 1722 
L 984 0 
L 422 0 
z
" transform="scale(0.015625)"/>
       <path id="ArialMT-62" d="M 941 0 
L 419 0 
L 419 4581 
L 981 4581 
L 981 2947 
Q 1338 3394 1891 3394 
Q 2197 3394 2470 3270 
Q 2744 3147 2920 2923 
Q 3097 2700 3197 2384 
Q 3297 2069 3297 1709 
Q 3297 856 2875 390 
Q 2453 -75 1863 -75 
Q 1275 -75 941 416 
L 941 0 
z
M 934 1684 
Q 934 1088 1097 822 
Q 1363 388 1816 388 
Q 2184 388 2453 708 
Q 2722 1028 2722 1663 
Q 2722 2313 2464 2622 
Q 2206 2931 1841 2931 
Q 1472 2931 1203 2611 
Q 934 2291 934 1684 
z
" transform="scale(0.015625)"/>
       <path id="ArialMT-65" d="M 2694 1069 
L 3275 997 
Q 3138 488 2766 206 
Q 2394 -75 1816 -75 
Q 1088 -75 661 373 
Q 234 822 234 1631 
Q 234 2469 665 2931 
Q 1097 3394 1784 3394 
Q 2450 3394 2872 2941 
Q 3294 2488 3294 1666 
Q 3294 1616 3291 1516 
L 816 1516 
Q 847 969 1125 678 
Q 1403 388 1819 388 
Q 2128 388 2347 550 
Q 2566 713 2694 1069 
z
M 847 1978 
L 2700 1978 
Q 2663 2397 2488 2606 
Q 2219 2931 1791 2931 
Q 1403 2931 1139 2672 
Q 875 2413 847 1978 
z
" transform="scale(0.015625)"/>
       <path id="ArialMT-72" d="M 416 0 
L 416 3319 
L 922 3319 
L 922 2816 
Q 1116 3169 1280 3281 
Q 1444 3394 1641 3394 
Q 1925 3394 2219 3213 
L 2025 2691 
Q 1819 2813 1613 2813 
Q 1428 2813 1281 2702 
Q 1134 2591 1072 2394 
Q 978 2094 978 1738 
L 978 0 
L 416 0 
z
" transform="scale(0.015625)"/>
       <path id="ArialMT-20" transform="scale(0.015625)"/>
       <path id="ArialMT-6f" d="M 213 1659 
Q 213 2581 725 3025 
Q 1153 3394 1769 3394 
Q 2453 3394 2887 2945 
Q 3322 2497 3322 1706 
Q 3322 1066 3130 698 
Q 2938 331 2570 128 
Q 2203 -75 1769 -75 
Q 1072 -75 642 372 
Q 213 819 213 1659 
z
M 791 1659 
Q 791 1022 1069 705 
Q 1347 388 1769 388 
Q 2188 388 2466 706 
Q 2744 1025 2744 1678 
Q 2744 2294 2464 2611 
Q 2184 2928 1769 2928 
Q 1347 2928 1069 2612 
Q 791 2297 791 1659 
z
" transform="scale(0.015625)"/>
       <path id="ArialMT-66" d="M 556 0 
L 556 2881 
L 59 2881 
L 59 3319 
L 556 3319 
L 556 3672 
Q 556 4006 616 4169 
Q 697 4388 901 4523 
Q 1106 4659 1475 4659 
Q 1713 4659 2000 4603 
L 1916 4113 
Q 1741 4144 1584 4144 
Q 1328 4144 1222 4034 
Q 1116 3925 1116 3625 
L 1116 3319 
L 1763 3319 
L 1763 2881 
L 1116 2881 
L 1116 0 
L 556 0 
z
" transform="scale(0.015625)"/>
       <path id="ArialMT-73" d="M 197 991 
L 753 1078 
Q 800 744 1014 566 
Q 1228 388 1613 388 
Q 2000 388 2187 545 
Q 2375 703 2375 916 
Q 2375 1106 2209 1216 
Q 2094 1291 1634 1406 
Q 1016 1563 777 1677 
Q 538 1791 414 1992 
Q 291 2194 291 2438 
Q 291 2659 392 2848 
Q 494 3038 669 3163 
Q 800 3259 1026 3326 
Q 1253 3394 1513 3394 
Q 1903 3394 2198 3281 
Q 2494 3169 2634 2976 
Q 2775 2784 2828 2463 
L 2278 2388 
Q 2241 2644 2061 2787 
Q 1881 2931 1553 2931 
Q 1166 2931 1000 2803 
Q 834 2675 834 2503 
Q 834 2394 903 2306 
Q 972 2216 1119 2156 
Q 1203 2125 1616 2013 
Q 2213 1853 2448 1751 
Q 2684 1650 2818 1456 
Q 2953 1263 2953 975 
Q 2953 694 2789 445 
Q 2625 197 2315 61 
Q 2006 -75 1616 -75 
Q 969 -75 630 194 
Q 291 463 197 991 
z
" transform="scale(0.015625)"/>
       <path id="ArialMT-74" d="M 1650 503 
L 1731 6 
Q 1494 -44 1306 -44 
Q 1000 -44 831 53 
Q 663 150 594 308 
Q 525 466 525 972 
L 525 2881 
L 113 2881 
L 113 3319 
L 525 3319 
L 525 4141 
L 1084 4478 
L 1084 3319 
L 1650 3319 
L 1650 2881 
L 1084 2881 
L 1084 941 
Q 1084 700 1114 631 
Q 1144 563 1211 522 
Q 1278 481 1403 481 
Q 1497 481 1650 503 
z
" transform="scale(0.015625)"/>
       <path id="ArialMT-63" d="M 2588 1216 
L 3141 1144 
Q 3050 572 2676 248 
Q 2303 -75 1759 -75 
Q 1078 -75 664 370 
Q 250 816 250 1647 
Q 250 2184 428 2587 
Q 606 2991 970 3192 
Q 1334 3394 1763 3394 
Q 2303 3394 2647 3120 
Q 2991 2847 3088 2344 
L 2541 2259 
Q 2463 2594 2264 2762 
Q 2066 2931 1784 2931 
Q 1359 2931 1093 2626 
Q 828 2322 828 1663 
Q 828 994 1084 691 
Q 1341 388 1753 388 
Q 2084 388 2306 591 
Q 2528 794 2588 1216 
z
" transform="scale(0.015625)"/>
       <path id="ArialMT-6b" d="M 425 0 
L 425 4581 
L 988 4581 
L 988 1969 
L 2319 3319 
L 3047 3319 
L 1778 2088 
L 3175 0 
L 2481 0 
L 1384 1697 
L 988 1316 
L 988 0 
L 425 0 
z
" transform="scale(0.015625)"/>
       <path id="ArialMT-69" d="M 425 3934 
L 425 4581 
L 988 4581 
L 988 3934 
L 425 3934 
z
M 425 0 
L 425 3319 
L 988 3319 
L 988 0 
L 425 0 
z
" transform="scale(0.015625)"/>
       <path id="ArialMT-6e" d="M 422 0 
L 422 3319 
L 928 3319 
L 928 2847 
Q 1294 3394 1984 3394 
Q 2284 3394 2536 3286 
Q 2788 3178 2913 3003 
Q 3038 2828 3088 2588 
Q 3119 2431 3119 2041 
L 3119 0 
L 2556 0 
L 2556 2019 
Q 2556 2363 2490 2533 
Q 2425 2703 2258 2804 
Q 2091 2906 1866 2906 
Q 1506 2906 1245 2678 
Q 984 2450 984 1813 
L 984 0 
L 422 0 
z
" transform="scale(0.015625)"/>
       <path id="ArialMT-68" d="M 422 0 
L 422 4581 
L 984 4581 
L 984 2938 
Q 1378 3394 1978 3394 
Q 2347 3394 2619 3248 
Q 2891 3103 3008 2847 
Q 3125 2591 3125 2103 
L 3125 0 
L 2563 0 
L 2563 2103 
Q 2563 2525 2380 2717 
Q 2197 2909 1863 2909 
Q 1613 2909 1392 2779 
Q 1172 2650 1078 2428 
Q 984 2206 984 1816 
L 984 0 
L 422 0 
z
" transform="scale(0.015625)"/>
       <path id="ArialMT-70" d="M 422 -1272 
L 422 3319 
L 934 3319 
L 934 2888 
Q 1116 3141 1344 3267 
Q 1572 3394 1897 3394 
Q 2322 3394 2647 3175 
Q 2972 2956 3137 2557 
Q 3303 2159 3303 1684 
Q 3303 1175 3120 767 
Q 2938 359 2589 142 
Q 2241 -75 1856 -75 
Q 1575 -75 1351 44 
Q 1128 163 984 344 
L 984 -1272 
L 422 -1272 
z
M 931 1641 
Q 931 1000 1190 694 
Q 1450 388 1819 388 
Q 2194 388 2461 705 
Q 2728 1022 2728 1688 
Q 2728 2322 2467 2637 
Q 2206 2953 1844 2953 
Q 1484 2953 1207 2617 
Q 931 2281 931 1641 
z
" transform="scale(0.015625)"/>
       <path id="ArialMT-6c" d="M 409 0 
L 409 4581 
L 972 4581 
L 972 0 
L 409 0 
z
" transform="scale(0.015625)"/>
      </defs>
      <use xlink:href="#ArialMT-4e"/>
      <use xlink:href="#ArialMT-75" x="72.216797"/>
      <use xlink:href="#ArialMT-6d" x="127.832031"/>
      <use xlink:href="#ArialMT-62" x="211.132812"/>
      <use xlink:href="#ArialMT-65" x="266.748047"/>
      <use xlink:href="#ArialMT-72" x="322.363281"/>
      <use xlink:href="#ArialMT-20" x="355.664062"/>
      <use xlink:href="#ArialMT-6f" x="383.447266"/>
      <use xlink:href="#ArialMT-66" x="439.0625"/>
      <use xlink:href="#ArialMT-20" x="466.845703"/>
      <use xlink:href="#ArialMT-73" x="494.628906"/>
      <use xlink:href="#ArialMT-74" x="544.628906"/>
      <use xlink:href="#ArialMT-6f" x="572.412109"/>
      <use xlink:href="#ArialMT-63" x="628.027344"/>
      <use xlink:href="#ArialMT-6b" x="678.027344"/>
      <use xlink:href="#ArialMT-73" x="728.027344"/>
      <use xlink:href="#ArialMT-20" x="778.027344"/>
      <use xlink:href="#ArialMT-69" x="805.810547"/>
      <use xlink:href="#ArialMT-6e" x="828.027344"/>
      <use xlink:href="#ArialMT-20" x="883.642578"/>
      <use xlink:href="#ArialMT-74" x="911.425781"/>
      <use xlink:href="#ArialMT-68" x="939.208984"/>
      <use xlink:href="#ArialMT-65" x="994.824219"/>
      <use xlink:href="#ArialMT-20" x="1050.439453"/>
      <use xlink:href="#ArialMT-70" x="1078.222656"/>
      <use xlink:href="#ArialMT-6f" x="1133.837891"/>
      <use xlink:href="#ArialMT-72" x="1189.453125"/>
      <use xlink:href="#ArialMT-74" x="1222.753906"/>
      <use xlink:href="#ArialMT-66" x="1250.537109"/>
      <use xlink:href="#ArialMT-6f" x="1278.320312"/>
      <use xlink:href="#ArialMT-6c" x="1333.935547"/>
      <use xlink:href="#ArialMT-69" x="1356.152344"/>
      <use xlink:href="#ArialMT-6f" x="1378.369141"/>
     </g>
    </g>
   </g>
   <g id="matplotlib.axis_2">
    <g id="ytick_1">
     <g id="line2d_13">
      <path d="M 51.520313 309.274687 
L 550.000313 309.274687 
" clip-path="url(#pf099ae3453)" style="fill: none; stroke: #cccccc; stroke-width: 0.8; stroke-linecap: round"/>
     </g>
     <g id="line2d_14"/>
     <g id="text_8">
      <!-- 0% -->
      <g style="fill: #262626" transform="translate(30.676563 313.569375) scale(0.12 -0.12)">
       <defs>
        <path id="ArialMT-25" d="M 372 3481 
Q 372 3972 619 4315 
Q 866 4659 1334 4659 
Q 1766 4659 2048 4351 
Q 2331 4044 2331 3447 
Q 2331 2866 2045 2552 
Q 1759 2238 1341 2238 
Q 925 2238 648 2547 
Q 372 2856 372 3481 
z
M 1350 4272 
Q 1141 4272 1002 4090 
Q 863 3909 863 3425 
Q 863 2984 1003 2804 
Q 1144 2625 1350 2625 
Q 1563 2625 1702 2806 
Q 1841 2988 1841 3469 
Q 1841 3913 1700 4092 
Q 1559 4272 1350 4272 
z
M 1353 -169 
L 3859 4659 
L 4316 4659 
L 1819 -169 
L 1353 -169 
z
M 3334 1075 
Q 3334 1569 3581 1911 
Q 3828 2253 4300 2253 
Q 4731 2253 5014 1945 
Q 5297 1638 5297 1041 
Q 5297 459 5011 145 
Q 4725 -169 4303 -169 
Q 3888 -169 3611 142 
Q 3334 453 3334 1075 
z
M 4316 1866 
Q 4103 1866 3964 1684 
Q 3825 1503 3825 1019 
Q 3825 581 3965 400 
Q 4106 219 4313 219 
Q 4528 219 4667 400 
Q 4806 581 4806 1063 
Q 4806 1506 4665 1686 
Q 4525 1866 4316 1866 
z
" transform="scale(0.015625)"/>
       </defs>
       <use xlink:href="#ArialMT-30"/>
       <use xlink:href="#ArialMT-25" x="55.615234"/>
      </g>
     </g>
    </g>
    <g id="ytick_2">
     <g id="line2d_15">
      <path d="M 51.520313 249.718687 
L 550.000313 249.718687 
" clip-path="url(#pf099ae3453)" style="fill: none; stroke: #cccccc; stroke-width: 0.8; stroke-linecap: round"/>
     </g>
     <g id="line2d_16"/>
     <g id="text_9">
      <!-- 10% -->
      <g style="fill: #262626" transform="translate(24.003438 254.013375) scale(0.12 -0.12)">
       <use xlink:href="#ArialMT-31"/>
       <use xlink:href="#ArialMT-30" x="55.615234"/>
       <use xlink:href="#ArialMT-25" x="111.230469"/>
      </g>
     </g>
    </g>
    <g id="ytick_3">
     <g id="line2d_17">
      <path d="M 51.520313 190.162687 
L 550.000313 190.162687 
" clip-path="url(#pf099ae3453)" style="fill: none; stroke: #cccccc; stroke-width: 0.8; stroke-linecap: round"/>
     </g>
     <g id="line2d_18"/>
     <g id="text_10">
      <!-- 20% -->
      <g style="fill: #262626" transform="translate(24.003438 194.457375) scale(0.12 -0.12)">
       <use xlink:href="#ArialMT-32"/>
       <use xlink:href="#ArialMT-30" x="55.615234"/>
       <use xlink:href="#ArialMT-25" x="111.230469"/>
      </g>
     </g>
    </g>
    <g id="ytick_4">
     <g id="line2d_19">
      <path d="M 51.520313 130.606687 
L 550.000313 130.606687 
" clip-path="url(#pf099ae3453)" style="fill: none; stroke: #cccccc; stroke-width: 0.8; stroke-linecap: round"/>
     </g>
     <g id="line2d_20"/>
     <g id="text_11">
      <!-- 30% -->
      <g style="fill: #262626" transform="translate(24.003438 134.901375) scale(0.12 -0.12)">
       <use xlink:href="#ArialMT-33"/>
       <use xlink:href="#ArialMT-30" x="55.615234"/>
       <use xlink:href="#ArialMT-25" x="111.230469"/>
      </g>
     </g>
    </g>
    <g id="ytick_5">
     <g id="line2d_21">
      <path d="M 51.520313 71.050687 
L 550.000313 71.050687 
" clip-path="url(#pf099ae3453)" style="fill: none; stroke: #cccccc; stroke-width: 0.8; stroke-linecap: round"/>
     </g>
     <g id="line2d_22"/>
     <g id="text_12">
      <!-- 40% -->
      <g style="fill: #262626" transform="translate(24.003438 75.345375) scale(0.12 -0.12)">
       <defs>
        <path id="ArialMT-34" d="M 2069 0 
L 2069 1097 
L 81 1097 
L 81 1613 
L 2172 4581 
L 2631 4581 
L 2631 1613 
L 3250 1613 
L 3250 1097 
L 2631 1097 
L 2631 0 
L 2069 0 
z
M 2069 1613 
L 2069 3678 
L 634 1613 
L 2069 1613 
z
" transform="scale(0.015625)"/>
       </defs>
       <use xlink:href="#ArialMT-34"/>
       <use xlink:href="#ArialMT-30" x="55.615234"/>
       <use xlink:href="#ArialMT-25" x="111.230469"/>
      </g>
     </g>
    </g>
    <g id="ytick_6">
     <g id="line2d_23">
      <path d="M 51.520313 11.494687 
L 550.000313 11.494687 
" clip-path="url(#pf099ae3453)" style="fill: none; stroke: #cccccc; stroke-width: 0.8; stroke-linecap: round"/>
     </g>
     <g id="line2d_24"/>
     <g id="text_13">
      <!-- 50% -->
      <g style="fill: #262626" transform="translate(24.003438 15.789375) scale(0.12 -0.12)">
       <use xlink:href="#ArialMT-35"/>
       <use xlink:href="#ArialMT-30" x="55.615234"/>
       <use xlink:href="#ArialMT-25" x="111.230469"/>
      </g>
     </g>
    </g>
    <g id="text_14">
     <!-- Portfolio standard deviation -->
     <g style="fill: #262626" transform="translate(17.220937 245.209375) rotate(-90) scale(0.14 -0.14)">
      <defs>
       <path id="ArialMT-50" d="M 494 0 
L 494 4581 
L 2222 4581 
Q 2678 4581 2919 4538 
Q 3256 4481 3484 4323 
Q 3713 4166 3852 3881 
Q 3991 3597 3991 3256 
Q 3991 2672 3619 2267 
Q 3247 1863 2275 1863 
L 1100 1863 
L 1100 0 
L 494 0 
z
M 1100 2403 
L 2284 2403 
Q 2872 2403 3119 2622 
Q 3366 2841 3366 3238 
Q 3366 3525 3220 3729 
Q 3075 3934 2838 4000 
Q 2684 4041 2272 4041 
L 1100 4041 
L 1100 2403 
z
" transform="scale(0.015625)"/>
       <path id="ArialMT-61" d="M 2588 409 
Q 2275 144 1986 34 
Q 1697 -75 1366 -75 
Q 819 -75 525 192 
Q 231 459 231 875 
Q 231 1119 342 1320 
Q 453 1522 633 1644 
Q 813 1766 1038 1828 
Q 1203 1872 1538 1913 
Q 2219 1994 2541 2106 
Q 2544 2222 2544 2253 
Q 2544 2597 2384 2738 
Q 2169 2928 1744 2928 
Q 1347 2928 1158 2789 
Q 969 2650 878 2297 
L 328 2372 
Q 403 2725 575 2942 
Q 747 3159 1072 3276 
Q 1397 3394 1825 3394 
Q 2250 3394 2515 3294 
Q 2781 3194 2906 3042 
Q 3031 2891 3081 2659 
Q 3109 2516 3109 2141 
L 3109 1391 
Q 3109 606 3145 398 
Q 3181 191 3288 0 
L 2700 0 
Q 2613 175 2588 409 
z
M 2541 1666 
Q 2234 1541 1622 1453 
Q 1275 1403 1131 1340 
Q 988 1278 909 1158 
Q 831 1038 831 891 
Q 831 666 1001 516 
Q 1172 366 1500 366 
Q 1825 366 2078 508 
Q 2331 650 2450 897 
Q 2541 1088 2541 1459 
L 2541 1666 
z
" transform="scale(0.015625)"/>
       <path id="ArialMT-64" d="M 2575 0 
L 2575 419 
Q 2259 -75 1647 -75 
Q 1250 -75 917 144 
Q 584 363 401 755 
Q 219 1147 219 1656 
Q 219 2153 384 2558 
Q 550 2963 881 3178 
Q 1213 3394 1622 3394 
Q 1922 3394 2156 3267 
Q 2391 3141 2538 2938 
L 2538 4581 
L 3097 4581 
L 3097 0 
L 2575 0 
z
M 797 1656 
Q 797 1019 1065 703 
Q 1334 388 1700 388 
Q 2069 388 2326 689 
Q 2584 991 2584 1609 
Q 2584 2291 2321 2609 
Q 2059 2928 1675 2928 
Q 1300 2928 1048 2622 
Q 797 2316 797 1656 
z
" transform="scale(0.015625)"/>
       <path id="ArialMT-76" d="M 1344 0 
L 81 3319 
L 675 3319 
L 1388 1331 
Q 1503 1009 1600 663 
Q 1675 925 1809 1294 
L 2547 3319 
L 3125 3319 
L 1869 0 
L 1344 0 
z
" transform="scale(0.015625)"/>
      </defs>
      <use xlink:href="#ArialMT-50"/>
      <use xlink:href="#ArialMT-6f" x="66.699219"/>
      <use xlink:href="#ArialMT-72" x="122.314453"/>
      <use xlink:href="#ArialMT-74" x="155.615234"/>
      <use xlink:href="#ArialMT-66" x="183.398438"/>
      <use xlink:href="#ArialMT-6f" x="211.181641"/>
      <use xlink:href="#ArialMT-6c" x="266.796875"/>
      <use xlink:href="#ArialMT-69" x="289.013672"/>
      <use xlink:href="#ArialMT-6f" x="311.230469"/>
      <use xlink:href="#ArialMT-20" x="366.845703"/>
      <use xlink:href="#ArialMT-73" x="394.628906"/>
      <use xlink:href="#ArialMT-74" x="444.628906"/>
      <use xlink:href="#ArialMT-61" x="472.412109"/>
      <use xlink:href="#ArialMT-6e" x="528.027344"/>
      <use xlink:href="#ArialMT-64" x="583.642578"/>
      <use xlink:href="#ArialMT-61" x="639.257812"/>
      <use xlink:href="#ArialMT-72" x="694.873047"/>
      <use xlink:href="#ArialMT-64" x="728.173828"/>
      <use xlink:href="#ArialMT-20" x="783.789062"/>
      <use xlink:href="#ArialMT-64" x="811.572266"/>
      <use xlink:href="#ArialMT-65" x="867.1875"/>
      <use xlink:href="#ArialMT-76" x="922.802734"/>
      <use xlink:href="#ArialMT-69" x="972.802734"/>
      <use xlink:href="#ArialMT-61" x="995.019531"/>
      <use xlink:href="#ArialMT-74" x="1050.634766"/>
      <use xlink:href="#ArialMT-69" x="1078.417969"/>
      <use xlink:href="#ArialMT-6f" x="1100.634766"/>
      <use xlink:href="#ArialMT-6e" x="1156.25"/>
     </g>
    </g>
   </g>
   <g id="PolyCollection_1">
    <defs>
     <path id="m4d2db8172c" d="M 51.520313 -306.650438 
L 51.520313 -185.439178 
L 68.709278 -185.439178 
L 85.898244 -185.439178 
L 103.087209 -185.439178 
L 120.276175 -185.439178 
L 137.46514 -185.439178 
L 154.654106 -185.439178 
L 171.843071 -185.439178 
L 189.032037 -185.439178 
L 206.221002 -185.439178 
L 223.409968 -185.439178 
L 240.598933 -185.439178 
L 257.787899 -185.439178 
L 274.976864 -185.439178 
L 292.16583 -185.439178 
L 309.354795 -185.439178 
L 326.543761 -185.439178 
L 343.732726 -185.439178 
L 360.921692 -185.439178 
L 378.110657 -185.439178 
L 395.299623 -185.439178 
L 412.488588 -185.439178 
L 429.677554 -185.439178 
L 446.866519 -185.439178 
L 464.055485 -185.439178 
L 481.24445 -185.439178 
L 498.433416 -185.439178 
L 515.622381 -185.439178 
L 532.811347 -185.439178 
L 550.000313 -185.439178 
L 550.000313 -191.040826 
L 550.000313 -191.040826 
L 532.811347 -191.230318 
L 515.622381 -191.433085 
L 498.433416 -191.650572 
L 481.24445 -191.884444 
L 464.055485 -192.136625 
L 446.866519 -192.409354 
L 429.677554 -192.705252 
L 412.488588 -193.027402 
L 395.299623 -193.379464 
L 378.110657 -193.76581 
L 360.921692 -194.191706 
L 343.732726 -194.663561 
L 326.543761 -195.189245 
L 309.354795 -195.778538 
L 292.16583 -196.443743 
L 274.976864 -197.200559 
L 257.787899 -198.069344 
L 240.598933 -199.076981 
L 223.409968 -200.259724 
L 206.221002 -201.66769 
L 189.032037 -203.372194 
L 171.843071 -205.478337 
L 154.654106 -208.147785 
L 137.46514 -211.642985 
L 120.276175 -216.420853 
L 103.087209 -223.356069 
L 85.898244 -234.369425 
L 68.709278 -254.718558 
L 51.520313 -306.650438 
z
" style="stroke: #00356b; stroke-opacity: 0.14"/>
    </defs>
    <g clip-path="url(#pf099ae3453)">
     <use xlink:href="#m4d2db8172c" x="0" y="347.923125" style="fill: #00356b; fill-opacity: 0.14; stroke: #00356b; stroke-opacity: 0.14"/>
    </g>
   </g>
   <g id="line2d_25">
    <path d="M 51.520313 41.272687 
L 68.709278 93.204567 
L 85.898244 113.5537 
L 103.087209 124.567056 
L 120.276175 131.502272 
L 137.46514 136.28014 
L 154.654106 139.77534 
L 171.843071 142.444788 
L 189.032037 144.550931 
L 206.221002 146.255435 
L 223.409968 147.663401 
L 240.598933 148.846144 
L 257.787899 149.853781 
L 274.976864 150.722566 
L 292.16583 151.479382 
L 309.354795 152.144587 
L 326.543761 152.73388 
L 343.732726 153.259564 
L 360.921692 153.731419 
L 378.110657 154.157315 
L 395.299623 154.543661 
L 412.488588 154.895723 
L 429.677554 155.217873 
L 446.866519 155.513771 
L 464.055485 155.7865 
L 481.24445 156.038681 
L 498.433416 156.272553 
L 515.622381 156.49004 
L 532.811347 156.692807 
L 550.000313 156.882299 
" clip-path="url(#pf099ae3453)" style="fill: none; stroke: #00356b; stroke-width: 2.2; stroke-linecap: round"/>
    <defs>
     <path id="m4c16ce9b1e" d="M 0 2.25 
C 0.596707 2.25 1.169055 2.012926 1.59099 1.59099 
C 2.012926 1.169055 2.25 0.596707 2.25 0 
C 2.25 -0.596707 2.012926 -1.169055 1.59099 -1.59099 
C 1.169055 -2.012926 0.596707 -2.25 0 -2.25 
C -0.596707 -2.25 -1.169055 -2.012926 -1.59099 -1.59099 
C -2.012926 -1.169055 -2.25 -0.596707 -2.25 0 
C -2.25 0.596707 -2.012926 1.169055 -1.59099 1.59099 
C -1.169055 2.012926 -0.596707 2.25 0 2.25 
z
" style="stroke: #00356b"/>
    </defs>
    <g clip-path="url(#pf099ae3453)">
     <use xlink:href="#m4c16ce9b1e" x="51.520313" y="41.272687" style="fill: #00356b; stroke: #00356b"/>
     <use xlink:href="#m4c16ce9b1e" x="68.709278" y="93.204567" style="fill: #00356b; stroke: #00356b"/>
     <use xlink:href="#m4c16ce9b1e" x="85.898244" y="113.5537" style="fill: #00356b; stroke: #00356b"/>
     <use xlink:href="#m4c16ce9b1e" x="103.087209" y="124.567056" style="fill: #00356b; stroke: #00356b"/>
     <use xlink:href="#m4c16ce9b1e" x="120.276175" y="131.502272" style="fill: #00356b; stroke: #00356b"/>
     <use xlink:href="#m4c16ce9b1e" x="137.46514" y="136.28014" style="fill: #00356b; stroke: #00356b"/>
     <use xlink:href="#m4c16ce9b1e" x="154.654106" y="139.77534" style="fill: #00356b; stroke: #00356b"/>
     <use xlink:href="#m4c16ce9b1e" x="171.843071" y="142.444788" style="fill: #00356b; stroke: #00356b"/>
     <use xlink:href="#m4c16ce9b1e" x="189.032037" y="144.550931" style="fill: #00356b; stroke: #00356b"/>
     <use xlink:href="#m4c16ce9b1e" x="206.221002" y="146.255435" style="fill: #00356b; stroke: #00356b"/>
     <use xlink:href="#m4c16ce9b1e" x="223.409968" y="147.663401" style="fill: #00356b; stroke: #00356b"/>
     <use xlink:href="#m4c16ce9b1e" x="240.598933" y="148.846144" style="fill: #00356b; stroke: #00356b"/>
     <use xlink:href="#m4c16ce9b1e" x="257.787899" y="149.853781" style="fill: #00356b; stroke: #00356b"/>
     <use xlink:href="#m4c16ce9b1e" x="274.976864" y="150.722566" style="fill: #00356b; stroke: #00356b"/>
     <use xlink:href="#m4c16ce9b1e" x="292.16583" y="151.479382" style="fill: #00356b; stroke: #00356b"/>
     <use xlink:href="#m4c16ce9b1e" x="309.354795" y="152.144587" style="fill: #00356b; stroke: #00356b"/>
     <use xlink:href="#m4c16ce9b1e" x="326.543761" y="152.73388" style="fill: #00356b; stroke: #00356b"/>
     <use xlink:href="#m4c16ce9b1e" x="343.732726" y="153.259564" style="fill: #00356b; stroke: #00356b"/>
     <use xlink:href="#m4c16ce9b1e" x="360.921692" y="153.731419" style="fill: #00356b; stroke: #00356b"/>
     <use xlink:href="#m4c16ce9b1e" x="378.110657" y="154.157315" style="fill: #00356b; stroke: #00356b"/>
     <use xlink:href="#m4c16ce9b1e" x="395.299623" y="154.543661" style="fill: #00356b; stroke: #00356b"/>
     <use xlink:href="#m4c16ce9b1e" x="412.488588" y="154.895723" style="fill: #00356b; stroke: #00356b"/>
     <use xlink:href="#m4c16ce9b1e" x="429.677554" y="155.217873" style="fill: #00356b; stroke: #00356b"/>
     <use xlink:href="#m4c16ce9b1e" x="446.866519" y="155.513771" style="fill: #00356b; stroke: #00356b"/>
     <use xlink:href="#m4c16ce9b1e" x="464.055485" y="155.7865" style="fill: #00356b; stroke: #00356b"/>
     <use xlink:href="#m4c16ce9b1e" x="481.24445" y="156.038681" style="fill: #00356b; stroke: #00356b"/>
     <use xlink:href="#m4c16ce9b1e" x="498.433416" y="156.272553" style="fill: #00356b; stroke: #00356b"/>
     <use xlink:href="#m4c16ce9b1e" x="515.622381" y="156.49004" style="fill: #00356b; stroke: #00356b"/>
     <use xlink:href="#m4c16ce9b1e" x="532.811347" y="156.692807" style="fill: #00356b; stroke: #00356b"/>
     <use xlink:href="#m4c16ce9b1e" x="550.000313" y="156.882299" style="fill: #00356b; stroke: #00356b"/>
    </g>
   </g>
   <g id="line2d_26">
    <path d="M 51.520313 162.483947 
L 550.000313 162.483947 
" clip-path="url(#pf099ae3453)" style="fill: none; stroke-dasharray: 6.66,2.88; stroke-dashoffset: 0; stroke: #bd5319; stroke-width: 1.8"/>
   </g>
   <g id="patch_3">
    <path d="M 51.520313 309.274687 
L 51.520313 11.494687 
" style="fill: none; stroke: #cccccc; stroke-linejoin: miter; stroke-linecap: square"/>
   </g>
   <g id="patch_4">
    <path d="M 51.520313 309.274687 
L 550.000313 309.274687 
" style="fill: none; stroke: #cccccc; stroke-linejoin: miter; stroke-linecap: square"/>
   </g>
   <g id="text_15">
    <!-- idiosyncratic risk -->
    <g style="fill: #00356b" transform="translate(246.324033 135.537214) scale(0.125 -0.125)">
     <defs>
      <path id="ArialMT-79" d="M 397 -1278 
L 334 -750 
Q 519 -800 656 -800 
Q 844 -800 956 -737 
Q 1069 -675 1141 -563 
Q 1194 -478 1313 -144 
Q 1328 -97 1363 -6 
L 103 3319 
L 709 3319 
L 1400 1397 
Q 1534 1031 1641 628 
Q 1738 1016 1872 1384 
L 2581 3319 
L 3144 3319 
L 1881 -56 
Q 1678 -603 1566 -809 
Q 1416 -1088 1222 -1217 
Q 1028 -1347 759 -1347 
Q 597 -1347 397 -1278 
z
" transform="scale(0.015625)"/>
     </defs>
     <use xlink:href="#ArialMT-69"/>
     <use xlink:href="#ArialMT-64" x="22.216797"/>
     <use xlink:href="#ArialMT-69" x="77.832031"/>
     <use xlink:href="#ArialMT-6f" x="100.048828"/>
     <use xlink:href="#ArialMT-73" x="155.664062"/>
     <use xlink:href="#ArialMT-79" x="205.664062"/>
     <use xlink:href="#ArialMT-6e" x="255.664062"/>
     <use xlink:href="#ArialMT-63" x="311.279297"/>
     <use xlink:href="#ArialMT-72" x="361.279297"/>
     <use xlink:href="#ArialMT-61" x="394.580078"/>
     <use xlink:href="#ArialMT-74" x="450.195312"/>
     <use xlink:href="#ArialMT-69" x="477.978516"/>
     <use xlink:href="#ArialMT-63" x="500.195312"/>
     <use xlink:href="#ArialMT-20" x="550.195312"/>
     <use xlink:href="#ArialMT-72" x="577.978516"/>
     <use xlink:href="#ArialMT-69" x="611.279297"/>
     <use xlink:href="#ArialMT-73" x="633.496094"/>
     <use xlink:href="#ArialMT-6b" x="683.496094"/>
    </g>
    <!-- (diversified away — the residual $e_i$) -->
    <g style="fill: #00356b" transform="translate(194.47833 149.118074) scale(0.125 -0.125)">
     <defs>
      <path id="ArialMT-28" d="M 1497 -1347 
Q 1031 -759 709 28 
Q 388 816 388 1659 
Q 388 2403 628 3084 
Q 909 3875 1497 4659 
L 1900 4659 
Q 1522 4009 1400 3731 
Q 1209 3300 1100 2831 
Q 966 2247 966 1656 
Q 966 153 1900 -1347 
L 1497 -1347 
z
" transform="scale(0.015625)"/>
      <path id="ArialMT-77" d="M 1034 0 
L 19 3319 
L 600 3319 
L 1128 1403 
L 1325 691 
Q 1338 744 1497 1375 
L 2025 3319 
L 2603 3319 
L 3100 1394 
L 3266 759 
L 3456 1400 
L 4025 3319 
L 4572 3319 
L 3534 0 
L 2950 0 
L 2422 1988 
L 2294 2553 
L 1622 0 
L 1034 0 
z
" transform="scale(0.015625)"/>
      <path id="DejaVuSansDisplay-2014" d="M 313 1978 
L 6088 1978 
L 6088 1528 
L 313 1528 
L 313 1978 
z
" transform="scale(0.015625)"/>
      <path id="DejaVuSans-Oblique-65" d="M 3078 2063 
Q 3088 2113 3092 2166 
Q 3097 2219 3097 2272 
Q 3097 2653 2873 2875 
Q 2650 3097 2266 3097 
Q 1838 3097 1509 2826 
Q 1181 2556 1013 2059 
L 3078 2063 
z
M 3578 1613 
L 903 1613 
Q 884 1494 878 1425 
Q 872 1356 872 1306 
Q 872 872 1139 634 
Q 1406 397 1894 397 
Q 2269 397 2603 481 
Q 2938 566 3225 728 
L 3116 159 
Q 2806 34 2476 -28 
Q 2147 -91 1806 -91 
Q 1078 -91 686 257 
Q 294 606 294 1247 
Q 294 1794 489 2264 
Q 684 2734 1063 3103 
Q 1306 3334 1642 3459 
Q 1978 3584 2356 3584 
Q 2950 3584 3301 3228 
Q 3653 2872 3653 2272 
Q 3653 2128 3634 1964 
Q 3616 1800 3578 1613 
z
" transform="scale(0.015625)"/>
      <path id="DejaVuSans-Oblique-69" d="M 1172 4863 
L 1747 4863 
L 1606 4134 
L 1031 4134 
L 1172 4863 
z
M 909 3500 
L 1484 3500 
L 800 0 
L 225 0 
L 909 3500 
z
" transform="scale(0.015625)"/>
      <path id="ArialMT-29" d="M 791 -1347 
L 388 -1347 
Q 1322 153 1322 1656 
Q 1322 2244 1188 2822 
Q 1081 3291 891 3722 
Q 769 4003 388 4659 
L 791 4659 
Q 1378 3875 1659 3084 
Q 1900 2403 1900 1659 
Q 1900 816 1576 28 
Q 1253 -759 791 -1347 
z
" transform="scale(0.015625)"/>
     </defs>
     <use xlink:href="#ArialMT-28" transform="translate(0 0.203125)"/>
     <use xlink:href="#ArialMT-64" transform="translate(33.300781 0.203125)"/>
     <use xlink:href="#ArialMT-69" transform="translate(88.916016 0.203125)"/>
     <use xlink:href="#ArialMT-76" transform="translate(111.132812 0.203125)"/>
     <use xlink:href="#ArialMT-65" transform="translate(161.132812 0.203125)"/>
     <use xlink:href="#ArialMT-72" transform="translate(216.748047 0.203125)"/>
     <use xlink:href="#ArialMT-73" transform="translate(250.048828 0.203125)"/>
     <use xlink:href="#ArialMT-69" transform="translate(300.048828 0.203125)"/>
     <use xlink:href="#ArialMT-66" transform="translate(322.265625 0.203125)"/>
     <use xlink:href="#ArialMT-69" transform="translate(350.048828 0.203125)"/>
     <use xlink:href="#ArialMT-65" transform="translate(372.265625 0.203125)"/>
     <use xlink:href="#ArialMT-64" transform="translate(427.880859 0.203125)"/>
     <use xlink:href="#ArialMT-20" transform="translate(483.496094 0.203125)"/>
     <use xlink:href="#ArialMT-61" transform="translate(511.279297 0.203125)"/>
     <use xlink:href="#ArialMT-77" transform="translate(566.894531 0.203125)"/>
     <use xlink:href="#ArialMT-61" transform="translate(639.111328 0.203125)"/>
     <use xlink:href="#ArialMT-79" transform="translate(694.726562 0.203125)"/>
     <use xlink:href="#ArialMT-20" transform="translate(744.726562 0.203125)"/>
     <use xlink:href="#DejaVuSansDisplay-2014" transform="translate(772.509766 0.203125)"/>
     <use xlink:href="#ArialMT-20" transform="translate(872.509766 0.203125)"/>
     <use xlink:href="#ArialMT-74" transform="translate(900.292969 0.203125)"/>
     <use xlink:href="#ArialMT-68" transform="translate(928.076172 0.203125)"/>
     <use xlink:href="#ArialMT-65" transform="translate(983.691406 0.203125)"/>
     <use xlink:href="#ArialMT-20" transform="translate(1039.306641 0.203125)"/>
     <use xlink:href="#ArialMT-72" transform="translate(1067.089844 0.203125)"/>
     <use xlink:href="#ArialMT-65" transform="translate(1100.390625 0.203125)"/>
     <use xlink:href="#ArialMT-73" transform="translate(1156.005859 0.203125)"/>
     <use xlink:href="#ArialMT-69" transform="translate(1206.005859 0.203125)"/>
     <use xlink:href="#ArialMT-64" transform="translate(1228.222656 0.203125)"/>
     <use xlink:href="#ArialMT-75" transform="translate(1283.837891 0.203125)"/>
     <use xlink:href="#ArialMT-61" transform="translate(1339.453125 0.203125)"/>
     <use xlink:href="#ArialMT-6c" transform="translate(1395.068359 0.203125)"/>
     <use xlink:href="#ArialMT-20" transform="translate(1417.285156 0.203125)"/>
     <use xlink:href="#DejaVuSans-Oblique-65" transform="translate(1445.068359 0.203125)"/>
     <use xlink:href="#DejaVuSans-Oblique-69" transform="translate(1506.591797 -16.203125) scale(0.7)"/>
     <use xlink:href="#ArialMT-29" transform="translate(1528.774414 0.203125)"/>
    </g>
   </g>
   <g id="text_16">
    <!-- systematic risk = beta risk -->
    <g style="fill: #bd5319" transform="translate(237.637998 175.733756) scale(0.125 -0.125)">
     <defs>
      <path id="ArialMT-3d" d="M 3381 2694 
L 356 2694 
L 356 3219 
L 3381 3219 
L 3381 2694 
z
M 3381 1303 
L 356 1303 
L 356 1828 
L 3381 1828 
L 3381 1303 
z
" transform="scale(0.015625)"/>
     </defs>
     <use xlink:href="#ArialMT-73"/>
     <use xlink:href="#ArialMT-79" x="50"/>
     <use xlink:href="#ArialMT-73" x="100"/>
     <use xlink:href="#ArialMT-74" x="150"/>
     <use xlink:href="#ArialMT-65" x="177.783203"/>
     <use xlink:href="#ArialMT-6d" x="233.398438"/>
     <use xlink:href="#ArialMT-61" x="316.699219"/>
     <use xlink:href="#ArialMT-74" x="372.314453"/>
     <use xlink:href="#ArialMT-69" x="400.097656"/>
     <use xlink:href="#ArialMT-63" x="422.314453"/>
     <use xlink:href="#ArialMT-20" x="472.314453"/>
     <use xlink:href="#ArialMT-72" x="500.097656"/>
     <use xlink:href="#ArialMT-69" x="533.398438"/>
     <use xlink:href="#ArialMT-73" x="555.615234"/>
     <use xlink:href="#ArialMT-6b" x="605.615234"/>
     <use xlink:href="#ArialMT-20" x="655.615234"/>
     <use xlink:href="#ArialMT-3d" x="683.398438"/>
     <use xlink:href="#ArialMT-20" x="741.796875"/>
     <use xlink:href="#ArialMT-62" x="769.580078"/>
     <use xlink:href="#ArialMT-65" x="825.195312"/>
     <use xlink:href="#ArialMT-74" x="880.810547"/>
     <use xlink:href="#ArialMT-61" x="908.59375"/>
     <use xlink:href="#ArialMT-20" x="964.208984"/>
     <use xlink:href="#ArialMT-72" x="991.992188"/>
     <use xlink:href="#ArialMT-69" x="1025.292969"/>
     <use xlink:href="#ArialMT-73" x="1047.509766"/>
     <use xlink:href="#ArialMT-6b" x="1097.509766"/>
    </g>
    <!-- (cannot be diversified away) -->
    <g style="fill: #bd5319" transform="translate(231.543272 189.284147) scale(0.125 -0.125)">
     <use xlink:href="#ArialMT-28"/>
     <use xlink:href="#ArialMT-63" x="33.300781"/>
     <use xlink:href="#ArialMT-61" x="83.300781"/>
     <use xlink:href="#ArialMT-6e" x="138.916016"/>
     <use xlink:href="#ArialMT-6e" x="194.53125"/>
     <use xlink:href="#ArialMT-6f" x="250.146484"/>
     <use xlink:href="#ArialMT-74" x="305.761719"/>
     <use xlink:href="#ArialMT-20" x="333.544922"/>
     <use xlink:href="#ArialMT-62" x="361.328125"/>
     <use xlink:href="#ArialMT-65" x="416.943359"/>
     <use xlink:href="#ArialMT-20" x="472.558594"/>
     <use xlink:href="#ArialMT-64" x="500.341797"/>
     <use xlink:href="#ArialMT-69" x="555.957031"/>
     <use xlink:href="#ArialMT-76" x="578.173828"/>
     <use xlink:href="#ArialMT-65" x="628.173828"/>
     <use xlink:href="#ArialMT-72" x="683.789062"/>
     <use xlink:href="#ArialMT-73" x="717.089844"/>
     <use xlink:href="#ArialMT-69" x="767.089844"/>
     <use xlink:href="#ArialMT-66" x="789.306641"/>
     <use xlink:href="#ArialMT-69" x="817.089844"/>
     <use xlink:href="#ArialMT-65" x="839.306641"/>
     <use xlink:href="#ArialMT-64" x="894.921875"/>
     <use xlink:href="#ArialMT-20" x="950.537109"/>
     <use xlink:href="#ArialMT-61" x="978.320312"/>
     <use xlink:href="#ArialMT-77" x="1033.935547"/>
     <use xlink:href="#ArialMT-61" x="1106.152344"/>
     <use xlink:href="#ArialMT-79" x="1161.767578"/>
     <use xlink:href="#ArialMT-29" x="1211.767578"/>
    </g>
   </g>
  </g>
 </g>
 <defs>
  <clipPath id="pf099ae3453">
   <rect x="51.520313" y="11.494687" width="498.48" height="297.78"/>
  </clipPath>
 </defs>
</svg>
