<svg xmlns="http://www.w3.org/2000/svg" viewBox="0 0 760 470" font-family="Georgia, 'Times New Roman', serif">
<defs><marker id="arw" markerWidth="10" markerHeight="10" refX="7" refY="3" orient="auto"><path d="M0,0 L7,3 L0,6 Z" fill="#26221a"/></marker></defs>
<rect width="760" height="470" fill="#fbf7ec"/>
<!-- axes -->
<line x1="92" y1="430" x2="730" y2="430" stroke="#26221a" stroke-width="1.6" marker-end="url(#arw)"/>
<line x1="92" y1="430" x2="92" y2="25" stroke="#26221a" stroke-width="1.6" marker-end="url(#arw)"/>
<text x="396" y="462" text-anchor="middle" font-size="15" font-style="italic" fill="#26221a">Standard deviation (risk), &#963;</text>
<text x="24" y="235" text-anchor="middle" font-size="15" font-style="italic" fill="#26221a" transform="rotate(-90 24 235)">Expected return</text>
<!-- feasible set -->
<polygon points="413.2,440.5 405.6,436.3 398.0,432.1 390.5,427.9 383.0,423.7 375.6,419.5 368.3,415.2 361.1,411.0 353.9,406.8 346.9,402.6 340.0,398.4 333.1,394.2 326.4,389.9 319.9,385.7 313.5,381.5 307.2,377.3 301.1,373.1 295.3,368.9 289.6,364.6 284.1,360.4 278.9,356.2 274.0,352.0 269.4,347.8 265.0,343.6 261.1,339.4 257.4,335.1 254.2,330.9 251.4,326.7 249.0,322.5 247.0,318.3 245.6,314.1 244.6,309.8 244.1,305.6 553.1,92.7 544.9,96.9 536.7,101.1 528.5,105.4 520.4,109.6 512.3,113.8 504.2,118.0 496.1,122.2 488.0,126.4 480.0,130.6 472.0,134.9 464.0,139.1 456.1,143.3 448.2,147.5 440.4,151.7 432.5,155.9 424.8,160.2 417.1,164.4 409.4,168.6 401.8,172.8 394.2,177.0 386.7,181.2 379.3,185.5 371.9,189.7 364.7,193.9 357.5,198.1 350.4,202.3 343.4,206.5 336.5,210.8 329.8,215.0 323.1,219.2 316.7,223.4 310.3,227.6 304.2,231.8 298.2,236.1 292.4,240.3 286.8,244.5 281.5,248.7 276.4,252.9 271.7,257.1 267.2,261.4 263.0,265.6 259.2,269.8 255.8,274.0 252.7,278.2 250.1,282.4 247.9,286.6 246.2,290.9 245.0,295.1 244.2,299.3 244.0,303.5" fill="#1a5276" fill-opacity="0.09" stroke="none"/>
<text x="472" y="314" font-size="15" font-style="italic" fill="#5c5344">The feasible set</text>
<text x="472" y="332" font-size="12.5" fill="#8a7f6c">(all attainable portfolios)</text>
<!-- dominated (lower) frontier -->
<polyline points="413.2,440.5 405.6,436.3 398.0,432.1 390.5,427.9 383.0,423.7 375.6,419.5 368.3,415.2 361.1,411.0 353.9,406.8 346.9,402.6 340.0,398.4 333.1,394.2 326.4,389.9 319.9,385.7 313.5,381.5 307.2,377.3 301.1,373.1 295.3,368.9 289.6,364.6 284.1,360.4 278.9,356.2 274.0,352.0 269.4,347.8 265.0,343.6 261.1,339.4 257.4,335.1 254.2,330.9 251.4,326.7 249.0,322.5 247.0,318.3 245.6,314.1 244.6,309.8 244.1,305.6" fill="none" stroke="#9a8f78" stroke-width="2" stroke-dasharray="5 4"/>
<text x="333" y="392" font-size="13" font-style="italic" fill="#9a8f78">dominated frontier</text>
<!-- efficient frontier (upper) -->
<polyline points="244.0,303.5 244.2,299.3 245.0,295.1 246.2,290.9 247.9,286.6 250.1,282.4 252.7,278.2 255.8,274.0 259.2,269.8 263.0,265.6 267.2,261.4 271.7,257.1 276.4,252.9 281.5,248.7 286.8,244.5 292.4,240.3 298.2,236.1 304.2,231.8 310.3,227.6 316.7,223.4 323.1,219.2 329.8,215.0 336.5,210.8 343.4,206.5 350.4,202.3 357.5,198.1 364.7,193.9 371.9,189.7 379.3,185.5 386.7,181.2 394.2,177.0 401.8,172.8 409.4,168.6 417.1,164.4 424.8,160.2 432.5,155.9 440.4,151.7 448.2,147.5 456.1,143.3 464.0,139.1 472.0,134.9 480.0,130.6 488.0,126.4 496.1,122.2 504.2,118.0 512.3,113.8 520.4,109.6 528.5,105.4 536.7,101.1 544.9,96.9 553.1,92.7" fill="none" stroke="#1a5276" stroke-width="3.4"/>
<text x="368" y="178" text-anchor="end" font-size="15" font-weight="700" fill="#1a5276">Efficient frontier</text>
<!-- Capital Market Line -->
<line x1="92.0" y1="366.8" x2="662.0" y2="2.8" stroke="#7a1414" stroke-width="2.6"/>
<text x="614" y="25" text-anchor="end" font-size="14.5" font-weight="700" fill="#7a1414">Capital Market Line</text>
<!-- riskless asset -->
<circle cx="92.0" cy="366.8" r="5" fill="#7a1414" stroke="#fff" stroke-width="1.5"/>
<text x="102.0" y="371.8" text-anchor="start" font-size="14" font-weight="600" fill="#7a1414">Riskless asset &#8202;R&#8202;<tspan baseline-shift="sub" font-size="11">f</tspan></text>
<!-- tangency portfolio M -->
<circle cx="324.8" cy="218.1" r="6" fill="#7a1414" stroke="#fff" stroke-width="1.5"/>
<text x="332.8" y="210.1" text-anchor="start" font-size="15" font-weight="700" fill="#7a1414">Tangency portfolio&#8202; M</text>
<!-- minimum variance -->
<circle cx="244.0" cy="303.5" r="5" fill="#1a5276" stroke="#fff" stroke-width="1.5"/>
<text x="236.0" y="295.5" text-anchor="end" font-size="14" font-weight="600" fill="#1a5276">Minimum-variance portfolio</text>
<!-- highest return asset -->
<circle cx="553.1" cy="92.7" r="5" fill="#1a5276" stroke="#fff" stroke-width="1.5"/>
<text x="547.1" y="84.7" text-anchor="end" font-size="14" font-weight="600" fill="#1a5276">Highest-return asset</text>
</svg>