<?xml version="1.0" encoding="utf-8" standalone="no"?>
<!DOCTYPE svg PUBLIC "-//W3C//DTD SVG 1.1//EN"
  "http://www.w3.org/Graphics/SVG/1.1/DTD/svg11.dtd">
<svg xmlns:xlink="http://www.w3.org/1999/xlink" width="566.705pt" height="322.234219pt" viewBox="0 0 566.705 322.234219" xmlns="http://www.w3.org/2000/svg" version="1.1">
 <metadata>
  <rdf:RDF xmlns:dc="http://purl.org/dc/elements/1.1/" xmlns:cc="http://creativecommons.org/ns#" xmlns:rdf="http://www.w3.org/1999/02/22-rdf-syntax-ns#">
   <cc:Work>
    <dc:type rdf:resource="http://purl.org/dc/dcmitype/StillImage"/>
    <dc:date>2026-07-15T10:39:03.477348</dc:date>
    <dc:format>image/svg+xml</dc:format>
    <dc:creator>
     <cc:Agent>
      <dc:title>Matplotlib v3.9.2, https://matplotlib.org/</dc:title>
     </cc:Agent>
    </dc:creator>
   </cc:Work>
  </rdf:RDF>
 </metadata>
 <defs>
  <style type="text/css">*{stroke-linejoin: round; stroke-linecap: butt}</style>
 </defs>
 <g id="figure_1">
  <g id="patch_1">
   <path d="M 0 322.234219 
L 566.705 322.234219 
L 566.705 0 
L 0 0 
z
" style="fill: #ffffff"/>
  </g>
  <g id="axes_1">
   <g id="patch_2">
    <path d="M 41.105 286.5 
L 559.505 286.5 
L 559.505 7.2 
L 41.105 7.2 
z
" style="fill: #ffffff"/>
   </g>
   <g id="matplotlib.axis_1">
    <g id="xtick_1">
     <g id="line2d_1">
      <path d="M 111.795909 286.5 
L 111.795909 7.2 
" clip-path="url(#pb2a2185d91)" style="fill: none; stroke: #cccccc; stroke-width: 0.8; stroke-linecap: round"/>
     </g>
     <g id="line2d_2"/>
     <g id="text_1">
      <!-- -40% -->
      <g style="fill: #262626" transform="translate(98.956847 297.873594) scale(0.11 -0.11)">
       <defs>
        <path id="ArialMT-2d" d="M 203 1375 
L 203 1941 
L 1931 1941 
L 1931 1375 
L 203 1375 
z
" transform="scale(0.015625)"/>
        <path id="ArialMT-34" d="M 2069 0 
L 2069 1097 
L 81 1097 
L 81 1613 
L 2172 4581 
L 2631 4581 
L 2631 1613 
L 3250 1613 
L 3250 1097 
L 2631 1097 
L 2631 0 
L 2069 0 
z
M 2069 1613 
L 2069 3678 
L 634 1613 
L 2069 1613 
z
" transform="scale(0.015625)"/>
        <path id="ArialMT-30" d="M 266 2259 
Q 266 3072 433 3567 
Q 600 4063 929 4331 
Q 1259 4600 1759 4600 
Q 2128 4600 2406 4451 
Q 2684 4303 2865 4023 
Q 3047 3744 3150 3342 
Q 3253 2941 3253 2259 
Q 3253 1453 3087 958 
Q 2922 463 2592 192 
Q 2263 -78 1759 -78 
Q 1097 -78 719 397 
Q 266 969 266 2259 
z
M 844 2259 
Q 844 1131 1108 757 
Q 1372 384 1759 384 
Q 2147 384 2411 759 
Q 2675 1134 2675 2259 
Q 2675 3391 2411 3762 
Q 2147 4134 1753 4134 
Q 1366 4134 1134 3806 
Q 844 3388 844 2259 
z
" transform="scale(0.015625)"/>
        <path id="ArialMT-25" d="M 372 3481 
Q 372 3972 619 4315 
Q 866 4659 1334 4659 
Q 1766 4659 2048 4351 
Q 2331 4044 2331 3447 
Q 2331 2866 2045 2552 
Q 1759 2238 1341 2238 
Q 925 2238 648 2547 
Q 372 2856 372 3481 
z
M 1350 4272 
Q 1141 4272 1002 4090 
Q 863 3909 863 3425 
Q 863 2984 1003 2804 
Q 1144 2625 1350 2625 
Q 1563 2625 1702 2806 
Q 1841 2988 1841 3469 
Q 1841 3913 1700 4092 
Q 1559 4272 1350 4272 
z
M 1353 -169 
L 3859 4659 
L 4316 4659 
L 1819 -169 
L 1353 -169 
z
M 3334 1075 
Q 3334 1569 3581 1911 
Q 3828 2253 4300 2253 
Q 4731 2253 5014 1945 
Q 5297 1638 5297 1041 
Q 5297 459 5011 145 
Q 4725 -169 4303 -169 
Q 3888 -169 3611 142 
Q 3334 453 3334 1075 
z
M 4316 1866 
Q 4103 1866 3964 1684 
Q 3825 1503 3825 1019 
Q 3825 581 3965 400 
Q 4106 219 4313 219 
Q 4528 219 4667 400 
Q 4806 581 4806 1063 
Q 4806 1506 4665 1686 
Q 4525 1866 4316 1866 
z
" transform="scale(0.015625)"/>
       </defs>
       <use xlink:href="#ArialMT-2d"/>
       <use xlink:href="#ArialMT-34" x="33.300781"/>
       <use xlink:href="#ArialMT-30" x="88.916016"/>
       <use xlink:href="#ArialMT-25" x="144.53125"/>
      </g>
     </g>
    </g>
    <g id="xtick_2">
     <g id="line2d_3">
      <path d="M 190.341364 286.5 
L 190.341364 7.2 
" clip-path="url(#pb2a2185d91)" style="fill: none; stroke: #cccccc; stroke-width: 0.8; stroke-linecap: round"/>
     </g>
     <g id="line2d_4"/>
     <g id="text_2">
      <!-- -20% -->
      <g style="fill: #262626" transform="translate(177.502301 297.873594) scale(0.11 -0.11)">
       <defs>
        <path id="ArialMT-32" d="M 3222 541 
L 3222 0 
L 194 0 
Q 188 203 259 391 
Q 375 700 629 1000 
Q 884 1300 1366 1694 
Q 2113 2306 2375 2664 
Q 2638 3022 2638 3341 
Q 2638 3675 2398 3904 
Q 2159 4134 1775 4134 
Q 1369 4134 1125 3890 
Q 881 3647 878 3216 
L 300 3275 
Q 359 3922 746 4261 
Q 1134 4600 1788 4600 
Q 2447 4600 2831 4234 
Q 3216 3869 3216 3328 
Q 3216 3053 3103 2787 
Q 2991 2522 2730 2228 
Q 2469 1934 1863 1422 
Q 1356 997 1212 845 
Q 1069 694 975 541 
L 3222 541 
z
" transform="scale(0.015625)"/>
       </defs>
       <use xlink:href="#ArialMT-2d"/>
       <use xlink:href="#ArialMT-32" x="33.300781"/>
       <use xlink:href="#ArialMT-30" x="88.916016"/>
       <use xlink:href="#ArialMT-25" x="144.53125"/>
      </g>
     </g>
    </g>
    <g id="xtick_3">
     <g id="line2d_5">
      <path d="M 268.886818 286.5 
L 268.886818 7.2 
" clip-path="url(#pb2a2185d91)" style="fill: none; stroke: #cccccc; stroke-width: 0.8; stroke-linecap: round"/>
     </g>
     <g id="line2d_6"/>
     <g id="text_3">
      <!-- 0% -->
      <g style="fill: #262626" transform="translate(260.937599 297.873594) scale(0.11 -0.11)">
       <use xlink:href="#ArialMT-30"/>
       <use xlink:href="#ArialMT-25" x="55.615234"/>
      </g>
     </g>
    </g>
    <g id="xtick_4">
     <g id="line2d_7">
      <path d="M 347.432273 286.5 
L 347.432273 7.2 
" clip-path="url(#pb2a2185d91)" style="fill: none; stroke: #cccccc; stroke-width: 0.8; stroke-linecap: round"/>
     </g>
     <g id="line2d_8"/>
     <g id="text_4">
      <!-- 20% -->
      <g style="fill: #262626" transform="translate(336.424538 297.873594) scale(0.11 -0.11)">
       <use xlink:href="#ArialMT-32"/>
       <use xlink:href="#ArialMT-30" x="55.615234"/>
       <use xlink:href="#ArialMT-25" x="111.230469"/>
      </g>
     </g>
    </g>
    <g id="xtick_5">
     <g id="line2d_9">
      <path d="M 425.977727 286.5 
L 425.977727 7.2 
" clip-path="url(#pb2a2185d91)" style="fill: none; stroke: #cccccc; stroke-width: 0.8; stroke-linecap: round"/>
     </g>
     <g id="line2d_10"/>
     <g id="text_5">
      <!-- 40% -->
      <g style="fill: #262626" transform="translate(414.969993 297.873594) scale(0.11 -0.11)">
       <use xlink:href="#ArialMT-34"/>
       <use xlink:href="#ArialMT-30" x="55.615234"/>
       <use xlink:href="#ArialMT-25" x="111.230469"/>
      </g>
     </g>
    </g>
    <g id="xtick_6">
     <g id="line2d_11">
      <path d="M 504.523182 286.5 
L 504.523182 7.2 
" clip-path="url(#pb2a2185d91)" style="fill: none; stroke: #cccccc; stroke-width: 0.8; stroke-linecap: round"/>
     </g>
     <g id="line2d_12"/>
     <g id="text_6">
      <!-- 60% -->
      <g style="fill: #262626" transform="translate(493.515447 297.873594) scale(0.11 -0.11)">
       <defs>
        <path id="ArialMT-36" d="M 3184 3459 
L 2625 3416 
Q 2550 3747 2413 3897 
Q 2184 4138 1850 4138 
Q 1581 4138 1378 3988 
Q 1113 3794 959 3422 
Q 806 3050 800 2363 
Q 1003 2672 1297 2822 
Q 1591 2972 1913 2972 
Q 2475 2972 2870 2558 
Q 3266 2144 3266 1488 
Q 3266 1056 3080 686 
Q 2894 316 2569 119 
Q 2244 -78 1831 -78 
Q 1128 -78 684 439 
Q 241 956 241 2144 
Q 241 3472 731 4075 
Q 1159 4600 1884 4600 
Q 2425 4600 2770 4297 
Q 3116 3994 3184 3459 
z
M 888 1484 
Q 888 1194 1011 928 
Q 1134 663 1356 523 
Q 1578 384 1822 384 
Q 2178 384 2434 671 
Q 2691 959 2691 1453 
Q 2691 1928 2437 2201 
Q 2184 2475 1800 2475 
Q 1419 2475 1153 2201 
Q 888 1928 888 1484 
z
" transform="scale(0.015625)"/>
       </defs>
       <use xlink:href="#ArialMT-36"/>
       <use xlink:href="#ArialMT-30" x="55.615234"/>
       <use xlink:href="#ArialMT-25" x="111.230469"/>
      </g>
     </g>
    </g>
    <g id="text_7">
     <!-- Portfolio return -->
     <g style="fill: #262626" transform="translate(260.95625 312.649219) scale(0.12 -0.12)">
      <defs>
       <path id="ArialMT-50" d="M 494 0 
L 494 4581 
L 2222 4581 
Q 2678 4581 2919 4538 
Q 3256 4481 3484 4323 
Q 3713 4166 3852 3881 
Q 3991 3597 3991 3256 
Q 3991 2672 3619 2267 
Q 3247 1863 2275 1863 
L 1100 1863 
L 1100 0 
L 494 0 
z
M 1100 2403 
L 2284 2403 
Q 2872 2403 3119 2622 
Q 3366 2841 3366 3238 
Q 3366 3525 3220 3729 
Q 3075 3934 2838 4000 
Q 2684 4041 2272 4041 
L 1100 4041 
L 1100 2403 
z
" transform="scale(0.015625)"/>
       <path id="ArialMT-6f" d="M 213 1659 
Q 213 2581 725 3025 
Q 1153 3394 1769 3394 
Q 2453 3394 2887 2945 
Q 3322 2497 3322 1706 
Q 3322 1066 3130 698 
Q 2938 331 2570 128 
Q 2203 -75 1769 -75 
Q 1072 -75 642 372 
Q 213 819 213 1659 
z
M 791 1659 
Q 791 1022 1069 705 
Q 1347 388 1769 388 
Q 2188 388 2466 706 
Q 2744 1025 2744 1678 
Q 2744 2294 2464 2611 
Q 2184 2928 1769 2928 
Q 1347 2928 1069 2612 
Q 791 2297 791 1659 
z
" transform="scale(0.015625)"/>
       <path id="ArialMT-72" d="M 416 0 
L 416 3319 
L 922 3319 
L 922 2816 
Q 1116 3169 1280 3281 
Q 1444 3394 1641 3394 
Q 1925 3394 2219 3213 
L 2025 2691 
Q 1819 2813 1613 2813 
Q 1428 2813 1281 2702 
Q 1134 2591 1072 2394 
Q 978 2094 978 1738 
L 978 0 
L 416 0 
z
" transform="scale(0.015625)"/>
       <path id="ArialMT-74" d="M 1650 503 
L 1731 6 
Q 1494 -44 1306 -44 
Q 1000 -44 831 53 
Q 663 150 594 308 
Q 525 466 525 972 
L 525 2881 
L 113 2881 
L 113 3319 
L 525 3319 
L 525 4141 
L 1084 4478 
L 1084 3319 
L 1650 3319 
L 1650 2881 
L 1084 2881 
L 1084 941 
Q 1084 700 1114 631 
Q 1144 563 1211 522 
Q 1278 481 1403 481 
Q 1497 481 1650 503 
z
" transform="scale(0.015625)"/>
       <path id="ArialMT-66" d="M 556 0 
L 556 2881 
L 59 2881 
L 59 3319 
L 556 3319 
L 556 3672 
Q 556 4006 616 4169 
Q 697 4388 901 4523 
Q 1106 4659 1475 4659 
Q 1713 4659 2000 4603 
L 1916 4113 
Q 1741 4144 1584 4144 
Q 1328 4144 1222 4034 
Q 1116 3925 1116 3625 
L 1116 3319 
L 1763 3319 
L 1763 2881 
L 1116 2881 
L 1116 0 
L 556 0 
z
" transform="scale(0.015625)"/>
       <path id="ArialMT-6c" d="M 409 0 
L 409 4581 
L 972 4581 
L 972 0 
L 409 0 
z
" transform="scale(0.015625)"/>
       <path id="ArialMT-69" d="M 425 3934 
L 425 4581 
L 988 4581 
L 988 3934 
L 425 3934 
z
M 425 0 
L 425 3319 
L 988 3319 
L 988 0 
L 425 0 
z
" transform="scale(0.015625)"/>
       <path id="ArialMT-20" transform="scale(0.015625)"/>
       <path id="ArialMT-65" d="M 2694 1069 
L 3275 997 
Q 3138 488 2766 206 
Q 2394 -75 1816 -75 
Q 1088 -75 661 373 
Q 234 822 234 1631 
Q 234 2469 665 2931 
Q 1097 3394 1784 3394 
Q 2450 3394 2872 2941 
Q 3294 2488 3294 1666 
Q 3294 1616 3291 1516 
L 816 1516 
Q 847 969 1125 678 
Q 1403 388 1819 388 
Q 2128 388 2347 550 
Q 2566 713 2694 1069 
z
M 847 1978 
L 2700 1978 
Q 2663 2397 2488 2606 
Q 2219 2931 1791 2931 
Q 1403 2931 1139 2672 
Q 875 2413 847 1978 
z
" transform="scale(0.015625)"/>
       <path id="ArialMT-75" d="M 2597 0 
L 2597 488 
Q 2209 -75 1544 -75 
Q 1250 -75 995 37 
Q 741 150 617 320 
Q 494 491 444 738 
Q 409 903 409 1263 
L 409 3319 
L 972 3319 
L 972 1478 
Q 972 1038 1006 884 
Q 1059 663 1231 536 
Q 1403 409 1656 409 
Q 1909 409 2131 539 
Q 2353 669 2445 892 
Q 2538 1116 2538 1541 
L 2538 3319 
L 3100 3319 
L 3100 0 
L 2597 0 
z
" transform="scale(0.015625)"/>
       <path id="ArialMT-6e" d="M 422 0 
L 422 3319 
L 928 3319 
L 928 2847 
Q 1294 3394 1984 3394 
Q 2284 3394 2536 3286 
Q 2788 3178 2913 3003 
Q 3038 2828 3088 2588 
Q 3119 2431 3119 2041 
L 3119 0 
L 2556 0 
L 2556 2019 
Q 2556 2363 2490 2533 
Q 2425 2703 2258 2804 
Q 2091 2906 1866 2906 
Q 1506 2906 1245 2678 
Q 984 2450 984 1813 
L 984 0 
L 422 0 
z
" transform="scale(0.015625)"/>
      </defs>
      <use xlink:href="#ArialMT-50"/>
      <use xlink:href="#ArialMT-6f" x="66.699219"/>
      <use xlink:href="#ArialMT-72" x="122.314453"/>
      <use xlink:href="#ArialMT-74" x="155.615234"/>
      <use xlink:href="#ArialMT-66" x="183.398438"/>
      <use xlink:href="#ArialMT-6f" x="211.181641"/>
      <use xlink:href="#ArialMT-6c" x="266.796875"/>
      <use xlink:href="#ArialMT-69" x="289.013672"/>
      <use xlink:href="#ArialMT-6f" x="311.230469"/>
      <use xlink:href="#ArialMT-20" x="366.845703"/>
      <use xlink:href="#ArialMT-72" x="394.628906"/>
      <use xlink:href="#ArialMT-65" x="427.929688"/>
      <use xlink:href="#ArialMT-74" x="483.544922"/>
      <use xlink:href="#ArialMT-75" x="511.328125"/>
      <use xlink:href="#ArialMT-72" x="566.943359"/>
      <use xlink:href="#ArialMT-6e" x="600.244141"/>
     </g>
    </g>
   </g>
   <g id="matplotlib.axis_2">
    <g id="ytick_1">
     <g id="line2d_13">
      <path d="M 41.105 286.5 
L 559.505 286.5 
" clip-path="url(#pb2a2185d91)" style="fill: none; stroke: #cccccc; stroke-width: 0.8; stroke-linecap: round"/>
     </g>
     <g id="line2d_14"/>
     <g id="text_8">
      <!-- 0.0 -->
      <g style="fill: #262626" transform="translate(22.315 290.436797) scale(0.11 -0.11)">
       <defs>
        <path id="ArialMT-2e" d="M 581 0 
L 581 641 
L 1222 641 
L 1222 0 
L 581 0 
z
" transform="scale(0.015625)"/>
       </defs>
       <use xlink:href="#ArialMT-30"/>
       <use xlink:href="#ArialMT-2e" x="55.615234"/>
       <use xlink:href="#ArialMT-30" x="83.398438"/>
      </g>
     </g>
    </g>
    <g id="ytick_2">
     <g id="line2d_15">
      <path d="M 41.105 236.491159 
L 559.505 236.491159 
" clip-path="url(#pb2a2185d91)" style="fill: none; stroke: #cccccc; stroke-width: 0.8; stroke-linecap: round"/>
     </g>
     <g id="line2d_16"/>
     <g id="text_9">
      <!-- 0.5 -->
      <g style="fill: #262626" transform="translate(22.315 240.427956) scale(0.11 -0.11)">
       <defs>
        <path id="ArialMT-35" d="M 266 1200 
L 856 1250 
Q 922 819 1161 601 
Q 1400 384 1738 384 
Q 2144 384 2425 690 
Q 2706 997 2706 1503 
Q 2706 1984 2436 2262 
Q 2166 2541 1728 2541 
Q 1456 2541 1237 2417 
Q 1019 2294 894 2097 
L 366 2166 
L 809 4519 
L 3088 4519 
L 3088 3981 
L 1259 3981 
L 1013 2750 
Q 1425 3038 1878 3038 
Q 2478 3038 2890 2622 
Q 3303 2206 3303 1553 
Q 3303 931 2941 478 
Q 2500 -78 1738 -78 
Q 1113 -78 717 272 
Q 322 622 266 1200 
z
" transform="scale(0.015625)"/>
       </defs>
       <use xlink:href="#ArialMT-30"/>
       <use xlink:href="#ArialMT-2e" x="55.615234"/>
       <use xlink:href="#ArialMT-35" x="83.398438"/>
      </g>
     </g>
    </g>
    <g id="ytick_3">
     <g id="line2d_17">
      <path d="M 41.105 186.482318 
L 559.505 186.482318 
" clip-path="url(#pb2a2185d91)" style="fill: none; stroke: #cccccc; stroke-width: 0.8; stroke-linecap: round"/>
     </g>
     <g id="line2d_18"/>
     <g id="text_10">
      <!-- 1.0 -->
      <g style="fill: #262626" transform="translate(22.315 190.419115) scale(0.11 -0.11)">
       <defs>
        <path id="ArialMT-31" d="M 2384 0 
L 1822 0 
L 1822 3584 
Q 1619 3391 1289 3197 
Q 959 3003 697 2906 
L 697 3450 
Q 1169 3672 1522 3987 
Q 1875 4303 2022 4600 
L 2384 4600 
L 2384 0 
z
" transform="scale(0.015625)"/>
       </defs>
       <use xlink:href="#ArialMT-31"/>
       <use xlink:href="#ArialMT-2e" x="55.615234"/>
       <use xlink:href="#ArialMT-30" x="83.398438"/>
      </g>
     </g>
    </g>
    <g id="ytick_4">
     <g id="line2d_19">
      <path d="M 41.105 136.473478 
L 559.505 136.473478 
" clip-path="url(#pb2a2185d91)" style="fill: none; stroke: #cccccc; stroke-width: 0.8; stroke-linecap: round"/>
     </g>
     <g id="line2d_20"/>
     <g id="text_11">
      <!-- 1.5 -->
      <g style="fill: #262626" transform="translate(22.315 140.410275) scale(0.11 -0.11)">
       <use xlink:href="#ArialMT-31"/>
       <use xlink:href="#ArialMT-2e" x="55.615234"/>
       <use xlink:href="#ArialMT-35" x="83.398438"/>
      </g>
     </g>
    </g>
    <g id="ytick_5">
     <g id="line2d_21">
      <path d="M 41.105 86.464637 
L 559.505 86.464637 
" clip-path="url(#pb2a2185d91)" style="fill: none; stroke: #cccccc; stroke-width: 0.8; stroke-linecap: round"/>
     </g>
     <g id="line2d_22"/>
     <g id="text_12">
      <!-- 2.0 -->
      <g style="fill: #262626" transform="translate(22.315 90.401434) scale(0.11 -0.11)">
       <use xlink:href="#ArialMT-32"/>
       <use xlink:href="#ArialMT-2e" x="55.615234"/>
       <use xlink:href="#ArialMT-30" x="83.398438"/>
      </g>
     </g>
    </g>
    <g id="ytick_6">
     <g id="line2d_23">
      <path d="M 41.105 36.455796 
L 559.505 36.455796 
" clip-path="url(#pb2a2185d91)" style="fill: none; stroke: #cccccc; stroke-width: 0.8; stroke-linecap: round"/>
     </g>
     <g id="line2d_24"/>
     <g id="text_13">
      <!-- 2.5 -->
      <g style="fill: #262626" transform="translate(22.315 40.392593) scale(0.11 -0.11)">
       <use xlink:href="#ArialMT-32"/>
       <use xlink:href="#ArialMT-2e" x="55.615234"/>
       <use xlink:href="#ArialMT-35" x="83.398438"/>
      </g>
     </g>
    </g>
    <g id="text_14">
     <!-- Probability density -->
     <g style="fill: #262626" transform="translate(15.789375 195.539062) rotate(-90) scale(0.12 -0.12)">
      <defs>
       <path id="ArialMT-62" d="M 941 0 
L 419 0 
L 419 4581 
L 981 4581 
L 981 2947 
Q 1338 3394 1891 3394 
Q 2197 3394 2470 3270 
Q 2744 3147 2920 2923 
Q 3097 2700 3197 2384 
Q 3297 2069 3297 1709 
Q 3297 856 2875 390 
Q 2453 -75 1863 -75 
Q 1275 -75 941 416 
L 941 0 
z
M 934 1684 
Q 934 1088 1097 822 
Q 1363 388 1816 388 
Q 2184 388 2453 708 
Q 2722 1028 2722 1663 
Q 2722 2313 2464 2622 
Q 2206 2931 1841 2931 
Q 1472 2931 1203 2611 
Q 934 2291 934 1684 
z
" transform="scale(0.015625)"/>
       <path id="ArialMT-61" d="M 2588 409 
Q 2275 144 1986 34 
Q 1697 -75 1366 -75 
Q 819 -75 525 192 
Q 231 459 231 875 
Q 231 1119 342 1320 
Q 453 1522 633 1644 
Q 813 1766 1038 1828 
Q 1203 1872 1538 1913 
Q 2219 1994 2541 2106 
Q 2544 2222 2544 2253 
Q 2544 2597 2384 2738 
Q 2169 2928 1744 2928 
Q 1347 2928 1158 2789 
Q 969 2650 878 2297 
L 328 2372 
Q 403 2725 575 2942 
Q 747 3159 1072 3276 
Q 1397 3394 1825 3394 
Q 2250 3394 2515 3294 
Q 2781 3194 2906 3042 
Q 3031 2891 3081 2659 
Q 3109 2516 3109 2141 
L 3109 1391 
Q 3109 606 3145 398 
Q 3181 191 3288 0 
L 2700 0 
Q 2613 175 2588 409 
z
M 2541 1666 
Q 2234 1541 1622 1453 
Q 1275 1403 1131 1340 
Q 988 1278 909 1158 
Q 831 1038 831 891 
Q 831 666 1001 516 
Q 1172 366 1500 366 
Q 1825 366 2078 508 
Q 2331 650 2450 897 
Q 2541 1088 2541 1459 
L 2541 1666 
z
" transform="scale(0.015625)"/>
       <path id="ArialMT-79" d="M 397 -1278 
L 334 -750 
Q 519 -800 656 -800 
Q 844 -800 956 -737 
Q 1069 -675 1141 -563 
Q 1194 -478 1313 -144 
Q 1328 -97 1363 -6 
L 103 3319 
L 709 3319 
L 1400 1397 
Q 1534 1031 1641 628 
Q 1738 1016 1872 1384 
L 2581 3319 
L 3144 3319 
L 1881 -56 
Q 1678 -603 1566 -809 
Q 1416 -1088 1222 -1217 
Q 1028 -1347 759 -1347 
Q 597 -1347 397 -1278 
z
" transform="scale(0.015625)"/>
       <path id="ArialMT-64" d="M 2575 0 
L 2575 419 
Q 2259 -75 1647 -75 
Q 1250 -75 917 144 
Q 584 363 401 755 
Q 219 1147 219 1656 
Q 219 2153 384 2558 
Q 550 2963 881 3178 
Q 1213 3394 1622 3394 
Q 1922 3394 2156 3267 
Q 2391 3141 2538 2938 
L 2538 4581 
L 3097 4581 
L 3097 0 
L 2575 0 
z
M 797 1656 
Q 797 1019 1065 703 
Q 1334 388 1700 388 
Q 2069 388 2326 689 
Q 2584 991 2584 1609 
Q 2584 2291 2321 2609 
Q 2059 2928 1675 2928 
Q 1300 2928 1048 2622 
Q 797 2316 797 1656 
z
" transform="scale(0.015625)"/>
       <path id="ArialMT-73" d="M 197 991 
L 753 1078 
Q 800 744 1014 566 
Q 1228 388 1613 388 
Q 2000 388 2187 545 
Q 2375 703 2375 916 
Q 2375 1106 2209 1216 
Q 2094 1291 1634 1406 
Q 1016 1563 777 1677 
Q 538 1791 414 1992 
Q 291 2194 291 2438 
Q 291 2659 392 2848 
Q 494 3038 669 3163 
Q 800 3259 1026 3326 
Q 1253 3394 1513 3394 
Q 1903 3394 2198 3281 
Q 2494 3169 2634 2976 
Q 2775 2784 2828 2463 
L 2278 2388 
Q 2241 2644 2061 2787 
Q 1881 2931 1553 2931 
Q 1166 2931 1000 2803 
Q 834 2675 834 2503 
Q 834 2394 903 2306 
Q 972 2216 1119 2156 
Q 1203 2125 1616 2013 
Q 2213 1853 2448 1751 
Q 2684 1650 2818 1456 
Q 2953 1263 2953 975 
Q 2953 694 2789 445 
Q 2625 197 2315 61 
Q 2006 -75 1616 -75 
Q 969 -75 630 194 
Q 291 463 197 991 
z
" transform="scale(0.015625)"/>
      </defs>
      <use xlink:href="#ArialMT-50"/>
      <use xlink:href="#ArialMT-72" x="66.699219"/>
      <use xlink:href="#ArialMT-6f" x="100"/>
      <use xlink:href="#ArialMT-62" x="155.615234"/>
      <use xlink:href="#ArialMT-61" x="211.230469"/>
      <use xlink:href="#ArialMT-62" x="266.845703"/>
      <use xlink:href="#ArialMT-69" x="322.460938"/>
      <use xlink:href="#ArialMT-6c" x="344.677734"/>
      <use xlink:href="#ArialMT-69" x="366.894531"/>
      <use xlink:href="#ArialMT-74" x="389.111328"/>
      <use xlink:href="#ArialMT-79" x="416.894531"/>
      <use xlink:href="#ArialMT-20" x="466.894531"/>
      <use xlink:href="#ArialMT-64" x="494.677734"/>
      <use xlink:href="#ArialMT-65" x="550.292969"/>
      <use xlink:href="#ArialMT-6e" x="605.908203"/>
      <use xlink:href="#ArialMT-73" x="661.523438"/>
      <use xlink:href="#ArialMT-69" x="711.523438"/>
      <use xlink:href="#ArialMT-74" x="733.740234"/>
      <use xlink:href="#ArialMT-79" x="761.523438"/>
     </g>
    </g>
   </g>
   <g id="PolyCollection_1">
    <defs>
     <path id="m5f15e247fa" d="M 64.668636 -35.734219 
L 64.668636 -35.823455 
L 65.613071 -35.829352 
L 66.557505 -35.835614 
L 67.501939 -35.84226 
L 68.446374 -35.849312 
L 69.390808 -35.856792 
L 70.335242 -35.864726 
L 71.279677 -35.873137 
L 72.224111 -35.882052 
L 73.168545 -35.891499 
L 74.11298 -35.901506 
L 75.057414 -35.912105 
L 76.001848 -35.923326 
L 76.946283 -35.935204 
L 77.890717 -35.947773 
L 78.835151 -35.961069 
L 79.779586 -35.975132 
L 80.72402 -35.99 
L 81.668454 -36.005717 
L 82.612889 -36.022324 
L 83.557323 -36.03987 
L 84.501757 -36.0584 
L 85.446191 -36.077965 
L 86.390626 -36.098618 
L 87.33506 -36.120412 
L 88.279494 -36.143404 
L 89.223929 -36.167654 
L 90.168363 -36.193223 
L 91.112797 -36.220176 
L 92.057232 -36.248579 
L 93.001666 -36.278502 
L 93.9461 -36.310017 
L 94.890535 -36.343202 
L 95.834969 -36.378133 
L 96.779403 -36.414892 
L 97.723838 -36.453566 
L 98.668272 -36.494241 
L 99.612706 -36.53701 
L 100.557141 -36.581967 
L 101.501575 -36.629212 
L 102.446009 -36.678848 
L 103.390444 -36.73098 
L 104.334878 -36.785718 
L 105.279312 -36.843178 
L 106.223747 -36.903477 
L 107.168181 -36.966738 
L 108.112615 -37.033087 
L 109.05705 -37.102657 
L 110.001484 -37.175582 
L 110.945918 -37.252004 
L 111.890353 -37.332066 
L 112.834787 -37.41592 
L 113.779221 -37.503719 
L 114.723655 -37.595624 
L 115.66809 -37.691798 
L 116.612524 -37.792413 
L 117.556958 -37.897643 
L 118.501393 -38.007669 
L 119.445827 -38.122676 
L 120.390261 -38.242857 
L 121.334696 -38.368407 
L 122.27913 -38.49953 
L 123.223564 -38.636434 
L 124.167999 -38.779333 
L 125.112433 -38.928447 
L 126.056867 -39.084001 
L 127.001302 -39.246228 
L 127.945736 -39.415366 
L 128.89017 -39.591657 
L 129.834605 -39.775352 
L 130.779039 -39.966707 
L 131.723473 -40.165984 
L 132.667908 -40.37345 
L 133.612342 -40.589381 
L 134.556776 -40.814056 
L 135.501211 -41.047763 
L 136.445645 -41.290793 
L 137.390079 -41.543445 
L 138.334514 -41.806025 
L 139.278948 -42.078842 
L 140.223382 -42.362213 
L 141.167817 -42.656462 
L 142.112251 -42.961916 
L 143.056685 -43.278908 
L 144.00112 -43.60778 
L 144.945554 -43.948875 
L 145.889988 -44.302545 
L 146.834422 -44.669144 
L 147.778857 -45.049034 
L 148.723291 -45.44258 
L 149.667725 -45.850153 
L 150.61216 -46.272128 
L 151.556594 -46.708884 
L 152.501028 -47.160804 
L 153.445463 -47.628276 
L 154.389897 -48.111691 
L 155.334331 -48.611444 
L 156.278766 -49.127932 
L 157.2232 -49.661555 
L 158.167634 -50.212716 
L 159.112069 -50.781821 
L 160.056503 -51.369277 
L 161.000937 -51.975492 
L 161.945372 -52.600876 
L 162.889806 -53.245839 
L 163.83424 -53.910792 
L 164.778675 -54.596147 
L 165.723109 -55.302312 
L 166.667543 -56.029699 
L 167.611978 -56.778714 
L 168.556412 -57.549764 
L 169.500846 -58.343253 
L 170.445281 -59.159582 
L 171.389715 -59.999147 
L 172.334149 -60.862343 
L 173.278584 -61.749559 
L 174.223018 -62.661178 
L 175.167452 -63.59758 
L 176.111887 -64.559135 
L 177.056321 -65.546211 
L 178.000755 -66.559163 
L 178.945189 -67.598343 
L 179.889624 -68.66409 
L 180.834058 -69.756738 
L 181.778492 -70.876607 
L 182.722927 -72.024009 
L 183.667361 -73.199242 
L 184.611795 -74.402595 
L 185.55623 -75.634343 
L 186.500664 -76.894745 
L 187.445098 -78.184051 
L 188.389533 -79.502491 
L 189.333967 -80.850283 
L 190.278401 -82.227627 
L 191.222836 -83.634706 
L 192.16727 -85.071687 
L 193.111704 -86.538716 
L 194.056139 -88.035922 
L 195.000573 -89.563414 
L 195.945007 -91.121278 
L 196.889442 -92.709583 
L 197.833876 -94.328372 
L 198.77831 -95.977668 
L 199.722745 -97.65747 
L 200.667179 -99.367754 
L 201.611613 -101.108469 
L 202.556048 -102.879542 
L 202.556048 -35.734219 
L 202.556048 -35.734219 
L 201.611613 -35.734219 
L 200.667179 -35.734219 
L 199.722745 -35.734219 
L 198.77831 -35.734219 
L 197.833876 -35.734219 
L 196.889442 -35.734219 
L 195.945007 -35.734219 
L 195.000573 -35.734219 
L 194.056139 -35.734219 
L 193.111704 -35.734219 
L 192.16727 -35.734219 
L 191.222836 -35.734219 
L 190.278401 -35.734219 
L 189.333967 -35.734219 
L 188.389533 -35.734219 
L 187.445098 -35.734219 
L 186.500664 -35.734219 
L 185.55623 -35.734219 
L 184.611795 -35.734219 
L 183.667361 -35.734219 
L 182.722927 -35.734219 
L 181.778492 -35.734219 
L 180.834058 -35.734219 
L 179.889624 -35.734219 
L 178.945189 -35.734219 
L 178.000755 -35.734219 
L 177.056321 -35.734219 
L 176.111887 -35.734219 
L 175.167452 -35.734219 
L 174.223018 -35.734219 
L 173.278584 -35.734219 
L 172.334149 -35.734219 
L 171.389715 -35.734219 
L 170.445281 -35.734219 
L 169.500846 -35.734219 
L 168.556412 -35.734219 
L 167.611978 -35.734219 
L 166.667543 -35.734219 
L 165.723109 -35.734219 
L 164.778675 -35.734219 
L 163.83424 -35.734219 
L 162.889806 -35.734219 
L 161.945372 -35.734219 
L 161.000937 -35.734219 
L 160.056503 -35.734219 
L 159.112069 -35.734219 
L 158.167634 -35.734219 
L 157.2232 -35.734219 
L 156.278766 -35.734219 
L 155.334331 -35.734219 
L 154.389897 -35.734219 
L 153.445463 -35.734219 
L 152.501028 -35.734219 
L 151.556594 -35.734219 
L 150.61216 -35.734219 
L 149.667725 -35.734219 
L 148.723291 -35.734219 
L 147.778857 -35.734219 
L 146.834422 -35.734219 
L 145.889988 -35.734219 
L 144.945554 -35.734219 
L 144.00112 -35.734219 
L 143.056685 -35.734219 
L 142.112251 -35.734219 
L 141.167817 -35.734219 
L 140.223382 -35.734219 
L 139.278948 -35.734219 
L 138.334514 -35.734219 
L 137.390079 -35.734219 
L 136.445645 -35.734219 
L 135.501211 -35.734219 
L 134.556776 -35.734219 
L 133.612342 -35.734219 
L 132.667908 -35.734219 
L 131.723473 -35.734219 
L 130.779039 -35.734219 
L 129.834605 -35.734219 
L 128.89017 -35.734219 
L 127.945736 -35.734219 
L 127.001302 -35.734219 
L 126.056867 -35.734219 
L 125.112433 -35.734219 
L 124.167999 -35.734219 
L 123.223564 -35.734219 
L 122.27913 -35.734219 
L 121.334696 -35.734219 
L 120.390261 -35.734219 
L 119.445827 -35.734219 
L 118.501393 -35.734219 
L 117.556958 -35.734219 
L 116.612524 -35.734219 
L 115.66809 -35.734219 
L 114.723655 -35.734219 
L 113.779221 -35.734219 
L 112.834787 -35.734219 
L 111.890353 -35.734219 
L 110.945918 -35.734219 
L 110.001484 -35.734219 
L 109.05705 -35.734219 
L 108.112615 -35.734219 
L 107.168181 -35.734219 
L 106.223747 -35.734219 
L 105.279312 -35.734219 
L 104.334878 -35.734219 
L 103.390444 -35.734219 
L 102.446009 -35.734219 
L 101.501575 -35.734219 
L 100.557141 -35.734219 
L 99.612706 -35.734219 
L 98.668272 -35.734219 
L 97.723838 -35.734219 
L 96.779403 -35.734219 
L 95.834969 -35.734219 
L 94.890535 -35.734219 
L 93.9461 -35.734219 
L 93.001666 -35.734219 
L 92.057232 -35.734219 
L 91.112797 -35.734219 
L 90.168363 -35.734219 
L 89.223929 -35.734219 
L 88.279494 -35.734219 
L 87.33506 -35.734219 
L 86.390626 -35.734219 
L 85.446191 -35.734219 
L 84.501757 -35.734219 
L 83.557323 -35.734219 
L 82.612889 -35.734219 
L 81.668454 -35.734219 
L 80.72402 -35.734219 
L 79.779586 -35.734219 
L 78.835151 -35.734219 
L 77.890717 -35.734219 
L 76.946283 -35.734219 
L 76.001848 -35.734219 
L 75.057414 -35.734219 
L 74.11298 -35.734219 
L 73.168545 -35.734219 
L 72.224111 -35.734219 
L 71.279677 -35.734219 
L 70.335242 -35.734219 
L 69.390808 -35.734219 
L 68.446374 -35.734219 
L 67.501939 -35.734219 
L 66.557505 -35.734219 
L 65.613071 -35.734219 
L 64.668636 -35.734219 
z
" style="stroke: #c0392b; stroke-opacity: 0.35"/>
    </defs>
    <g clip-path="url(#pb2a2185d91)">
     <use xlink:href="#m5f15e247fa" x="0" y="322.234219" style="fill: #c0392b; fill-opacity: 0.35; stroke: #c0392b; stroke-opacity: 0.35"/>
    </g>
   </g>
   <g id="line2d_25">
    <path d="M 64.668636 286.410764 
L 84.501757 286.175819 
L 96.779403 285.819326 
L 106.223747 285.330742 
L 113.779221 284.7305 
L 120.390261 283.991362 
L 126.056867 283.150218 
L 131.723473 282.068235 
L 136.445645 280.943426 
L 141.167817 279.577757 
L 144.945554 278.285344 
L 148.723291 276.791639 
L 152.501028 275.073415 
L 156.278766 273.106287 
L 160.056503 270.864942 
L 163.83424 268.323427 
L 167.611978 265.455505 
L 171.389715 262.235072 
L 175.167452 258.636639 
L 178.945189 254.635876 
L 182.722927 250.21021 
L 186.500664 245.339473 
L 190.278401 240.006592 
L 194.056139 234.198296 
L 197.833876 227.905847 
L 201.611613 221.12575 
L 205.389351 213.860449 
L 209.167088 206.118968 
L 212.944825 197.917488 
L 217.666997 187.055804 
L 222.389168 175.577345 
L 228.055774 161.109224 
L 234.666815 143.509827 
L 255.44437 87.44727 
L 260.166541 75.596464 
L 263.944279 66.629389 
L 267.722016 58.221769 
L 271.499753 50.465326 
L 274.333056 45.127816 
L 277.166359 40.239927 
L 279.999662 35.833579 
L 282.832965 31.937935 
L 284.721834 29.637576 
L 286.610702 27.582762 
L 288.499571 25.779697 
L 290.38844 24.233852 
L 292.277308 22.949939 
L 294.166177 21.931885 
L 296.055046 21.182814 
L 297.943914 20.705029 
L 299.832783 20.5 
L 301.721651 20.56836 
L 303.61052 20.909899 
L 305.499389 21.523564 
L 307.388257 22.407466 
L 309.277126 23.55889 
L 311.165995 24.97431 
L 313.054863 26.649402 
L 314.943732 28.579072 
L 316.832601 30.757478 
L 318.721469 33.178062 
L 321.554772 37.246997 
L 324.388075 41.817242 
L 327.221378 46.858678 
L 330.054681 52.33854 
L 332.887984 58.221769 
L 336.665721 66.629389 
L 340.443459 75.596464 
L 345.16563 87.44727 
L 350.832236 102.361064 
L 359.332145 125.480992 
L 369.720923 153.643956 
L 375.387529 168.428457 
L 380.1097 180.237799 
L 384.831872 191.478531 
L 389.554044 202.074423 
L 393.331781 210.048394 
L 397.109518 217.553347 
L 400.887255 224.576749 
L 404.664993 231.11294 
L 408.44273 237.162532 
L 412.220467 242.731728 
L 415.998205 247.831623 
L 419.775942 252.477481 
L 423.553679 256.688008 
L 427.331416 260.48466 
L 431.109154 263.890966 
L 434.886891 266.931906 
L 438.664628 269.633343 
L 442.442366 272.021502 
L 446.220103 274.122527 
L 449.99784 275.962091 
L 453.775578 277.565075 
L 457.553315 278.95531 
L 462.275486 280.428194 
L 466.997658 281.644838 
L 471.71983 282.642562 
L 477.386436 283.597785 
L 483.053042 284.336576 
L 489.664082 284.982215 
L 497.219556 285.503239 
L 506.6639 285.924201 
L 518.941546 286.228502 
L 535.941364 286.410764 
L 535.941364 286.410764 
" clip-path="url(#pb2a2185d91)" style="fill: none; stroke: #00356b; stroke-width: 2.2; stroke-linecap: round"/>
   </g>
   <g id="line2d_26">
    <path d="M 300.305 286.5 
L 300.305 7.2 
" clip-path="url(#pb2a2185d91)" style="fill: none; stroke-dasharray: 3.7,1.6; stroke-dashoffset: 0; stroke: #333333"/>
   </g>
   <g id="line2d_27">
    <path d="M 203.408168 286.5 
L 203.408168 7.2 
" clip-path="url(#pb2a2185d91)" style="fill: none; stroke: #c0392b; stroke-width: 1.6; stroke-linecap: round"/>
   </g>
   <g id="patch_3">
    <path d="M 41.105 286.5 
L 41.105 7.2 
" style="fill: none; stroke: #cccccc; stroke-linejoin: miter; stroke-linecap: square"/>
   </g>
   <g id="patch_4">
    <path d="M 41.105 286.5 
L 559.505 286.5 
" style="fill: none; stroke: #cccccc; stroke-linejoin: miter; stroke-linecap: square"/>
   </g>
   <g id="text_15">
    <!-- mean = 8% -->
    <g style="fill: #333333" transform="translate(300.305 18.372) scale(0.09 -0.09)">
     <defs>
      <path id="ArialMT-6d" d="M 422 0 
L 422 3319 
L 925 3319 
L 925 2853 
Q 1081 3097 1340 3245 
Q 1600 3394 1931 3394 
Q 2300 3394 2536 3241 
Q 2772 3088 2869 2813 
Q 3263 3394 3894 3394 
Q 4388 3394 4653 3120 
Q 4919 2847 4919 2278 
L 4919 0 
L 4359 0 
L 4359 2091 
Q 4359 2428 4304 2576 
Q 4250 2725 4106 2815 
Q 3963 2906 3769 2906 
Q 3419 2906 3187 2673 
Q 2956 2441 2956 1928 
L 2956 0 
L 2394 0 
L 2394 2156 
Q 2394 2531 2256 2718 
Q 2119 2906 1806 2906 
Q 1569 2906 1367 2781 
Q 1166 2656 1075 2415 
Q 984 2175 984 1722 
L 984 0 
L 422 0 
z
" transform="scale(0.015625)"/>
      <path id="ArialMT-3d" d="M 3381 2694 
L 356 2694 
L 356 3219 
L 3381 3219 
L 3381 2694 
z
M 3381 1303 
L 356 1303 
L 356 1828 
L 3381 1828 
L 3381 1303 
z
" transform="scale(0.015625)"/>
      <path id="ArialMT-38" d="M 1131 2484 
Q 781 2613 612 2850 
Q 444 3088 444 3419 
Q 444 3919 803 4259 
Q 1163 4600 1759 4600 
Q 2359 4600 2725 4251 
Q 3091 3903 3091 3403 
Q 3091 3084 2923 2848 
Q 2756 2613 2416 2484 
Q 2838 2347 3058 2040 
Q 3278 1734 3278 1309 
Q 3278 722 2862 322 
Q 2447 -78 1769 -78 
Q 1091 -78 675 323 
Q 259 725 259 1325 
Q 259 1772 486 2073 
Q 713 2375 1131 2484 
z
M 1019 3438 
Q 1019 3113 1228 2906 
Q 1438 2700 1772 2700 
Q 2097 2700 2305 2904 
Q 2513 3109 2513 3406 
Q 2513 3716 2298 3927 
Q 2084 4138 1766 4138 
Q 1444 4138 1231 3931 
Q 1019 3725 1019 3438 
z
M 838 1322 
Q 838 1081 952 856 
Q 1066 631 1291 507 
Q 1516 384 1775 384 
Q 2178 384 2440 643 
Q 2703 903 2703 1303 
Q 2703 1709 2433 1975 
Q 2163 2241 1756 2241 
Q 1359 2241 1098 1978 
Q 838 1716 838 1322 
z
" transform="scale(0.015625)"/>
     </defs>
     <use xlink:href="#ArialMT-6d"/>
     <use xlink:href="#ArialMT-65" x="83.300781"/>
     <use xlink:href="#ArialMT-61" x="138.916016"/>
     <use xlink:href="#ArialMT-6e" x="194.53125"/>
     <use xlink:href="#ArialMT-20" x="250.146484"/>
     <use xlink:href="#ArialMT-3d" x="277.929688"/>
     <use xlink:href="#ArialMT-20" x="336.328125"/>
     <use xlink:href="#ArialMT-38" x="364.111328"/>
     <use xlink:href="#ArialMT-25" x="419.726562"/>
    </g>
   </g>
   <g id="text_16">
    <!-- 5% of outcomes -->
    <g style="fill: #c0392b" transform="translate(123.51135 251.493811) scale(0.095 -0.095)">
     <defs>
      <path id="ArialMT-63" d="M 2588 1216 
L 3141 1144 
Q 3050 572 2676 248 
Q 2303 -75 1759 -75 
Q 1078 -75 664 370 
Q 250 816 250 1647 
Q 250 2184 428 2587 
Q 606 2991 970 3192 
Q 1334 3394 1763 3394 
Q 2303 3394 2647 3120 
Q 2991 2847 3088 2344 
L 2541 2259 
Q 2463 2594 2264 2762 
Q 2066 2931 1784 2931 
Q 1359 2931 1093 2626 
Q 828 2322 828 1663 
Q 828 994 1084 691 
Q 1341 388 1753 388 
Q 2084 388 2306 591 
Q 2528 794 2588 1216 
z
" transform="scale(0.015625)"/>
     </defs>
     <use xlink:href="#ArialMT-35"/>
     <use xlink:href="#ArialMT-25" x="55.615234"/>
     <use xlink:href="#ArialMT-20" x="144.53125"/>
     <use xlink:href="#ArialMT-6f" x="172.314453"/>
     <use xlink:href="#ArialMT-66" x="227.929688"/>
     <use xlink:href="#ArialMT-20" x="255.712891"/>
     <use xlink:href="#ArialMT-6f" x="283.496094"/>
     <use xlink:href="#ArialMT-75" x="339.111328"/>
     <use xlink:href="#ArialMT-74" x="394.726562"/>
     <use xlink:href="#ArialMT-63" x="422.509766"/>
     <use xlink:href="#ArialMT-6f" x="472.509766"/>
     <use xlink:href="#ArialMT-6d" x="528.125"/>
     <use xlink:href="#ArialMT-65" x="611.425781"/>
     <use xlink:href="#ArialMT-73" x="667.041016"/>
    </g>
   </g>
   <g id="text_17">
    <!-- $R_{VaR}$ = -17% -->
    <g style="fill: #c0392b" transform="translate(175.408168 301.502652) scale(0.1 -0.1)">
     <defs>
      <path id="DejaVuSans-Oblique-52" d="M 1613 4147 
L 1294 2491 
L 2106 2491 
Q 2584 2491 2879 2755 
Q 3175 3019 3175 3444 
Q 3175 3784 2976 3965 
Q 2778 4147 2406 4147 
L 1613 4147 
z
M 2772 2241 
Q 2972 2194 3105 2009 
Q 3238 1825 3413 1275 
L 3809 0 
L 3144 0 
L 2778 1197 
Q 2638 1659 2453 1815 
Q 2269 1972 1888 1972 
L 1191 1972 
L 806 0 
L 172 0 
L 1081 4666 
L 2503 4666 
Q 3150 4666 3495 4373 
Q 3841 4081 3841 3531 
Q 3841 3044 3547 2687 
Q 3253 2331 2772 2241 
z
" transform="scale(0.015625)"/>
      <path id="DejaVuSans-Oblique-56" d="M 1319 0 
L 500 4666 
L 1119 4666 
L 1797 653 
L 4063 4666 
L 4750 4666 
L 2053 0 
L 1319 0 
z
" transform="scale(0.015625)"/>
      <path id="DejaVuSans-Oblique-61" d="M 3438 1997 
L 3047 0 
L 2472 0 
L 2578 531 
Q 2325 219 2001 64 
Q 1678 -91 1281 -91 
Q 834 -91 548 182 
Q 263 456 263 884 
Q 263 1497 752 1853 
Q 1241 2209 2100 2209 
L 2900 2209 
L 2931 2363 
Q 2938 2388 2941 2417 
Q 2944 2447 2944 2509 
Q 2944 2788 2717 2942 
Q 2491 3097 2081 3097 
Q 1800 3097 1504 3025 
Q 1209 2953 897 2809 
L 997 3341 
Q 1322 3463 1633 3523 
Q 1944 3584 2234 3584 
Q 2853 3584 3176 3315 
Q 3500 3047 3500 2534 
Q 3500 2431 3484 2292 
Q 3469 2153 3438 1997 
z
M 2816 1759 
L 2241 1759 
Q 1534 1759 1195 1570 
Q 856 1381 856 984 
Q 856 709 1029 553 
Q 1203 397 1509 397 
Q 1978 397 2328 733 
Q 2678 1069 2791 1631 
L 2816 1759 
z
" transform="scale(0.015625)"/>
      <path id="ArialMT-37" d="M 303 3981 
L 303 4522 
L 3269 4522 
L 3269 4084 
Q 2831 3619 2401 2847 
Q 1972 2075 1738 1259 
Q 1569 684 1522 0 
L 944 0 
Q 953 541 1156 1306 
Q 1359 2072 1739 2783 
Q 2119 3494 2547 3981 
L 303 3981 
z
" transform="scale(0.015625)"/>
     </defs>
     <use xlink:href="#DejaVuSans-Oblique-52" transform="translate(0 0.09375)"/>
     <use xlink:href="#DejaVuSans-Oblique-56" transform="translate(69.482422 -16.3125) scale(0.7)"/>
     <use xlink:href="#DejaVuSans-Oblique-61" transform="translate(117.368164 -16.3125) scale(0.7)"/>
     <use xlink:href="#DejaVuSans-Oblique-52" transform="translate(160.263672 -16.3125) scale(0.7)"/>
     <use xlink:href="#ArialMT-20" transform="translate(211.635742 0.09375)"/>
     <use xlink:href="#ArialMT-3d" transform="translate(239.418945 0.09375)"/>
     <use xlink:href="#ArialMT-20" transform="translate(297.817383 0.09375)"/>
     <use xlink:href="#ArialMT-2d" transform="translate(325.600586 0.09375)"/>
     <use xlink:href="#ArialMT-31" transform="translate(358.901367 0.09375)"/>
     <use xlink:href="#ArialMT-37" transform="translate(414.516602 0.09375)"/>
     <use xlink:href="#ArialMT-25" transform="translate(470.131836 0.09375)"/>
    </g>
   </g>
  </g>
 </g>
 <defs>
  <clipPath id="pb2a2185d91">
   <rect x="41.105" y="7.2" width="518.4" height="279.3"/>
  </clipPath>
 </defs>
</svg>
